<svg width="221" height="312" viewBox="0 0 221 312" fill="none" xmlns="http://www.w3.org/2000/svg">
<path d="M189.299 136.578H50.1827C46.8101 136.578 39.0971 140.332 35.6622 142.21C32.6644 276.997 91.8707 311.007 121.849 311.163C193.796 301.401 205.537 194.46 202.414 142.21C201.29 139.206 193.202 137.204 189.299 136.578Z" fill="#4070A8"/>
<rect opacity="0.47" x="83.25" y="162.25" width="70.6571" height="18.5909" rx="2.75" stroke="#FDF5F5" stroke-width="0.5"/>
<path opacity="0.66" d="M97.3182 165.471L98.5846 169.369H102.683L99.3673 171.777L100.634 175.675L97.3182 173.266L94.0028 175.675L95.2692 171.777L91.9538 169.369H96.0519L97.3182 165.471Z" fill="white"/>
<path opacity="0.66" d="M112.07 165.471L113.337 169.369H117.435L114.119 171.777L115.386 175.675L112.07 173.266L108.755 175.675L110.021 171.777L106.706 169.369H110.804L112.07 165.471Z" fill="white"/>
<path opacity="0.66" d="M126.822 165.471L128.089 169.369H132.187L128.871 171.777L130.138 175.675L126.822 173.266L123.507 175.675L124.773 171.777L121.458 169.369H125.556L126.822 165.471Z" fill="white"/>
<path opacity="0.66" d="M141.574 165.471L142.841 169.369H146.939L143.623 171.777L144.89 175.675L141.574 173.266L138.259 175.675L139.525 171.777L136.21 169.369H140.308L141.574 165.471Z" fill="white"/>
<path d="M44.6338 105.153C46.6615 120.953 65.1571 152.496 122.918 152.262C140.641 150.399 178.297 139.56 187.135 111.107" stroke="#205088"/>
<path d="M81.0881 44.815L83.0272 30.0097C83.0702 27.4213 85.3451 22.3605 94.1006 22.8247L94.9599 19.055C95.2302 16.7691 97.8148 12.6496 105.99 14.4584" stroke="#205088"/>
<path d="M105.317 72.9015C120.346 71.3589 152.762 73.8297 162.191 96.0537C166.195 104.784 164.787 124.378 127.123 132.913" stroke="#205088"/>
<rect x="96.4858" y="15.6793" width="56.9029" height="28.431" rx="7" transform="rotate(5.34172 96.4858 15.6793)" fill="#205088"/>
<rect x="85.7776" y="24.862" width="77.1699" height="28.431" rx="7" transform="rotate(5.34172 85.7776 24.862)" fill="#D8E3F4"/>
<ellipse cx="117.054" cy="95.4589" rx="73.4462" ry="56.5343" transform="rotate(-1.44257 117.054 95.4589)" fill="#B8CFE9"/>
<ellipse cx="47.1863" cy="85.9589" rx="9.86034" ry="21.5988" transform="rotate(16.8867 47.1863 85.9589)" fill="#102840"/>
<ellipse cx="112.512" cy="105.312" rx="49.7543" ry="30.4618" transform="rotate(1.83687 112.512 105.312)" fill="white"/>
<path d="M183.302 90.1309C183.128 98.5924 178.569 118.453 161.723 130.202" stroke="#40404B" stroke-width="2.3"/>
<ellipse cx="83.088" cy="103.416" rx="8.11477" ry="11.4425" transform="rotate(1.04183 83.088 103.416)" fill="#102840"/>
<ellipse cx="137.401" cy="106.908" rx="8.11477" ry="11.4425" transform="rotate(1.04183 137.401 106.908)" fill="#102840"/>
<path d="M107.658 99.8273L105.171 111.636C104.582 113.12 104.985 116.831 111.309 119.804" stroke="#205088" stroke-width="2"/>
<path d="M105.778 129.073C110.093 131.037 121.429 132.818 132.247 124.235" stroke="#205088" stroke-width="2"/>
<ellipse cx="187.023" cy="87.9024" rx="10.6616" ry="23.354" transform="rotate(-10.3575 187.023 87.9024)" fill="#102840"/>
<ellipse cx="161.458" cy="129.647" rx="3.55388" ry="6.09236" transform="rotate(54.5439 161.458 129.647)" fill="#40404B"/>
<path d="M107.529 249.619L94.5781 240.985L91.3403 248L110.227 258.253L127.495 228.034C128.359 224.149 125.697 224.616 124.258 225.336L107.529 249.619Z" fill="#D8E3F4"/>
<path d="M153.397 246.921L63.2795 184.864C58.0991 184.001 57.5235 187.742 57.8832 189.721L148.001 251.238L153.397 246.921Z" fill="#40404B"/>
<path d="M74.6118 190.8L69.2156 197.815L70.8345 198.894L74.6118 194.038L97.8158 209.687L99.4347 208.068L74.6118 190.8Z" fill="#D9D9D9"/>
<path d="M56.8044 187.022L58.4233 188.102L60.0422 185.404L58.4233 184.324L56.8044 187.022Z" fill="#D9D9D9"/>
<path d="M38.9967 248.54L54.1063 175.69L19.0305 165.437L8.77759 252.857L13.0946 278.219L75.1517 255.555L68.6762 238.287L38.9967 248.54Z" fill="#205088"/>
<path d="M15.5 265L27 190.5C32.2 185.7 35.1667 188.5 36 190.5L23.5 265H15.5Z" fill="#D9D9D9" fill-opacity="0.4"/>
<circle cx="38.4568" cy="161.12" r="19.7681" fill="#D8E3F4" stroke="#102840" stroke-width="5"/>
<circle cx="17.9511" cy="264.729" r="15.4511" fill="#D8E3F4" stroke="#102840" stroke-width="5"/>
<circle cx="84.3251" cy="241.525" r="13.4907" fill="#205088"/>
<rect x="66.5176" y="235.838" width="6.47553" height="24.7026" transform="rotate(-21.8274 66.5176 235.838)" fill="#D8E3F4"/>
<rect x="69.7551" y="228.283" width="9.71341" height="34.4476" transform="rotate(-21.8274 69.7551 228.283)" fill="#A8CADC"/>
<path d="M213.082 228.211L204.946 168.689L189.53 175.54L194.241 232.065L213.082 228.211Z" fill="#205088"/>
<circle cx="191.243" cy="157.555" r="16.203" fill="#D8E3F4" stroke="#102840" stroke-width="5"/>
<circle cx="204.946" cy="239.773" r="12.7772" fill="#D8E3F4" stroke="#102840" stroke-width="5"/>
<rect x="131.133" y="163.275" width="71.9405" height="98.49" rx="6" transform="rotate(7.38082 131.133 163.275)" fill="#B8C2C8"/>
<path d="M199.379 214.936L177.968 211.939V217.506L190.814 219.647L189.102 237.632H174.114V244.483L195.953 246.624L199.379 214.936Z" fill="#D8E3F4" stroke="#B8C2C8" stroke-width="0.5"/>
<path d="M130.864 219.647L136.859 172.115L192.956 184.105L140.713 178.538L130.864 219.647Z" fill="#E8E6E6"/>
<path d="M179.5 171.862L153.822 167.92C152.731 167.752 151.983 166.732 152.15 165.641C152.318 164.551 153.338 163.802 154.429 163.97L157.512 164.443C158.058 164.527 158.568 164.152 158.652 163.607C158.735 163.062 159.245 162.687 159.791 162.771L175.351 165.16C175.896 165.244 176.27 165.754 176.186 166.299C176.103 166.845 176.477 167.355 177.022 167.438L180.106 167.912C181.197 168.079 181.946 169.099 181.778 170.19C181.611 171.281 180.591 172.03 179.5 171.862Z" fill="#D9D9D9" stroke="black" stroke-width="0.3"/>
<path d="M170.362 164.591C170.319 164.869 170.267 165.012 170.237 165.076C170.112 165.08 169.912 165.053 169.545 164.976C169.472 164.961 169.393 164.944 169.309 164.926C169.002 164.86 168.63 164.779 168.235 164.718C167.862 164.661 167.475 164.623 167.134 164.589C167.02 164.578 166.911 164.567 166.81 164.556C166.371 164.509 166.054 164.461 165.821 164.386C165.711 164.351 165.645 164.318 165.609 164.294C165.592 164.282 165.583 164.274 165.578 164.27C165.574 164.266 165.573 164.264 165.573 164.264L165.573 164.264C165.572 164.263 165.57 164.26 165.567 164.251C165.564 164.242 165.558 164.225 165.554 164.196C165.545 164.135 165.54 164.027 165.567 163.855C165.794 162.372 167.089 161.437 168.362 161.633C169.635 161.828 170.59 163.108 170.362 164.591Z" stroke="black" stroke-width="2"/>
</svg>
