<svg width="8em" height="8em" viewBox="0 0 113 113" fill="none" xmlns="http://www.w3.org/2000/svg">
    <rect opacity="0.6" x="66.3198" width="64.8893" height="93.7903" rx="32.4446" transform="rotate(45 66.3198 0)" fill="#01253411"/>
    <ellipse cx="57.1025" cy="70.1025" rx="19" ry="17" fill="white"/>
    <path d="M66.3619 61.0175H65.6179L65.4041 61.7302L63.7637 67.198L56.3121 61.2367L56.0381 61.0175H55.6874H49.2251C45.3591 61.0175 42.2251 57.8835 42.2251 54.0175V36.9609C42.2251 33.0949 45.3591 29.9609 49.2251 29.9609H66.2817C70.1477 29.9609 73.2817 33.0949 73.2817 36.9609V54.0977C73.2817 57.9194 70.1836 61.0175 66.3619 61.0175Z" fill="white" stroke="#012534" stroke-width="2"/>
    <path d="M63.6269 49.9656C62.3171 52.2299 59.8689 53.7533 57.0649 53.7533C55.9608 53.7533 54.9118 53.5171 53.9658 53.0925" stroke="#012534" stroke-width="2" stroke-linecap="round"/>
    <path d="M31.4398 80.5978C29.8437 76.0459 33.2218 71.2815 38.0455 71.2815H77.8707C82.591 71.2815 85.9583 75.858 84.5536 80.3645L82.4571 87.0909C81.5455 90.0157 78.8378 92.0079 75.7742 92.0079H40.4041C37.4309 92.0079 34.7822 90.1298 33.7984 87.3242L31.4398 80.5978Z" fill="#00597fcc" stroke="#012534" stroke-width="2"/>
    <circle cx="63.2628" cy="41.3571" r="2.06604" fill="#012534"/>
    <circle cx="57.7535" cy="81.3004" r="2.06604" fill="#012534"/>
    <circle cx="52.2438" cy="41.3571" r="2.06604" fill="#012534"/>
    <path d="M79.1025 23.8341C79.1025 21.721 80.8155 20.0081 82.9285 20.0081H92.7449C95.0995 20.0081 97.0082 21.9168 97.0082 24.2713V28.7816C97.0082 31.5431 94.7696 33.7816 92.0082 33.7816H84.612H84.5816H84.1398C82.8126 33.7816 81.6699 34.7184 81.4096 36.0198L81.3511 36.3124C81.245 36.8431 80.779 37.225 80.2378 37.225C79.6108 37.225 79.1025 36.7167 79.1025 36.0897V23.8341Z" fill="#00597f88"/>
    <path d="M28.8286 57.8853C28.8286 56.3639 27.5953 55.1306 26.0739 55.1306H18.8592C17.1385 55.1306 15.7437 56.5255 15.7437 58.2461V60.0891C15.7437 62.8276 17.9637 65.0476 20.7022 65.0476H24.8025H24.8247H25.1712C26.1279 65.0476 26.9523 65.7215 27.1427 66.6591L27.1837 66.8614C27.2623 67.2486 27.6028 67.5268 27.9979 67.5268C28.4567 67.5268 28.8286 67.1549 28.8286 66.6961V57.8853Z" fill="#012534"/>
    <path d="M42.2579 47.5552H39.3711C37.162 47.5552 35.3711 45.7643 35.3711 43.5552V35.0081" stroke="#012534" stroke-width="2"/>
    <circle cx="35.3715" cy="33.4372" r="2.09906" stroke="#012534" stroke-width="2"/>
    <path d="M76.7441 72.0081C76.7441 66.5157 74.5336 61.5534 70.9763 58.0081M38.7441 72.0081C38.7441 66.5157 40.9546 61.5534 44.512 58.0081" stroke="#012534" stroke-width="2"/>
    <path d="M47.7675 68.2156L46.3901 71.3146" stroke="#012534" stroke-width="2" stroke-linecap="round"/>
</svg>
