<svg width="27" height="26" viewBox="0 0 27 26" fill="none" xmlns="http://www.w3.org/2000/svg">
<rect x="9.83887" y="2.36511" width="8.58328" height="4.28856" rx="1" transform="rotate(5.34172 9.83887 2.36511)" fill="#205088"/>
<rect x="8.22363" y="3.75024" width="11.6404" height="4.28856" rx="1" transform="rotate(5.34172 8.22363 3.75024)" fill="#D8E3F4"/>
<ellipse cx="12.9415" cy="14.3991" rx="11.0787" ry="8.52768" transform="rotate(-1.44257 12.9415 14.3991)" fill="#B8CFE9"/>
<ellipse cx="2.40237" cy="12.9662" rx="1.48734" ry="3.25799" transform="rotate(16.8867 2.40237 12.9662)" fill="#102840"/>
<ellipse cx="12.506" cy="14.8977" rx="8.34055" ry="5.63326" transform="rotate(1.83687 12.506 14.8977)" fill="white"/>
<path d="M22.9343 13.5955C22.908 14.8718 22.2203 17.8676 19.6794 19.6399" stroke="#40404B" stroke-width="0.7"/>
<ellipse cx="7.5906" cy="14.0533" rx="1.36032" ry="1.91817" transform="rotate(1.04183 7.5906 14.0533)" fill="#102840"/>
<ellipse cx="16.6956" cy="14.6386" rx="1.36032" ry="1.91817" transform="rotate(1.04183 16.6956 14.6386)" fill="#102840"/>
<path d="M11.7096 13.4517L11.2928 15.4312C11.194 15.68 11.2616 16.3021 12.3217 16.8005" stroke="#12364E" stroke-width="0.7"/>
<path d="M11.3943 18.3542C12.1178 18.6834 14.018 18.9821 15.8315 17.5433" stroke="#12364E" stroke-width="0.6"/>
<ellipse cx="23.4956" cy="13.2593" rx="1.60821" ry="3.52274" transform="rotate(-10.3575 23.4956 13.2593)" fill="#102840"/>
<ellipse cx="19.6393" cy="19.5561" rx="0.53607" ry="0.918976" transform="rotate(54.5439 19.6393 19.5561)" fill="#40404B"/>
</svg>
