<?xml version="1.0" encoding="UTF-8"?>
<svg id="Layer_1" data-name="Layer 1" xmlns="http://www.w3.org/2000/svg" viewBox="0 0 908.16 200.15">
  <g>
    <path d="M106.41,137.21c-.1,0-.21,0-.31,0-2.24-.13-4.15-1.68-4.74-3.85l-16.95-62.14-8.68,28.98c-.66,2.22-2.7,3.73-5.02,3.73h-32.5c-2.89,0-5.24-2.34-5.24-5.24s2.34-5.24,5.24-5.24h28.6l12.81-42.79c.67-2.22,2.7-3.73,5.02-3.73.02,0,.04,0,.07,0,2.34.03,4.37,1.6,4.99,3.86l17.68,64.84,7.66-18.91c.8-1.98,2.72-3.27,4.85-3.27h26.04c2.89,0,5.24,2.34,5.24,5.24s-2.34,5.24-5.24,5.24h-22.51l-12.16,30.01c-.81,1.98-2.73,3.27-4.85,3.27Z"/>
    <path d="M92.07,184.15C41.3,184.15,0,142.84,0,92.07S41.3,0,92.07,0s92.08,41.3,92.08,92.07-41.31,92.07-92.08,92.07ZM92.07,10.47C47.08,10.47,10.47,47.08,10.47,92.07s36.6,81.6,81.6,81.6,81.6-36.6,81.6-81.6S137.07,10.47,92.07,10.47Z"/>
  </g>
  <g>
    <path d="M235.26,74.89l21.85-63.96h17.17l22.41,63.96h-14.55l-10.26-30.86c-1.23-3.98-2.48-8.33-3.76-13.07-1.27-4.74-2.61-9.91-4.01-15.52h2.88c-1.37,5.64-2.65,10.84-3.84,15.6s-2.37,9.09-3.54,12.99l-9.87,30.86h-14.47ZM248.91,60.04v-10.26h34.13v10.26h-34.13Z"/>
    <path d="M304.59,74.89V10.93h24.94c4.86,0,9,.92,12.4,2.77s6,4.39,7.79,7.64c1.79,3.25,2.68,6.98,2.68,11.18s-.91,7.96-2.73,11.18c-1.82,3.22-4.45,5.74-7.9,7.55-3.45,1.82-7.63,2.73-12.56,2.73h-16.05v-10.56h13.95c2.69,0,4.9-.46,6.63-1.39,1.73-.93,3.02-2.21,3.86-3.84.84-1.63,1.27-3.52,1.27-5.67s-.42-4.03-1.27-5.64-2.14-2.88-3.88-3.78c-1.75-.9-3.96-1.35-6.65-1.35h-9.4v53.14h-13.09Z"/>
    <path d="M374.64,10.93v63.96h-13.09V10.93h13.09Z"/>
    <path d="M408.34,74.89V10.93h14.42l13.95,36.7c.4,1.09.85,2.46,1.35,4.12.5,1.66,1.02,3.46,1.57,5.41s1.06,3.86,1.55,5.75c.49,1.89.91,3.59,1.29,5.11h-2.06c.37-1.43.8-3.08,1.29-4.96.49-1.87,1-3.78,1.55-5.73.54-1.95,1.07-3.78,1.59-5.49.51-1.72.97-3.12,1.37-4.21l13.74-36.7h14.51v63.96h-9.74v-34.43c0-1.32.01-2.89.04-4.72.03-1.83.06-3.77.11-5.82.04-2.05.09-4.11.13-6.2s.08-4.09.11-6.01h.73c-.57,2.09-1.2,4.24-1.87,6.46-.67,2.22-1.33,4.36-1.97,6.42-.64,2.06-1.26,3.94-1.85,5.64-.59,1.7-1.08,3.11-1.48,4.23l-13.09,34.43h-8.37l-13.26-34.43c-.43-1.09-.92-2.47-1.48-4.14-.56-1.67-1.17-3.53-1.82-5.58-.66-2.04-1.33-4.18-2.02-6.4-.69-2.22-1.37-4.43-2.06-6.63h.86c.06,1.75.11,3.64.15,5.69.04,2.05.09,4.11.13,6.2s.09,4.07.13,5.94c.04,1.87.06,3.51.06,4.92v34.43h-9.53Z"/>
    <path d="M501.27,75.97c-3.03,0-5.78-.57-8.24-1.7s-4.41-2.78-5.84-4.96c-1.43-2.17-2.15-4.84-2.15-7.98,0-2.72.52-4.95,1.57-6.7,1.04-1.75,2.46-3.13,4.25-4.16,1.79-1.03,3.78-1.8,5.97-2.32,2.19-.51,4.41-.9,6.68-1.16,2.83-.34,5.14-.62,6.91-.84,1.77-.21,3.08-.57,3.93-1.07.84-.5,1.27-1.31,1.27-2.43v-.26c0-1.8-.34-3.32-1.03-4.55-.69-1.23-1.71-2.18-3.07-2.85-1.36-.67-3.06-1.01-5.09-1.01s-3.88.32-5.39.97-2.72,1.47-3.65,2.47c-.93,1-1.62,2.05-2.08,3.13l-8.89-2.32c1.09-2.86,2.65-5.17,4.68-6.91,2.03-1.74,4.36-3.02,7-3.82,2.63-.8,5.35-1.2,8.16-1.2,1.95,0,4.01.23,6.18.69,2.17.46,4.22,1.29,6.14,2.49,1.92,1.2,3.48,2.89,4.68,5.07,1.2,2.18,1.8,5.01,1.8,8.5v31.85h-9.14v-6.57h-.47c-.63,1.23-1.56,2.43-2.79,3.61-1.23,1.17-2.78,2.14-4.66,2.9-1.87.76-4.11,1.14-6.72,1.14ZM503.38,68.37c2.58,0,4.78-.5,6.61-1.5,1.83-1,3.23-2.33,4.21-3.99.97-1.66,1.46-3.42,1.46-5.28v-6.14c-.34.34-.99.65-1.95.92-.96.27-2.05.52-3.28.73-1.23.22-2.42.39-3.56.54-1.14.14-2.09.26-2.83.34-1.77.23-3.4.62-4.87,1.16-1.47.54-2.65,1.32-3.52,2.32-.87,1-1.31,2.33-1.31,3.99,0,1.52.39,2.79,1.18,3.82.79,1.03,1.85,1.8,3.2,2.32,1.35.52,2.9.77,4.68.77Z"/>
    <path d="M547.2,46.48v28.42h-9.44V26.9h9.01l.09,11.76h-.99c1.4-4.29,3.43-7.43,6.1-9.4s5.88-2.96,9.66-2.96c3.26,0,6.11.69,8.54,2.06,2.43,1.37,4.34,3.4,5.71,6.07,1.37,2.68,2.06,6,2.06,9.98v30.48h-9.44v-29.32c0-3.46-.9-6.17-2.7-8.11-1.8-1.95-4.28-2.92-7.43-2.92-2.12,0-4.02.47-5.71,1.4-1.69.93-3.02,2.28-3.99,4.06-.97,1.78-1.46,3.94-1.46,6.48Z"/>
    <path d="M604.08,75.97c-3.03,0-5.78-.57-8.24-1.7s-4.41-2.78-5.84-4.96c-1.43-2.17-2.15-4.84-2.15-7.98,0-2.72.52-4.95,1.57-6.7,1.04-1.75,2.46-3.13,4.25-4.16,1.79-1.03,3.78-1.8,5.97-2.32,2.19-.51,4.41-.9,6.68-1.16,2.83-.34,5.14-.62,6.91-.84,1.77-.21,3.08-.57,3.93-1.07.84-.5,1.27-1.31,1.27-2.43v-.26c0-1.8-.34-3.32-1.03-4.55-.69-1.23-1.71-2.18-3.07-2.85-1.36-.67-3.06-1.01-5.09-1.01s-3.88.32-5.39.97-2.72,1.47-3.65,2.47c-.93,1-1.62,2.05-2.08,3.13l-8.89-2.32c1.09-2.86,2.65-5.17,4.68-6.91,2.03-1.74,4.36-3.02,7-3.82,2.63-.8,5.35-1.2,8.16-1.2,1.95,0,4.01.23,6.18.69,2.17.46,4.22,1.29,6.14,2.49,1.92,1.2,3.48,2.89,4.68,5.07,1.2,2.18,1.8,5.01,1.8,8.5v31.85h-9.14v-6.57h-.47c-.63,1.23-1.56,2.43-2.79,3.61-1.23,1.17-2.78,2.14-4.66,2.9-1.87.76-4.11,1.14-6.72,1.14ZM606.19,68.37c2.58,0,4.78-.5,6.61-1.5,1.83-1,3.23-2.33,4.21-3.99.97-1.66,1.46-3.42,1.46-5.28v-6.14c-.34.34-.99.65-1.95.92-.96.27-2.05.52-3.28.73-1.23.22-2.42.39-3.56.54-1.14.14-2.09.26-2.83.34-1.77.23-3.4.62-4.87,1.16-1.47.54-2.65,1.32-3.52,2.32-.87,1-1.31,2.33-1.31,3.99,0,1.52.39,2.79,1.18,3.82.79,1.03,1.85,1.8,3.2,2.32,1.35.52,2.9.77,4.68.77Z"/>
    <path d="M660.62,93.87c-3.69,0-6.9-.47-9.62-1.42-2.72-.94-4.96-2.2-6.72-3.78s-3.1-3.32-4.01-5.24l7.9-3.73c.57.92,1.34,1.88,2.3,2.9.96,1.02,2.25,1.88,3.88,2.6,1.63.71,3.72,1.07,6.27,1.07,3.66,0,6.63-.87,8.91-2.6,2.27-1.73,3.41-4.44,3.41-8.13v-9.36h-.82c-.57,1.06-1.37,2.2-2.38,3.43-1.02,1.23-2.43,2.3-4.25,3.2-1.82.9-4.19,1.35-7.1,1.35-3.78,0-7.18-.89-10.19-2.66-3.02-1.77-5.42-4.41-7.19-7.9-1.77-3.49-2.66-7.78-2.66-12.88s.88-9.46,2.64-13.11,4.16-6.45,7.21-8.39c3.05-1.95,6.49-2.92,10.32-2.92,2.95,0,5.34.49,7.19,1.46s3.29,2.12,4.34,3.46c1.04,1.33,1.84,2.5,2.38,3.5h.69v-7.81h9.23v48.68c0,4.21-.95,7.66-2.85,10.37-1.9,2.7-4.49,4.7-7.77,5.99-3.28,1.29-6.98,1.93-11.1,1.93ZM660.57,66.31c2.69,0,4.96-.62,6.8-1.87s3.24-3.05,4.19-5.41c.94-2.36,1.42-5.17,1.42-8.43s-.47-6.07-1.42-8.5c-.94-2.43-2.34-4.34-4.19-5.71-1.85-1.37-4.11-2.06-6.8-2.06s-5.09.72-6.95,2.17c-1.86,1.45-3.26,3.39-4.21,5.84-.94,2.45-1.42,5.2-1.42,8.26s.47,5.86,1.42,8.22c.94,2.36,2.35,4.2,4.23,5.52,1.87,1.32,4.19,1.98,6.93,1.98Z"/>
    <path d="M715.73,75.88c-4.72,0-8.8-1.02-12.23-3.05-3.43-2.03-6.07-4.89-7.92-8.58s-2.77-8.03-2.77-13.01.91-9.26,2.73-13.01c1.82-3.75,4.39-6.67,7.71-8.78,3.32-2.1,7.21-3.15,11.68-3.15,2.75,0,5.39.45,7.94,1.35,2.55.9,4.84,2.31,6.87,4.23,2.03,1.92,3.64,4.4,4.83,7.45,1.19,3.05,1.78,6.75,1.78,11.1v3.35h-38.25v-7.04h33.4l-4.42,2.32c0-2.95-.46-5.54-1.37-7.79-.92-2.25-2.27-4-4.06-5.26-1.79-1.26-4.03-1.89-6.72-1.89s-4.94.64-6.82,1.93c-1.89,1.29-3.33,2.98-4.31,5.09-.99,2.1-1.48,4.4-1.48,6.89v4.81c0,3.29.56,6.07,1.7,8.35,1.13,2.27,2.71,3.99,4.74,5.15,2.03,1.16,4.39,1.74,7.08,1.74,1.77,0,3.38-.25,4.81-.75,1.43-.5,2.67-1.26,3.71-2.27s1.84-2.27,2.38-3.76l8.89,2.1c-.77,2.46-2.07,4.64-3.88,6.52-1.82,1.89-4.08,3.36-6.78,4.4s-5.77,1.57-9.21,1.57Z"/>
    <path d="M746.68,74.89V26.9h9.14v7.73h.52c.89-2.63,2.43-4.69,4.64-6.18,2.2-1.49,4.71-2.23,7.51-2.23.6,0,1.29.02,2.06.06s1.42.11,1.93.19v9.01c-.34-.11-1-.23-1.97-.34s-1.96-.17-2.96-.17c-2.18,0-4.14.46-5.88,1.37-1.75.92-3.11,2.18-4.08,3.8-.97,1.62-1.46,3.48-1.46,5.6v29.15h-9.44Z"/>
  </g>
  <g>
    <path d="M244.86,119.81v62.74h-9.6v-62.74h9.6ZM255.64,182.55h-15.5v-8.42h14.99c4.74,0,8.69-.88,11.83-2.65s5.5-4.37,7.07-7.81c1.57-3.44,2.36-7.63,2.36-12.57s-.78-9.07-2.34-12.46c-1.56-3.4-3.87-5.98-6.95-7.75-3.07-1.77-6.9-2.65-11.47-2.65h-15.83v-8.42h16.46c6.17,0,11.47,1.25,15.87,3.75,4.41,2.5,7.79,6.08,10.15,10.76,2.36,4.67,3.54,10.27,3.54,16.78s-1.19,12.15-3.56,16.84c-2.37,4.69-5.81,8.29-10.32,10.82-4.51,2.53-9.94,3.79-16.32,3.79Z"/>
    <path d="M317.07,183.52c-4.63,0-8.63-1-12-2.99-3.37-1.99-5.96-4.8-7.77-8.42s-2.72-7.87-2.72-12.76.89-9.08,2.67-12.76c1.78-3.68,4.3-6.55,7.56-8.61,3.26-2.06,7.07-3.09,11.45-3.09,2.7,0,5.29.44,7.79,1.33,2.5.88,4.74,2.27,6.74,4.15,1.99,1.88,3.57,4.32,4.74,7.31,1.17,2.99,1.75,6.62,1.75,10.88v3.29h-37.52v-6.91h32.76l-4.34,2.27c0-2.89-.45-5.44-1.35-7.64-.9-2.2-2.23-3.92-3.98-5.16-1.75-1.23-3.95-1.85-6.59-1.85s-4.84.63-6.69,1.89c-1.85,1.26-3.26,2.93-4.23,4.99-.97,2.06-1.45,4.32-1.45,6.76v4.72c0,3.23.55,5.96,1.66,8.19,1.11,2.23,2.66,3.92,4.65,5.05,1.99,1.14,4.31,1.71,6.95,1.71,1.74,0,3.31-.25,4.72-.74,1.4-.49,2.62-1.24,3.64-2.23s1.8-2.22,2.34-3.68l8.72,2.06c-.76,2.41-2.03,4.55-3.81,6.4-1.78,1.85-4,3.29-6.65,4.32s-5.66,1.54-9.03,1.54Z"/>
    <path d="M359.26,182.55l-17.77-47.08h10.02l9.31,26.74c1.04,2.95,1.92,5.9,2.65,8.86s1.5,5.9,2.32,8.82h-2.78c.79-2.92,1.54-5.86,2.27-8.82s1.6-5.92,2.61-8.86l9.3-26.74h9.94l-17.77,47.08h-10.11Z"/>
    <path d="M414,183.52c-4.63,0-8.63-1-12-2.99-3.37-1.99-5.96-4.8-7.77-8.42s-2.72-7.87-2.72-12.76.89-9.08,2.67-12.76c1.78-3.68,4.3-6.55,7.56-8.61,3.26-2.06,7.07-3.09,11.45-3.09,2.7,0,5.29.44,7.79,1.33,2.5.88,4.74,2.27,6.74,4.15,1.99,1.88,3.57,4.32,4.74,7.31,1.17,2.99,1.75,6.62,1.75,10.88v3.29h-37.52v-6.91h32.76l-4.34,2.27c0-2.89-.45-5.44-1.35-7.64-.9-2.2-2.23-3.92-3.98-5.16-1.75-1.23-3.95-1.85-6.59-1.85s-4.84.63-6.69,1.89c-1.85,1.26-3.26,2.93-4.23,4.99-.97,2.06-1.45,4.32-1.45,6.76v4.72c0,3.23.55,5.96,1.66,8.19,1.11,2.23,2.66,3.92,4.65,5.05,1.99,1.14,4.31,1.71,6.95,1.71,1.74,0,3.31-.25,4.72-.74,1.4-.49,2.62-1.24,3.64-2.23s1.8-2.22,2.34-3.68l8.72,2.06c-.76,2.41-2.03,4.55-3.81,6.4-1.78,1.85-4,3.29-6.65,4.32s-5.66,1.54-9.03,1.54Z"/>
    <path d="M453.62,119.81v62.74h-9.26v-62.74h9.26Z"/>
    <path d="M485.88,183.52c-4.41,0-8.26-1.01-11.56-3.03-3.3-2.02-5.86-4.86-7.68-8.5-1.83-3.65-2.74-7.89-2.74-12.72s.91-9.16,2.74-12.82c1.82-3.66,4.39-6.5,7.68-8.53,3.3-2.02,7.15-3.03,11.56-3.03s8.3,1.01,11.6,3.03c3.3,2.02,5.86,4.86,7.68,8.53,1.82,3.66,2.74,7.94,2.74,12.82s-.91,9.07-2.74,12.72c-1.83,3.65-4.39,6.48-7.68,8.5-3.3,2.02-7.17,3.03-11.6,3.03ZM485.88,175.69c2.86,0,5.23-.75,7.09-2.25,1.87-1.5,3.26-3.49,4.17-5.98.91-2.48,1.37-5.21,1.37-8.19s-.46-5.76-1.37-8.27c-.91-2.51-2.3-4.52-4.17-6.02-1.87-1.5-4.23-2.25-7.09-2.25s-5.18.75-7.03,2.25c-1.85,1.5-3.24,3.5-4.15,6-.91,2.5-1.37,5.26-1.37,8.29s.46,5.71,1.37,8.19c.91,2.48,2.29,4.48,4.15,5.98,1.85,1.5,4.2,2.25,7.03,2.25Z"/>
    <path d="M518.17,200.15v-64.68h9.01v7.66h.76c.56-.98,1.34-2.12,2.34-3.41,1-1.29,2.39-2.42,4.17-3.39,1.78-.97,4.15-1.45,7.09-1.45,3.76,0,7.12.95,10.08,2.86,2.96,1.91,5.3,4.67,7.01,8.29s2.57,7.99,2.57,13.09-.84,9.4-2.53,13.03c-1.68,3.64-4.01,6.43-6.97,8.38-2.96,1.95-6.35,2.93-10.17,2.93-2.84,0-5.16-.48-6.97-1.45s-3.23-2.1-4.25-3.39c-1.02-1.29-1.82-2.44-2.38-3.45h-.5v24.97h-9.26ZM539.48,175.6c2.7,0,4.95-.73,6.78-2.19,1.82-1.46,3.19-3.44,4.11-5.94.91-2.5,1.37-5.31,1.37-8.42s-.46-5.86-1.37-8.32c-.91-2.46-2.27-4.4-4.08-5.83s-4.08-2.15-6.8-2.15-4.87.68-6.69,2.04c-1.83,1.36-3.2,3.26-4.13,5.68-.93,2.43-1.39,5.28-1.39,8.57s.47,6.13,1.41,8.61,2.32,4.43,4.15,5.83c1.82,1.4,4.04,2.11,6.65,2.11Z"/>
    <path d="M591.77,183.52c-4.63,0-8.63-1-12-2.99-3.37-1.99-5.96-4.8-7.77-8.42s-2.72-7.87-2.72-12.76.89-9.08,2.67-12.76c1.78-3.68,4.3-6.55,7.56-8.61,3.26-2.06,7.07-3.09,11.45-3.09,2.7,0,5.29.44,7.79,1.33,2.5.88,4.74,2.27,6.74,4.15,1.99,1.88,3.57,4.32,4.74,7.31,1.17,2.99,1.75,6.62,1.75,10.88v3.29h-37.52v-6.91h32.76l-4.34,2.27c0-2.89-.45-5.44-1.35-7.64-.9-2.2-2.23-3.92-3.98-5.16-1.75-1.23-3.95-1.85-6.59-1.85s-4.84.63-6.69,1.89c-1.85,1.26-3.26,2.93-4.23,4.99-.97,2.06-1.45,4.32-1.45,6.76v4.72c0,3.23.55,5.96,1.66,8.19,1.11,2.23,2.66,3.92,4.65,5.05,1.99,1.14,4.31,1.71,6.95,1.71,1.74,0,3.31-.25,4.72-.74,1.4-.49,2.62-1.24,3.64-2.23s1.8-2.22,2.34-3.68l8.72,2.06c-.76,2.41-2.03,4.55-3.81,6.4-1.78,1.85-4,3.29-6.65,4.32s-5.66,1.54-9.03,1.54Z"/>
    <path d="M622.13,182.55v-47.08h8.97v7.58h.51c.87-2.58,2.38-4.6,4.55-6.06,2.16-1.46,4.62-2.19,7.37-2.19.59,0,1.26.02,2.02.06s1.39.11,1.89.19v8.84c-.34-.11-.98-.22-1.94-.34s-1.92-.17-2.91-.17c-2.13,0-4.06.45-5.77,1.35-1.71.9-3.05,2.14-4,3.73-.96,1.59-1.43,3.42-1.43,5.5v28.59h-9.26Z"/>
    <path d="M679.19,182.55v-62.74h22.49c4.83,0,8.86.9,12.08,2.7,3.23,1.8,5.64,4.22,7.24,7.28,1.6,3.06,2.4,6.53,2.4,10.4s-.81,7.35-2.42,10.42c-1.62,3.07-4.04,5.5-7.26,7.28-3.23,1.78-7.27,2.67-12.13,2.67h-15.37v-8.13h14.44c3.09,0,5.59-.53,7.5-1.6,1.91-1.07,3.3-2.53,4.19-4.38.88-1.85,1.33-3.94,1.33-6.27s-.44-4.46-1.33-6.29c-.88-1.84-2.29-3.28-4.21-4.32-1.92-1.04-4.44-1.56-7.56-1.56h-11.79v54.53h-9.6Z"/>
    <path d="M753.04,183.52c-4.41,0-8.26-1.01-11.56-3.03-3.3-2.02-5.86-4.86-7.68-8.5-1.83-3.65-2.74-7.89-2.74-12.72s.91-9.16,2.74-12.82c1.82-3.66,4.39-6.5,7.68-8.53,3.3-2.02,7.15-3.03,11.56-3.03s8.3,1.01,11.6,3.03c3.3,2.02,5.86,4.86,7.68,8.53,1.82,3.66,2.74,7.94,2.74,12.82s-.91,9.07-2.74,12.72c-1.83,3.65-4.39,6.48-7.68,8.5-3.3,2.02-7.17,3.03-11.6,3.03ZM753.04,175.69c2.86,0,5.23-.75,7.09-2.25,1.87-1.5,3.26-3.49,4.17-5.98.91-2.48,1.37-5.21,1.37-8.19s-.46-5.76-1.37-8.27c-.91-2.51-2.3-4.52-4.17-6.02-1.87-1.5-4.23-2.25-7.09-2.25s-5.18.75-7.03,2.25c-1.85,1.5-3.24,3.5-4.15,6-.91,2.5-1.37,5.26-1.37,8.29s.46,5.71,1.37,8.19c.91,2.48,2.29,4.48,4.15,5.98,1.85,1.5,4.2,2.25,7.03,2.25Z"/>
    <path d="M785.34,182.55v-47.08h8.97v7.58h.51c.87-2.58,2.38-4.6,4.55-6.06,2.16-1.46,4.62-2.19,7.37-2.19.59,0,1.26.02,2.02.06s1.39.11,1.89.19v8.84c-.34-.11-.98-.22-1.94-.34s-1.92-.17-2.91-.17c-2.13,0-4.06.45-5.77,1.35-1.71.9-3.05,2.14-4,3.73-.96,1.59-1.43,3.42-1.43,5.5v28.59h-9.26Z"/>
    <path d="M840.29,135.48v7.54h-25.52v-7.54h25.52ZM821.63,124.27h9.26v45.56c0,1.88.4,3.26,1.2,4.15.8.88,2.11,1.33,3.94,1.33.48,0,1.11-.06,1.9-.17.79-.11,1.46-.22,2.02-.34l1.64,7.41c-.98.34-2.04.58-3.16.74-1.12.15-2.23.23-3.33.23-4.27,0-7.58-1.1-9.94-3.31-2.36-2.2-3.54-5.3-3.54-9.28v-46.32Z"/>
    <path d="M863.11,183.6c-2.98,0-5.67-.55-8.08-1.66s-4.32-2.73-5.73-4.86c-1.4-2.13-2.11-4.74-2.11-7.83,0-2.67.51-4.86,1.54-6.57,1.02-1.71,2.41-3.07,4.17-4.08,1.75-1.01,3.71-1.77,5.85-2.27,2.15-.5,4.33-.88,6.55-1.14,2.78-.34,5.04-.61,6.78-.82,1.74-.21,3.02-.56,3.85-1.05.83-.49,1.24-1.28,1.24-2.38v-.25c0-1.77-.34-3.26-1.01-4.46-.67-1.21-1.68-2.14-3.01-2.8-1.33-.66-3-.99-4.99-.99s-3.81.32-5.28.95-2.67,1.44-3.58,2.42c-.91.98-1.59,2.01-2.04,3.07l-8.72-2.27c1.07-2.81,2.6-5.07,4.59-6.78,1.99-1.71,4.28-2.96,6.86-3.75,2.58-.79,5.25-1.18,8-1.18,1.91,0,3.93.22,6.06.67,2.13.45,4.14,1.26,6.02,2.44,1.88,1.18,3.41,2.84,4.59,4.97,1.18,2.13,1.77,4.91,1.77,8.34v31.24h-8.97v-6.44h-.46c-.62,1.21-1.53,2.39-2.74,3.54-1.21,1.15-2.73,2.1-4.57,2.84-1.84.74-4.04,1.12-6.59,1.12ZM865.17,176.15c2.53,0,4.69-.49,6.48-1.47,1.8-.98,3.17-2.29,4.13-3.92.95-1.63,1.43-3.35,1.43-5.18v-6.02c-.34.34-.98.64-1.92.91-.94.27-2.01.51-3.22.72-1.21.21-2.37.39-3.5.53-1.12.14-2.05.25-2.78.34-1.74.23-3.33.6-4.78,1.14-1.45.53-2.6,1.29-3.45,2.27-.86.98-1.28,2.29-1.28,3.92,0,1.49.39,2.74,1.16,3.75.77,1.01,1.82,1.77,3.14,2.27,1.32.51,2.85.76,4.59.76Z"/>
    <path d="M908.16,119.81v62.74h-9.26v-62.74h9.26Z"/>
  </g>
</svg>