<svg width="94" height="54" viewBox="0 0 94 54" fill="none" xmlns="http://www.w3.org/2000/svg">
<path fill-rule="evenodd" clip-rule="evenodd" d="M14.2426 4.875C13.6904 4.875 13.2426 5.23877 13.2426 5.6875V21.2644C13.2426 22.3418 12.7159 23.3752 11.7782 24.137L8.48528 26.8125L11.7782 29.488C12.7159 30.2498 13.2426 31.2831 13.2426 32.3606V47.9375C13.2426 48.3862 13.6904 48.75 14.2426 48.75H19.2426C20.8995 48.75 22.2426 49.8413 22.2426 51.1875C22.2426 52.5337 20.8995 53.625 19.2426 53.625H14.2426C10.3766 53.625 7.24264 51.0786 7.24264 47.9375V32.6971L0 26.8125L7.24264 20.9279V5.6875C7.24264 2.54638 10.3766 0 14.2426 0H19.2426C20.8995 0 22.2426 1.09131 22.2426 2.4375C22.2426 3.78369 20.8995 4.875 19.2426 4.875H14.2426ZM7.53553 32.9351C7.53594 32.9355 7.53512 32.9348 7.53553 32.9351Z" fill="#205088"/>
<path fill-rule="evenodd" clip-rule="evenodd" d="M79.2427 4.875C79.795 4.875 80.2427 5.23877 80.2427 5.6875V21.2644C80.2427 22.3418 80.7695 23.3752 81.7072 24.137L85.0001 26.8125L81.7072 29.488C80.7695 30.2498 80.2427 31.2831 80.2427 32.3606V47.9375C80.2427 48.3862 79.795 48.75 79.2427 48.75H74.2427C72.5859 48.75 71.2427 49.8413 71.2427 51.1875C71.2427 52.5337 72.5859 53.625 74.2427 53.625H79.2427C83.1087 53.625 86.2427 51.0786 86.2427 47.9375V32.6971L93.4854 26.8125L86.2427 20.9279V5.6875C86.2427 2.54638 83.1087 0 79.2427 0H74.2427C72.5859 0 71.2427 1.09131 71.2427 2.4375C71.2427 3.78369 72.5859 4.875 74.2427 4.875H79.2427ZM85.9498 32.9351C85.9494 32.9355 85.9502 32.9348 85.9498 32.9351Z" fill="#205088"/>
<path d="M26.25 35.2832L26.2598 35.3418C24.6094 35.3418 23.2129 34.9316 22.0703 34.1113C20.9277 33.291 20.1367 32.2852 19.6973 31.0938L22.8613 30.1172C23.1445 30.8105 23.5938 31.3672 24.2188 31.7969C24.8438 32.2266 25.5957 32.4414 26.4746 32.4414C27.1289 32.4414 27.6562 32.3145 28.0566 32.0508C28.457 31.7871 28.6621 31.4746 28.6621 31.1133C28.6621 30.5371 28.1641 30.0879 27.1582 29.7656L23.5547 28.6523C22.5781 28.3496 21.7969 27.8711 21.2109 27.2266C20.625 26.582 20.3418 25.8203 20.3516 24.9414C20.3418 23.7793 20.8301 22.793 21.8164 21.9824C22.8027 21.1719 24.043 20.7617 25.5371 20.7617C27.0117 20.7617 28.3203 21.1133 29.4531 21.8262C30.5859 22.5391 31.3477 23.4082 31.7285 24.4336L28.6719 25.332C28.3887 24.834 27.9688 24.4336 27.4121 24.1211C26.8555 23.8086 26.2402 23.6523 25.5664 23.6523C25.0098 23.6523 24.5605 23.7598 24.2188 23.9746C23.877 24.1895 23.7109 24.4629 23.7109 24.7949C23.7109 25.2734 24.0234 25.6055 24.6484 25.791L28.1738 26.9141C29.3945 27.2949 30.3418 27.7734 31.0059 28.3496C31.6699 28.9258 32.002 29.7559 32.002 30.8398C32.002 32.1094 31.4746 33.1641 30.4102 34.0137C29.3457 34.8633 27.959 35.2832 26.25 35.2832ZM40.4688 35.2832V35.3027C38.3398 35.3027 36.5723 34.6094 35.166 33.2227C33.7598 31.8359 33.0566 30.0977 33.0566 28.0176C33.0566 25.9375 33.7598 24.1992 35.166 22.8125C36.5723 21.4258 38.3398 20.7324 40.4688 20.7324C42.5977 20.7324 44.3652 21.4258 45.7715 22.8125C47.1777 24.1992 47.8809 25.9277 47.8809 28.0078C47.8809 30.0879 47.1777 31.8164 45.7715 33.2031C44.3652 34.5898 42.5977 35.2832 40.4688 35.2832ZM40.4688 32.2363C41.6797 32.2363 42.6562 31.8359 43.3984 31.0352C44.1406 30.2344 44.5117 29.2285 44.5117 28.0176C44.5117 26.8066 44.1406 25.8008 43.3984 25C42.6562 24.1992 41.6797 23.7988 40.4688 23.7988C39.2578 23.7988 38.2812 24.1992 37.5391 25C36.7969 25.8008 36.4258 26.8066 36.4258 28.0176C36.4258 29.2285 36.7969 30.2344 37.5391 31.0352C38.2812 31.8359 39.2578 32.2363 40.4688 32.2363ZM59.1406 35L58.1641 32.3242H52.2461L51.2598 35H47.8418L53.0176 20.9961H57.3828L62.5586 35H59.1406ZM53.3008 29.4238H57.0996L55.2051 24.1797L53.3008 29.4238ZM70.5078 20.9961L70.4883 21.0059C71.9824 21.0059 73.1934 21.5234 74.1211 22.5488C75.0488 23.5742 75.5176 24.7363 75.5176 26.0352C75.5176 27.3535 75.0488 28.5254 74.1113 29.5508C73.1738 30.5762 71.9238 31.084 70.3711 31.084H67.0508V35H63.7695V20.9961H70.5078ZM70.2734 28.125L70.2832 28.1152C70.8691 28.1152 71.3477 27.9102 71.7285 27.5C72.1094 27.0898 72.2949 26.6113 72.2949 26.0645C72.2949 25.5176 72.1191 25.0391 71.7578 24.6289C71.3965 24.2188 70.9473 24.0137 70.4102 24.0137H67.0312V28.125H70.2734Z" fill="black"/>
</svg>
