<svg width="54" height="54" viewBox="0 0 54 54" fill="none" xmlns="http://www.w3.org/2000/svg">
<rect x="10.125" y="1.125" width="33.75" height="15.75" rx="2" fill="#205088"/>
<rect x="10.125" y="20.25" width="33.75" height="13.5" rx="2" fill="#DBE8F8"/>
<rect x="10.125" y="38.25" width="33.75" height="13.5" rx="2" fill="#DBE8F8"/>
<path d="M47.875 26.25C51.0506 26.25 53.625 28.8244 53.625 32V40C53.625 43.1756 51.0506 45.75 47.875 45.75H46.248L48.9053 48.4072C49.1982 48.7001 49.1982 49.1749 48.9053 49.4678C48.6124 49.7607 48.1376 49.7607 47.8447 49.4678L43.377 45L47.8447 40.5322C48.1376 40.2393 48.6124 40.2393 48.9053 40.5322C49.1982 40.8251 49.1982 41.2999 48.9053 41.5928L46.248 44.25H47.875C50.2222 44.25 52.125 42.3472 52.125 40V32C52.125 29.6528 50.2222 27.75 47.875 27.75H43.875V26.25H47.875ZM26.4375 8.25C26.8517 8.25 27.1875 8.58579 27.1875 9C27.1875 9.41421 26.8517 9.75 26.4375 9.75H6.125C3.77779 9.75 1.875 11.6528 1.875 14V22C1.875 24.3472 3.77779 26.25 6.125 26.25H7.75195L5.09473 23.5928C4.80183 23.2999 4.80183 22.8251 5.09473 22.5322C5.38762 22.2393 5.86238 22.2393 6.15527 22.5322L10.623 27L6.15527 31.4678C5.86238 31.7607 5.38762 31.7607 5.09473 31.4678C4.80183 31.1749 4.80183 30.7001 5.09473 30.4072L7.75195 27.75H6.125C2.94936 27.75 0.375 25.1756 0.375 22V14C0.375 10.8244 2.94936 8.25 6.125 8.25H26.4375Z" fill="#40404B"/>
</svg>
