<svg width="60" height="54" viewBox="0 0 60 54" fill="none" xmlns="http://www.w3.org/2000/svg">
<path d="M28.8215 0H28.7543L28.0825 0.135C26.6045 0.315 25.16 0.73125 23.7492 1.38375C22.3383 2.03625 21.0955 2.9025 20.0205 3.9825C18.1842 5.6475 16.9077 7.695 16.1911 10.125C15.788 11.475 15.6088 12.8925 15.6536 14.3775C15.6984 15.8625 15.9672 17.28 16.4598 18.63C17.2212 20.655 18.3857 22.41 19.9533 23.895L20.8267 24.705L15.2505 33.8175C14.086 33.7725 13.0783 33.93 12.2273 34.29C10.8836 34.875 9.8759 35.775 9.20407 36.99C8.89055 37.665 8.689 38.3625 8.59942 39.0825C8.50984 39.8025 8.55463 40.5225 8.73379 41.2425C9.0921 42.5925 9.83111 43.6725 10.9508 44.4825C11.6227 44.9325 12.3617 45.2588 13.1679 45.4613C13.9741 45.6638 14.7803 45.7088 15.5865 45.5963C16.3926 45.4838 17.1653 45.2025 17.9043 44.7525C18.6433 44.3025 19.2591 43.74 19.7518 43.065C20.2893 42.3 20.614 41.4225 20.7259 40.4325C20.8379 39.4425 20.7148 38.52 20.3564 37.665C20.3117 37.44 20.1549 37.125 19.8862 36.72L19.6846 36.315L27.6122 23.355C27.8809 22.95 28.0601 22.635 28.1497 22.41L27.4778 22.2075C27.0747 22.1175 26.7836 22.0275 26.6045 21.9375C25.5743 21.4875 24.645 20.8688 23.8164 20.0813C22.9878 19.2938 22.3495 18.405 21.9017 17.415C21.1402 15.795 20.9387 14.1075 21.297 12.3525C21.4762 11.3175 21.8569 10.35 22.4391 9.45C23.0214 8.55 23.7156 7.785 24.5218 7.155C26.179 5.94 28.0153 5.3325 30.0308 5.3325C31.2401 5.2875 32.4158 5.50125 33.5579 5.97375C34.7 6.44625 35.6966 7.1325 36.5475 8.0325C37.3089 8.7525 37.9024 9.61875 38.3279 10.6313C38.7534 11.6438 38.9885 12.6675 39.0333 13.7025C39.0333 14.4675 38.8989 15.4125 38.6302 16.5375L43.333 17.82L43.8705 17.8875C44.4975 15.9525 44.6543 14.0175 44.3408 12.0825C44.1616 10.5975 43.7249 9.16875 43.0307 7.79625C42.3365 6.42375 41.4519 5.22 40.377 4.185C38.4958 2.295 36.1892 1.035 33.4571 0.405C33.1884 0.315 32.7853 0.225 32.2478 0.135L31.3073 0H28.8215ZM30.0308 8.37C29.2694 8.37 28.508 8.5275 27.7466 8.8425C26.9852 9.1575 26.3021 9.61875 25.6975 10.2263C25.0928 10.8338 24.6562 11.5425 24.3874 12.3525C24.0291 13.2525 23.9395 14.2425 24.1187 15.3225C24.2531 16.1325 24.5666 16.8975 25.0593 17.6175C25.5519 18.3375 26.179 18.9 26.9404 19.305C28.0153 19.98 29.2694 20.2725 30.7026 20.1825C30.837 20.3625 30.949 20.5425 31.0385 20.7225L38.563 33.615C38.6974 33.885 38.8318 34.0875 38.9661 34.2225C40.1754 33.0525 41.4855 32.2538 42.8963 31.8263C44.3072 31.3988 45.7628 31.32 47.2632 31.59C48.7636 31.86 50.0737 32.445 51.1934 33.345C52.6267 34.47 53.6008 35.8538 54.1159 37.4963C54.631 39.1388 54.6422 40.7925 54.1495 42.4575C53.7912 43.7175 53.1529 44.8425 52.2348 45.8325C51.3166 46.8225 50.2305 47.565 48.9764 48.06C47.5879 48.645 46.0987 48.8363 44.5087 48.6338C42.9187 48.4313 41.4967 47.88 40.2426 46.98C40.0635 46.845 39.7723 46.62 39.3692 46.305L39.0333 45.9C38.8542 46.035 38.6078 46.26 38.2943 46.575L35.1367 49.68C36.1668 50.715 37.3313 51.5813 38.6302 52.2788C39.9291 52.9763 41.2951 53.46 42.7284 53.73L44.2064 54H46.8265L48.7077 53.6625C51.5741 53.0775 54.0375 51.7275 56.0978 49.6125C57.0831 48.6225 57.9005 47.4863 58.55 46.2038C59.1994 44.9213 59.6361 43.5825 59.86 42.1875C60.084 40.5675 60.0392 38.9588 59.7257 37.3613C59.4121 35.7638 58.8523 34.3125 58.0461 33.0075C57.2399 31.7025 56.2545 30.555 55.09 29.565C53.9255 28.575 52.6491 27.7875 51.2606 27.2025C49.7378 26.5725 48.159 26.2125 46.5242 26.1225C44.8894 26.0325 43.2882 26.19 41.7206 26.595L40.5785 26.9325L35.1367 17.685C35.719 16.83 36.0773 15.9975 36.2116 15.1875C36.4356 13.7475 36.1444 12.3975 35.3382 11.1375C34.6216 10.0125 33.6363 9.225 32.3822 8.775C31.6208 8.505 30.837 8.37 30.0308 8.37ZM11.0852 26.19C8.48745 26.775 6.24802 27.9675 4.36689 29.7675C2.26183 31.7475 0.895773 34.11 0.268732 36.855L0 38.475V40.9725L0.134366 41.715C0.223943 42.3 0.313521 42.75 0.403098 43.065C0.716618 44.46 1.26528 45.7875 2.04908 47.0475C2.83288 48.3075 3.78464 49.41 4.90436 50.355C7.14379 52.2 9.71914 53.3025 12.6304 53.6625C14.3324 53.8425 16.0343 53.7413 17.7363 53.3588C19.4383 52.9763 21.0059 52.335 22.4391 51.435C24.8129 49.905 26.5597 47.8575 27.6794 45.2925C27.9929 44.5275 28.3064 43.515 28.6199 42.255C28.8887 42.21 29.2918 42.21 29.8292 42.255L38.2271 42.39C38.8542 42.39 39.302 42.4125 39.5708 42.4575C40.0635 43.3575 40.6233 44.055 41.2504 44.55C41.8774 45.045 42.5828 45.405 43.3666 45.63C44.1504 45.855 44.9454 45.945 45.7516 45.9C47.0057 45.765 48.1254 45.315 49.1108 44.55C50.3201 43.605 51.0367 42.39 51.2606 40.905C51.3502 40.14 51.3166 39.3975 51.1598 38.6775C51.0031 37.9575 50.7008 37.2825 50.2529 36.6525C49.5363 35.6625 48.6181 34.9425 47.4984 34.4925C46.737 34.1775 45.942 34.0313 45.1134 34.0538C44.2848 34.0763 43.4898 34.245 42.7284 34.56C41.4743 35.1 40.5113 35.9325 39.8395 37.0575L39.638 37.4625C39.0109 37.4625 38.0704 37.44 36.8163 37.395L29.2246 37.3275C28.5528 37.2825 27.5898 37.26 26.3357 37.26L22.9766 37.1925L23.1781 38.34C23.5364 40.275 23.2453 42.0975 22.3047 43.8075C21.6777 45.0225 20.7819 46.035 19.6174 46.845C18.4529 47.655 17.1764 48.15 15.788 48.33C14.2204 48.6 12.6528 48.4313 11.0852 47.8238C9.51759 47.2163 8.24111 46.26 7.25576 44.955C6.00168 43.38 5.39703 41.6025 5.44182 39.6225C5.48661 37.9575 6.00168 36.405 6.98703 34.965C7.56928 34.11 8.2859 33.39 9.13689 32.805C9.98787 32.22 10.906 31.7925 11.8914 31.5225L12.496 31.32L11.0852 26.19Z" fill="black"/>
</svg>
