<svg width="13" height="10" viewBox="0 0 13 10" fill="none" xmlns="http://www.w3.org/2000/svg">
<path d="M9.77236 7.52946H11.3862V3.5574L9.56797 1.69358L8.42679 2.86338L9.77236 4.24269V7.52946ZM11.3904 8.3588H9.03996H5.76122L4.41566 6.97949L4.98624 6.39459L6.09761 7.53383H8.38421L6.13167 5.22043L6.70652 4.63117L8.95906 6.9402V4.59625L7.85195 3.46137L8.41828 2.88084L5.6207 0H2.86145H0L1.60956 1.64993V1.6543H1.61808H4.94792L6.12742 2.86338L4.40288 4.63117L3.22339 3.42209V2.48363H1.60956V4.10738L4.40288 6.97076L3.26597 8.13618L5.08418 10H7.84343H13L11.3904 8.3588Z" fill="#231F20"/>
</svg>
