<svg width="87" height="89" viewBox="0 0 87 89" fill="none" xmlns="http://www.w3.org/2000/svg">
<path d="M54.375 16.3125C54.375 7.30336 61.6784 0 70.6875 0C79.6966 0 87 7.30336 87 16.3125C87 25.3216 79.6966 32.625 70.6875 32.625C61.6784 32.625 54.375 25.3216 54.375 16.3125Z" fill="#B8CFE9"/>
<path d="M34.6465 15H37.8535C39.7733 15 41.4781 16.2285 42.085 18.0498C42.6852 19.8516 44.177 21.1597 45.9326 21.7451C47.3034 22.2022 48.6315 22.7533 49.9082 23.3916C51.5644 24.2195 53.5445 24.3503 55.2441 23.501C56.9631 22.6421 59.0386 22.9792 60.3975 24.3379L62.6621 26.6025C64.0205 27.9609 64.3574 30.0367 63.498 31.7549C62.6483 33.454 62.7787 35.4339 63.6064 37.0898C64.2447 38.3664 64.7959 39.6947 65.2529 41.0654C65.8385 42.8214 67.1463 44.3133 68.9482 44.9141C70.7704 45.5215 71.9998 47.2267 72 49.1475V52.3525C72 54.2729 70.7711 55.9781 68.9492 56.585C67.1471 57.1851 65.8385 58.6767 65.2529 60.4326C64.7959 61.8032 64.2446 63.1307 63.6064 64.4072C62.7783 66.0636 62.6482 68.0444 63.498 69.7441C64.3575 71.463 64.0202 73.5387 62.6611 74.8975L60.3984 77.1602C59.0395 78.5188 56.9629 78.8555 55.2441 77.9961C53.5443 77.1464 51.5636 77.277 49.9072 78.1055C48.6307 78.744 47.3032 79.2957 45.9326 79.7529C44.1768 80.3388 42.6852 81.647 42.085 83.4492C41.4781 85.2711 39.7729 86.5 37.8525 86.5H34.6475C32.7267 86.4998 31.0215 85.2704 30.4141 83.4482C29.8133 81.6463 28.3214 80.3385 26.5654 79.7529C25.1947 79.2959 23.8664 78.7447 22.5898 78.1064C20.9339 77.2787 18.954 77.1483 17.2549 77.998C15.5367 78.8574 13.4609 78.5205 12.1025 77.1621L9.83789 74.8975C8.47922 73.5386 8.14208 71.4631 9.00098 69.7441C9.85027 68.0445 9.7195 66.0644 8.8916 64.4082C8.25334 63.1315 7.70219 61.8034 7.24512 60.4326C6.65974 58.677 5.35156 57.1852 3.5498 56.585C1.72848 55.9781 0.5 54.2733 0.5 52.3535V49.1465C0.500169 47.2263 1.72914 45.5215 3.55078 44.9141C5.35231 44.3133 6.65974 42.8211 7.24512 41.0654C7.70223 39.6945 8.25329 38.3666 8.8916 37.0898C9.71945 35.434 9.85033 33.4541 9.00098 31.7549C8.14212 30.0366 8.4794 27.9617 9.83789 26.6035L12.1025 24.3389C13.461 22.9807 15.5366 22.6441 17.2549 23.5029C18.9541 24.3521 20.9341 24.2217 22.5898 23.3936C23.8668 22.7548 25.1953 22.2025 26.5664 21.7451C28.3217 21.1594 29.8133 19.8522 30.4141 18.0508C31.0215 16.2291 32.7263 15.0002 34.6465 15ZM36.25 26.6875C22.9606 26.6875 12.1875 37.4606 12.1875 50.75C12.1875 64.0394 22.9606 74.8125 36.25 74.8125C49.5394 74.8125 60.3125 64.0394 60.3125 50.75C60.3125 37.4606 49.5394 26.6875 36.25 26.6875Z" fill="#D8E3F4" stroke="#ADBACF"/>
<path d="M14.5 50.7499C14.5 38.7377 24.2378 28.9999 36.25 28.9999C48.2622 28.9999 58 38.7377 58 50.7499C58 62.7621 48.2622 72.4999 36.25 72.4999C24.2378 72.4999 14.5 62.7621 14.5 50.7499Z" fill="#4070A8"/>
<path d="M72.5 20.8438V14.5H66.1562M72.5 14.5L48.1445 38.8555" stroke="#40404B" stroke-width="1.5" stroke-linecap="round"/>
<path d="M24.84 56.7806C24.0551 56.7806 23.5625 56.3214 23.5625 55.595C23.5625 55.3862 23.6209 55.1023 23.7295 54.7934L27.0193 45.8341C27.37 44.8571 27.9628 44.4062 28.9147 44.4062C29.9 44.4062 30.4845 44.8404 30.8435 45.8257L34.15 54.7934C34.2669 55.119 34.3087 55.3445 34.3087 55.595C34.3087 56.288 33.7826 56.7806 33.0479 56.7806C32.3381 56.7806 31.9624 56.455 31.7369 55.6701L31.1024 53.7664H26.7521L26.1175 55.6451C25.8837 56.4466 25.508 56.7806 24.84 56.7806ZM27.3032 51.8125H30.5179L28.9231 46.8778H28.8646L27.3032 51.8125Z" fill="white"/>
<path d="M37.1059 56.7806C36.3126 56.7806 35.845 56.2963 35.845 55.4697V45.8842C35.845 45.0575 36.3126 44.5732 37.1059 44.5732H40.7464C43.2179 44.5732 44.9213 46.2182 44.9213 48.698C44.9213 51.1696 43.1594 52.8228 40.6211 52.8228H38.3667V55.4697C38.3667 56.2963 37.8991 56.7806 37.1059 56.7806ZM38.3667 50.8523H40.07C41.5145 50.8523 42.3579 50.0841 42.3579 48.7064C42.3579 47.337 41.5229 46.5688 40.0784 46.5688H38.3667V50.8523Z" fill="white"/>
<path d="M47.6767 56.7806C46.8835 56.7806 46.4159 56.2963 46.4159 55.4697V45.7255C46.4159 44.8905 46.8835 44.4062 47.6767 44.4062C48.4699 44.4062 48.9375 44.8905 48.9375 45.7255V55.4697C48.9375 56.2963 48.4699 56.7806 47.6767 56.7806Z" fill="white"/>
<path d="M52.9011 83.7911L46.5715 61.2856L69.7802 66.912L64.1539 73.2417L74 80.9779L66.2638 88.7142L58.5275 78.868L52.9011 83.7911Z" fill="#B8CFE9"/>
<path d="M48.5934 81.5055L42 59L66.1758 64.6264L60.315 70.956L70.5714 78.6923L62.5128 86.4285L54.4542 76.5824L48.5934 81.5055Z" fill="white" stroke="#1D2028"/>
</svg>
