<?xml version="1.0" encoding="UTF-8"?>
<!--
  -
  - Copyright (c) WSO2 Inc. (http://www.wso2.org) All Rights Reserved.
  -
  - WSO2 Inc. licenses this file to you under the Apache License,
  - Version 2.0 (the "License"); you may not use this file except
  - in compliance with the License.
  - You may obtain a copy of the License at
  -
  -   http://www.apache.org/licenses/LICENSE-2.0
  -
  - Unless required by applicable law or agreed to in writing,
  - software distributed under the License is distributed on an
  - "AS IS" BASIS, WITHOUT WARRANTIES OR CONDITIONS OF ANY
  - KIND, either express or implied.  See the License for the
  - specific language governing permissions and limitations
  - under the License.
  -
  -->

<svg version="1.1" xmlns="http://www.w3.org/2000/svg" width="512" height="512">
<path d="M0 0 C10.53435707 1.13516779 21.78258338 12.66938043 28.32275391 20.60498047 C37.18634977 32.15618082 41.97438004 44.19298004 46 58 C47.08152344 57.84015625 48.16304688 57.6803125 49.27734375 57.515625 C69.46086985 55.01430469 92.84594092 55.76027399 109.75 68.3125 C110.84400746 69.19526619 111.93201137 70.08592738 113 71 C111.77017151 83.22142067 104.51201989 92.58931368 96 101 C94.98679687 102.04607422 94.98679687 102.04607422 93.953125 103.11328125 C80.30994353 116.3204964 61.30630307 122.25616582 42.625 122.0625 C41.79355469 122.05798828 40.96210938 122.05347656 40.10546875 122.04882812 C38.07028103 122.03713164 36.03513077 122.01919935 34 122 C33.82911865 122.53802246 33.6582373 123.07604492 33.48217773 123.63037109 C23.61160998 154.04416031 7.48496203 183.463854 -13 208 C-13.47405273 208.57556641 -13.94810547 209.15113281 -14.43652344 209.74414062 C-24.84471265 222.35633517 -35.9862807 234.04016683 -49 244 C-49.55913086 244.43022461 -50.11826172 244.86044922 -50.69433594 245.30371094 C-83.6768381 270.54670146 -122.23804276 285.80971336 -163.0625 292.75 C-164.81663208 293.04825684 -164.81663208 293.04825684 -166.60620117 293.35253906 C-183.61701785 296.0776352 -200.57981242 297.34181828 -217.80224609 297.26074219 C-220.49990281 297.25000039 -223.19689405 297.26073814 -225.89453125 297.2734375 C-242.23813045 297.28721575 -258.53054477 296.12990873 -274.625 293.1875 C-275.57318604 293.01718262 -276.52137207 292.84686523 -277.49829102 292.67138672 C-302.1067468 288.09909901 -326.87512002 280.83505455 -346 264 C-346.79535156 263.34773438 -347.59070313 262.69546875 -348.41015625 262.0234375 C-377.7918247 237.15844392 -390.77130816 197.7468456 -397 161 C-397.22558594 159.78699219 -397.45117188 158.57398438 -397.68359375 157.32421875 C-399.08984379 148.45029609 -399.25539676 139.53417476 -399.35046387 130.56750488 C-399.3667056 129.11617246 -399.38883716 127.66489294 -399.41711426 126.21374512 C-399.45310654 124.14983128 -399.46090594 122.08763052 -399.4609375 120.0234375 C-399.46915527 118.81606934 -399.47737305 117.60870117 -399.48583984 116.36474609 C-398.70714241 110.97177723 -396.48226887 108.13945886 -392.21030045 104.85548496 C-386.63430974 101.82023002 -380.4055064 102.45477648 -374.22650146 102.50120544 C-372.81506436 102.497476 -371.403631 102.49198457 -369.99220681 102.48488861 C-366.12242322 102.47046034 -362.2530432 102.48079427 -358.38327408 102.49517167 C-354.20574084 102.50629783 -350.02826724 102.49428836 -345.85073853 102.48498535 C-338.61153206 102.47189642 -331.37244109 102.47305852 -324.13323212 102.48357964 C-313.6459103 102.49853642 -303.15872355 102.48859033 -292.6714094 102.47206045 C-275.62859222 102.4455958 -258.58580535 102.43474045 -241.54296875 102.43579102 C-240.52313968 102.43584934 -239.5033106 102.43590766 -238.45257762 102.43596775 C-234.32151831 102.43623355 -230.19045901 102.43655081 -226.05939971 102.43693101 C-214.71342752 102.43789556 -203.36745625 102.4365719 -192.02148438 102.43383789 C-190.49906724 102.43347805 -190.49906724 102.43347805 -188.94589421 102.43311094 C-171.98068983 102.42869362 -155.01551347 102.41241477 -138.05032563 102.3886171 C-127.6002182 102.37459416 -117.15021779 102.37162359 -106.70010677 102.38323999 C-99.52589348 102.39060195 -92.35173381 102.38744817 -85.17752561 102.37628155 C-81.04757617 102.37025003 -76.91777726 102.36900601 -72.78783798 102.38115883 C-41.07272816 102.96192755 -41.07272816 102.96192755 -11 94 C-12.34444069 89.84219269 -13.86370098 85.80083782 -15.5 81.75 C-23.43885678 60.95441056 -20.69179899 39.21789268 -11.95800781 19.03027344 C-8.87888379 12.50479041 -5.12018959 5.12018959 0 0 Z " fill="#0090E1" transform="translate(399,143)"/>
<path d="M0 0 C0.88779648 -0.00637985 1.77559296 -0.0127597 2.69029236 -0.01933289 C4.12472435 -0.02100212 4.12472435 -0.02100212 5.58813477 -0.02270508 C6.57322525 -0.02603348 7.55831573 -0.02936188 8.57325745 -0.03279114 C10.65706922 -0.03785467 12.74088911 -0.04019964 14.82470703 -0.04003906 C18.01356348 -0.04222537 21.20207392 -0.06038676 24.39086914 -0.0793457 C26.4149565 -0.08227976 28.4390455 -0.08426447 30.46313477 -0.08520508 C31.89453041 -0.09598335 31.89453041 -0.09598335 33.35484314 -0.10697937 C34.6912661 -0.10236443 34.6912661 -0.10236443 36.0546875 -0.09765625 C36.83617661 -0.09908127 37.61766571 -0.10050629 38.4228363 -0.10197449 C40.89254749 0.17951432 42.48903235 0.83325309 44.59204102 2.14526367 C45.7208984 4.40297843 45.72972306 5.65842915 45.75317383 8.16430664 C45.76278137 8.99211639 45.77238892 9.81992615 45.7822876 10.67282104 C45.78653748 11.56864899 45.79078735 12.46447693 45.79516602 13.38745117 C45.80086609 14.30736847 45.80656616 15.22728577 45.81243896 16.17507935 C45.82189442 18.12362516 45.82842511 20.072187 45.83227539 22.02075195 C45.84197941 25.00134191 45.87299688 27.98124194 45.90454102 30.96166992 C45.91107117 32.8535929 45.91632159 34.74552083 45.92016602 36.63745117 C45.93251282 37.52923065 45.94485962 38.42101013 45.95758057 39.33981323 C45.95457947 40.17392731 45.95157837 41.00804138 45.94848633 41.86743164 C45.95395477 42.96424759 45.95395477 42.96424759 45.95953369 44.08322144 C45.46772692 46.8428039 44.57710851 48.17490506 42.59204102 50.14526367 C40.39123535 50.64646912 40.39123535 50.64646912 37.80102539 50.64697266 C36.82991821 50.65635361 35.85881104 50.66573456 34.85827637 50.67539978 C33.8113562 50.6641658 32.76443604 50.65293182 31.68579102 50.64135742 C30.60954468 50.64281265 29.53329834 50.64426788 28.42443848 50.64576721 C26.14808445 50.64410659 23.8717194 50.6325272 21.59545898 50.61181641 C18.10555466 50.58287574 14.61716977 50.59120188 11.12719727 50.60424805 C8.91755444 50.59801047 6.70791643 50.58961939 4.49829102 50.57885742 C3.45137085 50.58179306 2.40445068 50.5847287 1.32580566 50.5877533 C0.35469849 50.57506912 -0.61640869 50.56238495 -1.61694336 50.54931641 C-2.47171265 50.54391342 -3.32648193 50.53851044 -4.20715332 50.53294373 C-6.93550644 50.05233424 -7.82160033 49.40038311 -9.40795898 47.14526367 C-9.78218079 45.17224121 -9.78218079 45.17224121 -9.78027344 42.9050293 C-9.78650223 42.05404663 -9.79273102 41.20306396 -9.79914856 40.32629395 C-9.78533394 38.95277771 -9.78533394 38.95277771 -9.77124023 37.55151367 C-9.77173874 36.6084436 -9.77223724 35.66537354 -9.77275085 34.69372559 C-9.77041038 32.69984836 -9.76068343 30.70596818 -9.74414062 28.7121582 C-9.72054992 25.6570397 -9.72357969 22.60279383 -9.73022461 19.54760742 C-9.7246478 17.61140429 -9.71753791 15.67520485 -9.70874023 13.73901367 C-9.70965164 12.82333618 -9.71056305 11.90765869 -9.71150208 10.9642334 C-9.70197006 10.11325073 -9.69243805 9.26226807 -9.68261719 8.38549805 C-9.6780098 7.63731812 -9.6734024 6.88913818 -9.6686554 6.11828613 C-9.40795898 4.14526367 -9.40795898 4.14526367 -7.40795898 1.14526367 C-4.60974955 0.21252719 -2.89397472 0.01413006 0 0 Z " fill="#0090E1" transform="translate(177.407958984375,186.854736328125)"/>
<path d="M0 0 C0.91096939 -0.00307663 1.82193878 -0.00615326 2.76051331 -0.00932312 C3.73665085 -0.0021376 4.71278839 0.00504791 5.71850586 0.01245117 C7.23087074 0.0131385 7.23087074 0.0131385 8.77378845 0.01383972 C10.90291523 0.01685806 13.03203987 0.02473186 15.16113281 0.03710938 C18.42447712 0.05537027 21.68753765 0.05761895 24.95092773 0.05737305 C27.01928957 0.0622883 29.08764948 0.06811666 31.15600586 0.07495117 C32.62324852 0.07662041 32.62324852 0.07662041 34.12013245 0.07832336 C35.48185829 0.08789314 35.48185829 0.08789314 36.87109375 0.09765625 C37.66955215 0.10146805 38.46801056 0.10527985 39.29066467 0.10920715 C41.37084961 0.24291992 41.37084961 0.24291992 44.37084961 1.24291992 C45.53903967 3.57930004 45.50353793 4.96630872 45.51611328 7.5690918 C45.52249313 8.46341919 45.52887299 9.35774658 45.53544617 10.2791748 C45.53655899 11.24689819 45.53767181 12.21462158 45.53881836 13.21166992 C45.54381096 14.69854309 45.54381096 14.69854309 45.54890442 16.2154541 C45.55397254 18.31363459 45.55631278 20.41182316 45.55615234 22.51000977 C45.55834063 25.72970761 45.57650256 28.94906392 45.59545898 32.16870117 C45.59839249 34.20385624 45.60037757 36.23901295 45.60131836 38.27416992 C45.60850388 39.24189331 45.61568939 40.2096167 45.62309265 41.20666504 C45.62001602 42.10099243 45.61693939 42.99531982 45.61376953 43.91674805 C45.61519455 44.70569458 45.61661957 45.49464111 45.61808777 46.30749512 C45.37084961 48.24291992 45.37084961 48.24291992 43.37084961 50.24291992 C41.24560547 50.49688721 41.24560547 50.49688721 38.58569336 50.50170898 C37.59126221 50.50801331 36.59683105 50.51431763 35.57226562 50.52081299 C34.49517334 50.51676453 33.41808105 50.51271606 32.30834961 50.50854492 C31.20612061 50.51045837 30.1038916 50.51237183 28.96826172 50.51434326 C26.63468193 50.51570604 24.30109458 50.51200315 21.9675293 50.50366211 C18.38565114 50.49296413 14.80427458 50.5035545 11.22241211 50.51635742 C8.95939016 50.51503584 6.69636853 50.51247349 4.43334961 50.50854492 C3.35625732 50.51259338 2.27916504 50.51664185 1.16943359 50.52081299 C-0.32221313 50.51135651 -0.32221313 50.51135651 -1.84399414 50.50170898 C-2.72176514 50.5001178 -3.59953613 50.49852661 -4.50390625 50.49688721 C-6.62915039 50.24291992 -6.62915039 50.24291992 -8.62915039 48.24291992 C-8.86965942 46.256073 -8.86965942 46.256073 -8.85620117 43.79321289 C-8.85605011 42.87240936 -8.85589905 41.95160583 -8.85574341 41.00289917 C-8.84542084 40.00702789 -8.83509827 39.01115662 -8.82446289 37.98510742 C-8.821633 36.96691925 -8.8188031 35.94873108 -8.81588745 34.89968872 C-8.80466809 31.63898092 -8.77956035 28.37854508 -8.75415039 25.11791992 C-8.74412286 22.91089263 -8.73499662 20.70386105 -8.72680664 18.49682617 C-8.70472307 13.0787642 -8.67122834 7.66086149 -8.62915039 2.24291992 C-5.6184048 0.50966867 -3.46176403 -0.0061721 0 0 Z " fill="#0090E1" transform="translate(239.629150390625,186.757080078125)"/>
<path d="M0 0 C0.90781723 -0.00637985 1.81563446 -0.0127597 2.7509613 -0.01933289 C3.72912308 -0.02044571 4.70728485 -0.02155853 5.71508789 -0.02270508 C6.72237442 -0.02603348 7.72966095 -0.02936188 8.76747131 -0.03279114 C10.89836165 -0.03785499 13.02925991 -0.04019963 15.16015625 -0.04003906 C18.42143807 -0.0422254 21.68238157 -0.06038654 24.94360352 -0.0793457 C27.01326382 -0.08227974 29.08292572 -0.08426447 31.15258789 -0.08520508 C32.6167942 -0.09598335 32.6167942 -0.09598335 34.11058044 -0.10697937 C35.02154984 -0.10390274 35.93251923 -0.10082611 36.87109375 -0.09765625 C37.67034775 -0.09908127 38.46960175 -0.10050629 39.29307556 -0.10197449 C41.74397309 0.17256521 43.37599714 0.92235936 45.50024414 2.14526367 C45.55083804 8.65971572 45.5859327 15.17411735 45.61010742 21.6887207 C45.62018239 23.90618788 45.63384273 26.12364172 45.65112305 28.34106445 C45.67530577 31.52322679 45.68671211 34.70521392 45.69555664 37.88745117 C45.70587921 38.88332245 45.71620178 39.87919373 45.72683716 40.90524292 C45.72706375 42.28644821 45.72706375 42.28644821 45.72729492 43.69555664 C45.73173615 44.50830048 45.73617737 45.32104431 45.74075317 46.15841675 C45.50024414 48.14526367 45.50024414 48.14526367 43.50024414 50.14526367 C41.375 50.40596008 41.375 50.40596008 38.71508789 50.41992188 C37.72065674 50.42945389 36.72622559 50.4389859 35.70166016 50.44880676 C34.62456787 50.44789536 33.54747559 50.44698395 32.43774414 50.44604492 C31.33551514 50.45033005 30.23328613 50.45461517 29.09765625 50.45903015 C26.76408577 50.46478066 24.43049737 50.46526844 22.09692383 50.4609375 C18.51490916 50.45777661 14.93371915 50.48123182 11.35180664 50.5065918 C9.08878685 50.50886451 6.82576484 50.50956842 4.56274414 50.50854492 C3.48565186 50.51775467 2.40855957 50.52696442 1.29882812 50.53645325 C0.30439697 50.53022446 -0.69003418 50.52399567 -1.71459961 50.51757812 C-2.59237061 50.51820755 -3.4701416 50.51883698 -4.37451172 50.51948547 C-5.07584229 50.39599228 -5.77717285 50.27249908 -6.49975586 50.14526367 C-8.58122276 47.02306332 -8.74924254 46.34088527 -8.74267578 42.79736328 C-8.74575241 41.92313217 -8.74882904 41.04890106 -8.7519989 40.1481781 C-8.74481339 39.20748978 -8.73762787 38.26680145 -8.73022461 37.29760742 C-8.72976639 36.32996964 -8.72930817 35.36233185 -8.72883606 34.3653717 C-8.72581517 32.32022881 -8.71793374 30.2750882 -8.70556641 28.22998047 C-8.68730746 25.09163303 -8.68505676 21.95358056 -8.68530273 18.81518555 C-8.68038759 16.83015694 -8.67455928 14.84513035 -8.66772461 12.86010742 C-8.66661179 11.91739487 -8.66549896 10.97468231 -8.66435242 10.00340271 C-8.65478264 8.69678429 -8.65478264 8.69678429 -8.64501953 7.36376953 C-8.64120773 6.5956041 -8.63739594 5.82743866 -8.63346863 5.03599548 C-8.49975586 3.14526367 -8.49975586 3.14526367 -7.49975586 1.14526367 C-4.67636432 0.20413316 -2.92463377 0.01396205 0 0 Z " fill="#0090E1" transform="translate(113.499755859375,186.854736328125)"/>
<path d="M0 0 C0.9077417 -0.00953201 1.8154834 -0.01906403 2.75073242 -0.02888489 C3.72373291 -0.02797348 4.6967334 -0.02706207 5.69921875 -0.02612305 C7.20802612 -0.03255074 7.20802612 -0.03255074 8.74731445 -0.03910828 C10.87222542 -0.04484666 12.99715603 -0.04535547 15.12207031 -0.04101562 C18.37468895 -0.03785349 21.6263999 -0.06132891 24.87890625 -0.08666992 C26.94400927 -0.08894272 29.00911473 -0.0896465 31.07421875 -0.08862305 C32.04721924 -0.09783279 33.02021973 -0.10704254 34.02270508 -0.11653137 C34.93044678 -0.11030258 35.83818848 -0.10407379 36.7734375 -0.09765625 C37.56967529 -0.09828568 38.36591309 -0.0989151 39.1862793 -0.0995636 C42.01844492 0.38209388 43.36651687 1.24149305 45.38671875 3.2746582 C45.88792419 5.33033752 45.88792419 5.33033752 45.88842773 7.71435547 C45.89780869 8.60860733 45.90718964 9.50285919 45.91685486 10.42420959 C45.90562088 11.3867717 45.8943869 12.3493338 45.8828125 13.34106445 C45.88426773 14.33089828 45.88572296 15.32073212 45.88722229 16.34056091 C45.88556222 18.43279972 45.87398889 20.52505061 45.85327148 22.6171875 C45.82429772 25.82840531 45.83266409 29.03797516 45.84570312 32.24926758 C45.83946656 34.2798746 45.83107627 36.31047638 45.8203125 38.34106445 C45.82324814 39.30565079 45.82618378 40.27023712 45.82920837 41.26405334 C45.81018211 42.6007029 45.81018211 42.6007029 45.79077148 43.96435547 C45.7853685 44.7502858 45.77996552 45.53621613 45.7743988 46.34596252 C45.38671875 48.2746582 45.38671875 48.2746582 42.38671875 50.2746582 C40.17918396 50.52862549 40.17918396 50.52862549 37.57983398 50.53344727 C36.11833168 50.54290375 36.11833168 50.54290375 34.62730408 50.55255127 C33.57724686 50.54850281 32.52718964 50.54445435 31.4453125 50.5402832 C30.36669449 50.54219666 29.28807648 50.54411011 28.17677307 50.54608154 C25.89624803 50.54744292 23.61571524 50.54374979 21.33520508 50.53540039 C17.8346222 50.52469003 14.33455134 50.53530285 10.83398438 50.5480957 C8.62109261 50.5467743 6.40820117 50.54421232 4.1953125 50.5402832 C3.14323105 50.54433167 2.0911496 50.54838013 1.00718689 50.55255127 C0.03600418 50.54624695 -0.93517853 50.53994263 -1.93579102 50.53344727 C-2.79278091 50.53185608 -3.64977081 50.53026489 -4.5327301 50.52862549 C-6.61328125 50.2746582 -6.61328125 50.2746582 -8.61328125 48.2746582 C-8.85379028 46.28781128 -8.85379028 46.28781128 -8.84033203 43.82495117 C-8.84018097 42.90414764 -8.84002991 41.98334412 -8.83987427 41.03463745 C-8.8295517 40.03876617 -8.81922913 39.0428949 -8.80859375 38.0168457 C-8.80576385 36.99865753 -8.80293396 35.98046936 -8.80001831 34.931427 C-8.78879895 31.6707192 -8.76369121 28.41028337 -8.73828125 25.1496582 C-8.72825372 22.94263091 -8.71912748 20.73559933 -8.7109375 18.52856445 C-8.68885393 13.11050248 -8.6553592 7.69259977 -8.61328125 2.2746582 C-5.61472144 0.55289743 -3.44601145 0.01994018 0 0 Z " fill="#0090E1" transform="translate(302.61328125,186.725341796875)"/>
<path d="M0 0 C0.9077417 -0.00953201 1.8154834 -0.01906403 2.75073242 -0.02888489 C3.72373291 -0.02797348 4.6967334 -0.02706207 5.69921875 -0.02612305 C7.20802612 -0.03255074 7.20802612 -0.03255074 8.74731445 -0.03910828 C10.87222542 -0.04484666 12.99715603 -0.04535547 15.12207031 -0.04101562 C18.37468895 -0.03785349 21.6263999 -0.06132891 24.87890625 -0.08666992 C26.94400927 -0.08894272 29.00911473 -0.0896465 31.07421875 -0.08862305 C32.04721924 -0.09783279 33.02021973 -0.10704254 34.02270508 -0.11653137 C34.93044678 -0.11030258 35.83818848 -0.10407379 36.7734375 -0.09765625 C37.56967529 -0.09828568 38.36591309 -0.0989151 39.1862793 -0.0995636 C42.01844492 0.38209388 43.36651687 1.24149305 45.38671875 3.2746582 C45.88792419 5.33033752 45.88792419 5.33033752 45.88842773 7.71435547 C45.89780869 8.60860733 45.90718964 9.50285919 45.91685486 10.42420959 C45.90562088 11.3867717 45.8943869 12.3493338 45.8828125 13.34106445 C45.88426773 14.33089828 45.88572296 15.32073212 45.88722229 16.34056091 C45.88556222 18.43279972 45.87398889 20.52505061 45.85327148 22.6171875 C45.82429772 25.82840531 45.83266409 29.03797516 45.84570312 32.24926758 C45.83946656 34.2798746 45.83107627 36.31047638 45.8203125 38.34106445 C45.82324814 39.30565079 45.82618378 40.27023712 45.82920837 41.26405334 C45.81018211 42.6007029 45.81018211 42.6007029 45.79077148 43.96435547 C45.7853685 44.7502858 45.77996552 45.53621613 45.7743988 46.34596252 C45.38671875 48.2746582 45.38671875 48.2746582 42.38671875 50.2746582 C40.17918396 50.52862549 40.17918396 50.52862549 37.57983398 50.53344727 C36.11833168 50.54290375 36.11833168 50.54290375 34.62730408 50.55255127 C33.57724686 50.54850281 32.52718964 50.54445435 31.4453125 50.5402832 C30.36669449 50.54219666 29.28807648 50.54411011 28.17677307 50.54608154 C25.89624803 50.54744292 23.61571524 50.54374979 21.33520508 50.53540039 C17.8346222 50.52469003 14.33455134 50.53530285 10.83398438 50.5480957 C8.62109261 50.5467743 6.40820117 50.54421232 4.1953125 50.5402832 C3.14323105 50.54433167 2.0911496 50.54838013 1.00718689 50.55255127 C0.03600418 50.54624695 -0.93517853 50.53994263 -1.93579102 50.53344727 C-2.79278091 50.53185608 -3.64977081 50.53026489 -4.5327301 50.52862549 C-6.61328125 50.2746582 -6.61328125 50.2746582 -8.61328125 48.2746582 C-8.85379028 46.28781128 -8.85379028 46.28781128 -8.84033203 43.82495117 C-8.84018097 42.90414764 -8.84002991 41.98334412 -8.83987427 41.03463745 C-8.8295517 40.03876617 -8.81922913 39.0428949 -8.80859375 38.0168457 C-8.80576385 36.99865753 -8.80293396 35.98046936 -8.80001831 34.931427 C-8.78879895 31.6707192 -8.76369121 28.41028337 -8.73828125 25.1496582 C-8.72825372 22.94263091 -8.71912748 20.73559933 -8.7109375 18.52856445 C-8.68885393 13.11050248 -8.6553592 7.69259977 -8.61328125 2.2746582 C-5.61472144 0.55289743 -3.44601145 0.01994018 0 0 Z " fill="#0090E1" transform="translate(51.61328125,186.725341796875)"/>
<path d="M0 0 C2.17666626 -0.36076355 2.17666626 -0.36076355 4.90869141 -0.34057617 C6.44005234 -0.34023628 6.44005234 -0.34023628 8.00234985 -0.33988953 C9.10759003 -0.32440567 10.2128302 -0.30892181 11.3515625 -0.29296875 C12.4807309 -0.28872391 13.60989929 -0.28447906 14.77328491 -0.28010559 C18.39076273 -0.26327132 22.00768969 -0.22560975 25.625 -0.1875 C28.07290864 -0.17245934 30.52082598 -0.15876986 32.96875 -0.14648438 C38.9793556 -0.11335227 44.98963846 -0.06310579 51 0 C52.60898365 2.84624107 53.25144868 4.89089241 53.25878906 8.15429688 C53.26509338 8.96193481 53.27139771 9.76957275 53.27789307 10.60168457 C53.2738446 11.46531616 53.26979614 12.32894775 53.265625 13.21875 C53.26849518 14.56108704 53.26849518 14.56108704 53.27142334 15.93054199 C53.27278259 17.82007122 53.26910428 19.70960988 53.26074219 21.59912109 C53.25003899 24.48947142 53.26064625 27.37920022 53.2734375 30.26953125 C53.27211586 32.1067722 53.26955337 33.94401277 53.265625 35.78125 C53.26967346 36.64488159 53.27372192 37.50851318 53.27789307 38.39831543 C53.27158875 39.20595337 53.26528442 40.01359131 53.25878906 40.84570312 C53.25719788 41.55311646 53.25560669 42.26052979 53.25396729 42.98937988 C52.95873916 45.32665578 52.15258149 46.96111988 51 49 C43.77350568 49.07587458 36.54711351 49.12852551 29.3203125 49.16479492 C26.86031252 49.17990988 24.40033959 49.20040227 21.94042969 49.22631836 C18.41073948 49.2625823 14.88140456 49.27969914 11.3515625 49.29296875 C10.24632233 49.30845261 9.14108215 49.32393646 8.00234985 49.33988953 C6.98144257 49.34011612 5.96053528 49.34034271 4.90869141 49.34057617 C3.55633896 49.35056892 3.55633896 49.35056892 2.17666626 49.36076355 C1.45836639 49.24171158 0.74006653 49.12265961 0 49 C-2.06013396 45.90979905 -2.25135713 45.25427888 -2.25878906 41.75976562 C-2.26509338 40.90878296 -2.27139771 40.05780029 -2.27789307 39.18103027 C-2.2738446 38.26535278 -2.26979614 37.34967529 -2.265625 36.40625 C-2.26753845 35.46317993 -2.2694519 34.52010986 -2.27142334 33.54846191 C-2.27278431 31.55460341 -2.26909403 29.56073601 -2.26074219 27.56689453 C-2.25004148 24.51184214 -2.26064052 21.45737781 -2.2734375 18.40234375 C-2.27211589 16.46614453 -2.26955347 14.52994568 -2.265625 12.59375 C-2.26967346 11.67807251 -2.27372192 10.76239502 -2.27789307 9.81896973 C-2.27158875 8.96798706 -2.26528442 8.11700439 -2.25878906 7.24023438 C-2.25719788 6.49205444 -2.25560669 5.74387451 -2.25396729 4.97302246 C-2 3 -2 3 0 0 Z " fill="#0090E1" transform="translate(170,130)"/>
<path d="M0 0 C1.49164673 -0.00945648 1.49164673 -0.00945648 3.01342773 -0.019104 C4.09052002 -0.01505554 5.1676123 -0.01100708 6.27734375 -0.00683594 C7.37957275 -0.00874939 8.48180176 -0.01066284 9.61743164 -0.01263428 C11.95101143 -0.01399706 14.28459878 -0.01029416 16.61816406 -0.00195312 C20.20004222 0.00874485 23.78141878 -0.00184552 27.36328125 -0.01464844 C29.6263032 -0.01332686 31.88932483 -0.0107645 34.15234375 -0.00683594 C35.76798218 -0.01290863 35.76798218 -0.01290863 37.41625977 -0.019104 C38.41069092 -0.01279968 39.40512207 -0.00649536 40.4296875 0 C41.3074585 0.00159119 42.18522949 0.00318237 43.08959961 0.00482178 C45.21484375 0.25878906 45.21484375 0.25878906 47.21484375 2.25878906 C47.46881104 4.19421387 47.46881104 4.19421387 47.47363281 6.58496094 C47.47993713 7.47928833 47.48624146 8.37361572 47.49273682 9.29504395 C47.48868835 10.26276733 47.48463989 11.23049072 47.48046875 12.22753906 C47.48333893 13.71441223 47.48333893 13.71441223 47.48626709 15.23132324 C47.4876296 17.32951104 47.48392857 19.42770725 47.47558594 21.52587891 C47.46488746 24.74563452 47.47547911 27.96483214 47.48828125 31.18457031 C47.48695967 33.2197278 47.4843973 35.25488494 47.48046875 37.29003906 C47.48451721 38.25776245 47.48856567 39.22548584 47.49273682 40.22253418 C47.4864325 41.11686157 47.48012817 42.01118896 47.47363281 42.93261719 C47.47204163 43.72156372 47.47045044 44.51051025 47.46881104 45.32336426 C47.21484375 47.25878906 47.21484375 47.25878906 45.21484375 49.25878906 C43.08959961 49.51275635 43.08959961 49.51275635 40.4296875 49.51757812 C39.43525635 49.52388245 38.4408252 49.53018677 37.41625977 49.53668213 C36.33916748 49.53263367 35.2620752 49.52858521 34.15234375 49.52441406 C33.05011475 49.52632751 31.94788574 49.52824097 30.81225586 49.5302124 C28.47867607 49.53157519 26.14508872 49.52787229 23.81152344 49.51953125 C20.22964528 49.50883327 16.64826872 49.51942364 13.06640625 49.53222656 C10.8033843 49.53090498 8.54036267 49.52834263 6.27734375 49.52441406 C5.20025146 49.52846252 4.12315918 49.53251099 3.01342773 49.53668213 C1.52178101 49.52722565 1.52178101 49.52722565 0 49.51757812 C-0.877771 49.51598694 -1.75554199 49.51439575 -2.65991211 49.51275635 C-4.78515625 49.25878906 -4.78515625 49.25878906 -6.78515625 47.25878906 C-7.03912354 45.32336426 -7.03912354 45.32336426 -7.04394531 42.93261719 C-7.05024963 42.03828979 -7.05655396 41.1439624 -7.06304932 40.22253418 C-7.05900085 39.25481079 -7.05495239 38.2870874 -7.05078125 37.29003906 C-7.0526947 36.29879028 -7.05460815 35.3075415 -7.05657959 34.28625488 C-7.0579421 32.18806708 -7.05424107 30.08987088 -7.04589844 27.99169922 C-7.03519996 24.7719436 -7.04579161 21.55274598 -7.05859375 18.33300781 C-7.05727217 16.29785033 -7.0547098 14.26269319 -7.05078125 12.22753906 C-7.05685394 10.77595398 -7.05685394 10.77595398 -7.06304932 9.29504395 C-7.056745 8.40071655 -7.05044067 7.50638916 -7.04394531 6.58496094 C-7.04235413 5.7960144 -7.04076294 5.00706787 -7.03912354 4.19421387 C-6.47124517 -0.13345327 -3.66547694 0.00664462 0 0 Z " fill="#0090E2" transform="translate(237.78515625,129.7412109375)"/>
<path d="M0 0 C1.49164673 -0.00945648 1.49164673 -0.00945648 3.01342773 -0.019104 C4.09052002 -0.01505554 5.1676123 -0.01100708 6.27734375 -0.00683594 C7.37957275 -0.00874939 8.48180176 -0.01066284 9.61743164 -0.01263428 C11.95101143 -0.01399706 14.28459878 -0.01029416 16.61816406 -0.00195312 C20.20004222 0.00874485 23.78141878 -0.00184552 27.36328125 -0.01464844 C29.6263032 -0.01332686 31.88932483 -0.0107645 34.15234375 -0.00683594 C35.76798218 -0.01290863 35.76798218 -0.01290863 37.41625977 -0.019104 C38.41069092 -0.01279968 39.40512207 -0.00649536 40.4296875 0 C41.3074585 0.00159119 42.18522949 0.00318237 43.08959961 0.00482178 C45.21484375 0.25878906 45.21484375 0.25878906 47.21484375 2.25878906 C47.46881104 4.19421387 47.46881104 4.19421387 47.47363281 6.58496094 C47.47993713 7.47928833 47.48624146 8.37361572 47.49273682 9.29504395 C47.48868835 10.26276733 47.48463989 11.23049072 47.48046875 12.22753906 C47.48333893 13.71441223 47.48333893 13.71441223 47.48626709 15.23132324 C47.4876296 17.32951104 47.48392857 19.42770725 47.47558594 21.52587891 C47.46488746 24.74563452 47.47547911 27.96483214 47.48828125 31.18457031 C47.48695967 33.2197278 47.4843973 35.25488494 47.48046875 37.29003906 C47.48451721 38.25776245 47.48856567 39.22548584 47.49273682 40.22253418 C47.4864325 41.11686157 47.48012817 42.01118896 47.47363281 42.93261719 C47.47204163 43.72156372 47.47045044 44.51051025 47.46881104 45.32336426 C47.21484375 47.25878906 47.21484375 47.25878906 45.21484375 49.25878906 C43.08959961 49.51275635 43.08959961 49.51275635 40.4296875 49.51757812 C39.43525635 49.52388245 38.4408252 49.53018677 37.41625977 49.53668213 C36.33916748 49.53263367 35.2620752 49.52858521 34.15234375 49.52441406 C33.05011475 49.52632751 31.94788574 49.52824097 30.81225586 49.5302124 C28.47867607 49.53157519 26.14508872 49.52787229 23.81152344 49.51953125 C20.22964528 49.50883327 16.64826872 49.51942364 13.06640625 49.53222656 C10.8033843 49.53090498 8.54036267 49.52834263 6.27734375 49.52441406 C5.20025146 49.52846252 4.12315918 49.53251099 3.01342773 49.53668213 C1.52178101 49.52722565 1.52178101 49.52722565 0 49.51757812 C-0.877771 49.51598694 -1.75554199 49.51439575 -2.65991211 49.51275635 C-4.78515625 49.25878906 -4.78515625 49.25878906 -6.78515625 47.25878906 C-7.03912354 45.32336426 -7.03912354 45.32336426 -7.04394531 42.93261719 C-7.05024963 42.03828979 -7.05655396 41.1439624 -7.06304932 40.22253418 C-7.05900085 39.25481079 -7.05495239 38.2870874 -7.05078125 37.29003906 C-7.0526947 36.29879028 -7.05460815 35.3075415 -7.05657959 34.28625488 C-7.0579421 32.18806708 -7.05424107 30.08987088 -7.04589844 27.99169922 C-7.03519996 24.7719436 -7.04579161 21.55274598 -7.05859375 18.33300781 C-7.05727217 16.29785033 -7.0547098 14.26269319 -7.05078125 12.22753906 C-7.05685394 10.77595398 -7.05685394 10.77595398 -7.06304932 9.29504395 C-7.056745 8.40071655 -7.05044067 7.50638916 -7.04394531 6.58496094 C-7.04235413 5.7960144 -7.04076294 5.00706787 -7.03912354 4.19421387 C-6.47124517 -0.13345327 -3.66547694 0.00664462 0 0 Z " fill="#0090E2" transform="translate(111.78515625,129.7412109375)"/>
<path d="M0 0 C1.49164673 -0.00945648 1.49164673 -0.00945648 3.01342773 -0.019104 C4.09052002 -0.01505554 5.1676123 -0.01100708 6.27734375 -0.00683594 C7.37957275 -0.00874939 8.48180176 -0.01066284 9.61743164 -0.01263428 C11.95101143 -0.01399706 14.28459878 -0.01029416 16.61816406 -0.00195312 C20.20004222 0.00874485 23.78141878 -0.00184552 27.36328125 -0.01464844 C29.6263032 -0.01332686 31.88932483 -0.0107645 34.15234375 -0.00683594 C35.76798218 -0.01290863 35.76798218 -0.01290863 37.41625977 -0.019104 C38.41069092 -0.01279968 39.40512207 -0.00649536 40.4296875 0 C41.3074585 0.00159119 42.18522949 0.00318237 43.08959961 0.00482178 C45.21484375 0.25878906 45.21484375 0.25878906 47.21484375 2.25878906 C47.46881104 4.19421387 47.46881104 4.19421387 47.47363281 6.58496094 C47.47993713 7.47928833 47.48624146 8.37361572 47.49273682 9.29504395 C47.48868835 10.26276733 47.48463989 11.23049072 47.48046875 12.22753906 C47.48333893 13.71441223 47.48333893 13.71441223 47.48626709 15.23132324 C47.4876296 17.32951104 47.48392857 19.42770725 47.47558594 21.52587891 C47.46488746 24.74563452 47.47547911 27.96483214 47.48828125 31.18457031 C47.48695967 33.2197278 47.4843973 35.25488494 47.48046875 37.29003906 C47.48451721 38.25776245 47.48856567 39.22548584 47.49273682 40.22253418 C47.4864325 41.11686157 47.48012817 42.01118896 47.47363281 42.93261719 C47.47204163 43.72156372 47.47045044 44.51051025 47.46881104 45.32336426 C47.21484375 47.25878906 47.21484375 47.25878906 45.21484375 49.25878906 C43.08959961 49.51275635 43.08959961 49.51275635 40.4296875 49.51757812 C39.43525635 49.52388245 38.4408252 49.53018677 37.41625977 49.53668213 C36.33916748 49.53263367 35.2620752 49.52858521 34.15234375 49.52441406 C33.05011475 49.52632751 31.94788574 49.52824097 30.81225586 49.5302124 C28.47867607 49.53157519 26.14508872 49.52787229 23.81152344 49.51953125 C20.22964528 49.50883327 16.64826872 49.51942364 13.06640625 49.53222656 C10.8033843 49.53090498 8.54036267 49.52834263 6.27734375 49.52441406 C5.20025146 49.52846252 4.12315918 49.53251099 3.01342773 49.53668213 C1.52178101 49.52722565 1.52178101 49.52722565 0 49.51757812 C-0.877771 49.51598694 -1.75554199 49.51439575 -2.65991211 49.51275635 C-4.78515625 49.25878906 -4.78515625 49.25878906 -6.78515625 47.25878906 C-7.03912354 45.32336426 -7.03912354 45.32336426 -7.04394531 42.93261719 C-7.05024963 42.03828979 -7.05655396 41.1439624 -7.06304932 40.22253418 C-7.05900085 39.25481079 -7.05495239 38.2870874 -7.05078125 37.29003906 C-7.0526947 36.29879028 -7.05460815 35.3075415 -7.05657959 34.28625488 C-7.0579421 32.18806708 -7.05424107 30.08987088 -7.04589844 27.99169922 C-7.03519996 24.7719436 -7.04579161 21.55274598 -7.05859375 18.33300781 C-7.05727217 16.29785033 -7.0547098 14.26269319 -7.05078125 12.22753906 C-7.05685394 10.77595398 -7.05685394 10.77595398 -7.06304932 9.29504395 C-7.056745 8.40071655 -7.05044067 7.50638916 -7.04394531 6.58496094 C-7.04235413 5.7960144 -7.04076294 5.00706787 -7.03912354 4.19421387 C-6.47124517 -0.13345327 -3.66547694 0.00664462 0 0 Z " fill="#0090E1" transform="translate(237.78515625,71.7412109375)"/>
</svg>
