<?xml version="1.0" encoding="UTF-8"?>
<!--
  -
  - Copyright (c) WSO2 Inc. (http://www.wso2.org) All Rights Reserved.
  -
  - WSO2 Inc. licenses this file to you under the Apache License,
  - Version 2.0 (the "License"); you may not use this file except
  - in compliance with the License.
  - You may obtain a copy of the License at
  -
  -   http://www.apache.org/licenses/LICENSE-2.0
  -
  - Unless required by applicable law or agreed to in writing,
  - software distributed under the License is distributed on an
  - "AS IS" BASIS, WITHOUT WARRANTIES OR CONDITIONS OF ANY
  - KIND, either express or implied.  See the License for the
  - specific language governing permissions and limitations
  - under the License.
  -
  -->

<svg version="1.1" xmlns="http://www.w3.org/2000/svg" width="512" height="498">
<path d="M0 0 C1.3096875 -0.04898437 2.619375 -0.09796875 3.96875 -0.1484375 C9.97406518 0.19267361 15.11669735 2.8768764 20.5 5.375 C21.68158691 5.91527832 22.86317383 6.45555664 24.08056641 7.01220703 C28.08771814 8.85540416 32.07557866 10.73853702 36.0625 12.625 C36.79043762 12.96826324 37.51837524 13.31152649 38.26837158 13.66519165 C50.42544872 19.39795346 62.52146717 25.25204152 74.59976196 31.14862061 C84.10429429 35.78701113 93.63971568 40.33383547 103.25 44.75 C115.43366342 50.34927406 127.48082955 56.20838736 139.51998901 62.11038208 C151.48718968 67.97538774 163.49826893 73.71387124 175.6484375 79.19140625 C187.32631582 84.51149099 200.11386754 90.60085699 205.26076508 103.24375153 C205.87744872 105.30023099 206.39341474 107.35859268 206.87792969 109.45019531 C207.07831219 110.26029682 207.27869469 111.07039833 207.48514938 111.90504837 C208.17525097 114.72424114 208.83888102 117.54887529 209.5 120.375 C209.75197647 121.43569199 210.00395294 122.49638397 210.26356506 123.58921814 C212.20049497 131.7434204 214.09101232 139.90804939 215.97038746 148.07565212 C216.79550407 151.65861011 217.62400149 155.24078643 218.4520874 158.82305908 C220.02307162 165.62133761 221.59112659 172.42028812 223.15807891 179.21949697 C224.38784056 184.55514587 225.61895309 189.89048141 226.85107422 195.22558594 C227.02352457 195.97231961 227.19597491 196.71905328 227.37365103 197.48841524 C228.23762337 201.22931498 229.10178677 204.97017052 229.9661026 208.71099091 C231.65020654 216.00106354 233.33127672 223.29181237 235.0057373 230.58410645 C235.64741109 233.37710215 236.28939419 236.17002655 236.93164062 238.96289062 C237.16407738 239.97382452 237.16407738 239.97382452 237.40120983 241.00518131 C239.38047665 249.60642186 241.40757511 258.1946719 243.49023438 266.77148438 C244.12782556 269.42430903 244.76422377 272.07741672 245.40019989 274.73062897 C245.95429796 277.0165431 246.52736902 279.29702853 247.10211182 281.57781982 C249.8019367 292.6352023 252.17750076 306.14463256 247.06640625 316.84765625 C243.40177324 322.76041824 238.94266841 328.0419346 234.5 333.375 C233.35072973 334.76884502 232.20231443 336.16339537 231.0546875 337.55859375 C229.27082531 339.72592598 227.48577041 341.89219336 225.69604492 344.0546875 C221.59133845 349.01961476 217.5799997 354.04734475 213.61987305 359.12792969 C208.99209395 365.05379615 204.238701 370.87548043 199.48828125 376.703125 C197.14278467 379.58112454 194.81398453 382.47155836 192.5 385.375 C189.64777448 388.95379245 186.76647524 392.50762718 183.875 396.0546875 C179.20005942 401.79014701 174.55452912 407.54332802 170 413.375 C164.91394881 419.88723901 159.70904013 426.29866183 154.48828125 432.703125 C152.14278467 435.58112454 149.81398453 438.47155836 147.5 441.375 C143.46473632 446.43617817 139.38090821 451.45752997 135.28833008 456.47241211 C132.20348224 460.2568698 129.17622768 464.07632321 126.1875 467.9375 C118.94351311 476.95459666 111.39180688 482.77807608 99.70503879 484.16905272 C96.20165625 484.49626334 92.71871817 484.51618662 89.20230103 484.50871277 C88.40622857 484.51097833 87.61015612 484.51324388 86.78996027 484.51557809 C84.14332431 484.52186857 81.49674022 484.52109194 78.85009766 484.52026367 C76.94398432 484.52325822 75.03787159 484.52666143 73.13175964 484.53044128 C67.96850021 484.53925451 62.80525737 484.54161825 57.64199114 484.54225707 C54.412951 484.542969 51.18391504 484.545106 47.95487595 484.54775429 C36.68085208 484.55699825 25.40684003 484.56109029 14.1328125 484.56030273 C3.63776719 484.55970192 -6.85722673 484.5702569 -17.35225904 484.5860464 C-26.37585897 484.59913653 -35.39944213 484.60448602 -44.42305148 484.60384732 C-49.80672491 484.60359281 -55.19035263 484.60641855 -60.57401657 484.61702538 C-65.6383693 484.62673136 -70.70263282 484.6267684 -75.76698875 484.61950874 C-77.62046248 484.61846607 -79.47394183 484.62080686 -81.32740593 484.6268692 C-96.02938466 484.67182429 -109.07999468 484.65857212 -120.375 473.9375 C-125.38513021 468.65843636 -129.73946136 462.82647649 -134.18017578 457.07080078 C-136.74462702 453.77581774 -139.41076431 450.56454376 -142.0625 447.33984375 C-149.58404499 438.19104143 -157.04601604 428.9998003 -164.33544922 419.66479492 C-168.37872509 414.49936033 -172.51828829 409.4152332 -176.66625977 404.33374023 C-180.13893482 400.07189091 -183.55826306 395.77368899 -186.9375 391.4375 C-191.62065104 385.43204749 -196.45081655 379.55649691 -201.30834961 373.69165039 C-205.39418649 368.74763692 -209.38305424 363.73929903 -213.32080078 358.67700195 C-216.92100949 354.0671382 -220.63837847 349.56210464 -224.375 345.0625 C-250.41876849 313.52203872 -250.41876849 313.52203872 -248.5 293.375 C-247.20724905 285.03725385 -245.11792751 276.84409612 -243.15625 268.64453125 C-242.59248192 266.23026238 -242.03030843 263.81562066 -241.46961975 261.40063477 C-240.12799379 255.63923766 -238.77068317 249.88168232 -237.40564412 244.12580073 C-235.83699136 237.50788315 -234.28711911 230.88561475 -232.73900568 224.26286733 C-230.73323734 215.68279949 -228.7243092 207.10348659 -226.7040863 198.52680969 C-223.38385112 184.42951679 -220.08966649 170.32713864 -216.86731339 156.20713234 C-216.2969495 153.70792536 -215.72544043 151.20898317 -215.15353394 148.71012878 C-213.12013463 139.8264562 -213.12013463 139.8264562 -211.09960938 130.93984985 C-210.22230894 127.06854812 -209.33239745 123.20020607 -208.44140625 119.33203125 C-208.19777847 118.24583496 -207.9541507 117.15963867 -207.70314026 116.04052734 C-204.54464038 102.43522571 -200.77611717 93.79677751 -188.79418945 86.28637695 C-183.44555046 83.18295335 -177.8725784 80.60984984 -172.25592041 78.03848267 C-168.50651538 76.321218 -164.76947785 74.57736575 -161.03125 72.8359375 C-160.25202179 72.47359512 -159.47279358 72.11125275 -158.66995239 71.7379303 C-149.93424874 67.66523613 -141.28080564 63.4265965 -132.625 59.1875 C-120.91469841 53.45884751 -109.16210608 47.85847356 -97.31494141 42.41723633 C-86.28739326 37.32778141 -75.38810256 31.9837239 -64.48147583 26.64135742 C-50.45274649 19.77282421 -36.3380684 13.12659574 -22.14111328 6.61376953 C-19.73310757 5.48433517 -17.36257566 4.30327081 -14.99609375 3.08984375 C-9.93594205 0.60782521 -5.59604011 0.11747412 0 0 Z " fill="#326CE5" transform="translate(255.5,6.625)"/>
<path d="M0 0 C2.92937654 1.81310142 5.43647949 3.87295899 7 7 C7.0984342 9.82274537 7.13898292 12.61528097 7.125 15.4375 C7.12886719 16.21416016 7.13273438 16.99082031 7.13671875 17.79101562 C7.13099989 21.11081172 7.05668831 23.82993506 6 27 C5.77626128 29.99621866 5.81486143 32.99625668 5.8125 36 C5.80025391 36.81984375 5.78800781 37.6396875 5.77539062 38.484375 C5.77345703 39.27328125 5.77152344 40.0621875 5.76953125 40.875 C5.76542236 41.59429687 5.76131348 42.31359375 5.75708008 43.0546875 C5.89322092 45.32443251 5.89322092 45.32443251 8 48 C8.125 50.6875 8.125 50.6875 8 53 C8.54785156 53.03738281 9.09570312 53.07476562 9.66015625 53.11328125 C37.23623994 55.40007843 69.18207256 67.11559754 88.06640625 88.3203125 C88.62199219 88.97773438 89.17757813 89.63515625 89.75 90.3125 C91.7586306 92.43808883 92.46813389 92.97430599 95.42578125 93.1171875 C106.3787255 91.33226325 114.76606509 82.95771928 121.6875 74.75 C124.90427079 71.00201935 127.90296797 67.65430254 132.94140625 66.58984375 C136.66642458 66.31417826 139.38816746 66.82380242 142.5 68.9375 C145.37615139 72.46078545 145.7011366 74.13542731 145.796875 78.5234375 C143.243918 86.45762738 135.79303339 90.30355417 128.9375 94.125 C120.749413 98.65092063 120.749413 98.65092063 114 105 C113.61500109 106.65549531 113.27206865 108.3222433 113 110 C111.515 110.99 111.515 110.99 110 112 C111.46687078 116.03575616 113.44578557 119.46955211 115.6875 123.125 C127.93954099 143.89298314 130.95910236 165.97673829 131.5625 189.625 C131.60578915 191.21745694 131.64940637 192.809905 131.69335938 194.40234375 C131.7993542 198.26813718 131.90091325 202.13402359 132 206 C132.63341309 206.2985791 133.26682617 206.5971582 133.91943359 206.90478516 C136 208 136 208 137.2890625 209.5234375 C139.93181297 211.80416736 143.02939309 212.06916403 146.375 212.625 C147.08599854 212.75269775 147.79699707 212.88039551 148.52954102 213.01196289 C153.00090061 213.77875286 157.40215776 214.2072524 161.9375 214.4375 C167.50316136 214.77670075 172.30410829 215.88373319 177 219 C179.66836411 223.00254616 179.8340238 226.29313299 179 231 C176.81840855 233.75569447 175.12822506 235.43588747 172 237 C164.3055109 237.81374115 157.79244072 234.62307825 150.71289062 231.93164062 C143.00373577 229.10001856 136.27251175 227.43682452 128.05859375 228.51953125 C124.77289001 229.75812948 124.77289001 229.75812948 123.28515625 232.94921875 C122.88167969 234.18285156 122.47820312 235.41648437 122.0625 236.6875 C121.57327021 238.05975815 121.07694943 239.42950523 120.57421875 240.796875 C120.31946777 241.49748047 120.0647168 242.19808594 119.80224609 242.91992188 C110.69383584 266.53637208 89.80209993 291.59895004 67 303 C65.50228323 313.19279469 69.60472933 319.84916582 75 328 C75.37882324 328.57556641 75.75764648 329.15113281 76.14794922 329.74414062 C77.88478454 332.37229611 79.64189916 334.98309879 81.43359375 337.57421875 C84.12106217 341.73610874 84.49705905 345.11225268 84 350 C82.22396702 352.97551795 80.14489623 355.42755188 77 357 C71.67282593 357.60536069 69.14901859 356.29752065 65 353 C63.27734375 350.07421875 63.27734375 350.07421875 61.9375 346.6875 C61.57253418 345.78076538 61.57253418 345.78076538 61.20019531 344.85571289 C58.9207538 339.08078191 56.97065795 333.18835501 55.078125 327.27734375 C53.71509791 323.06811932 53.71509791 323.06811932 52 319 C50.35636866 318.27840576 48.68949614 317.60648579 47 317 C46.67 316.01 46.34 315.02 46 314 C44.88625 314.32613281 43.7725 314.65226562 42.625 314.98828125 C37.76724247 316.39163343 32.88876996 317.70934083 28 319 C26.76636719 319.33 25.53273438 319.66 24.26171875 320 C-0.18734745 325.55782051 -28.10360123 323.36497458 -51 313 C-51.28101563 313.62390625 -51.56203125 314.2478125 -51.8515625 314.890625 C-53 317 -53 317 -55.375 318.75 C-61.08859602 323.64736802 -62.45909082 330.4730232 -64.375 337.4375 C-68.50791788 352.32051242 -68.50791788 352.32051242 -75.00390625 356.1953125 C-77.92721239 357.37378817 -79.86906079 357.43833149 -83 357 C-85.92483867 355.17452064 -88.43429205 353.13141589 -90 350 C-90.82172795 343.28922175 -88.467812 339.45811012 -85 334 C-84.43410156 333.10796875 -83.86820312 332.2159375 -83.28515625 331.296875 C-82.69605469 330.37390625 -82.10695313 329.4509375 -81.5 328.5 C-80.33316813 326.66677181 -79.16649473 324.83344274 -78 323 C-77.48566406 322.21367187 -76.97132813 321.42734375 -76.44140625 320.6171875 C-73.53363479 315.88896989 -72.48259045 312.51623934 -72.921875 306.9453125 C-73 305 -73 305 -72 302 C-72.7115625 301.74992187 -73.423125 301.49984375 -74.15625 301.2421875 C-100.53607167 289.71913353 -118.89124464 259.70944031 -129.63671875 234.5 C-131 231 -131 231 -131 229 C-132.2684375 229.0309375 -132.2684375 229.0309375 -133.5625 229.0625 C-137 229 -137 229 -140.3125 228.3125 C-145.22199102 227.89644144 -148.45682065 229.24496359 -153 231 C-155.08209714 231.79787234 -157.16677763 232.58625668 -159.25830078 233.35913086 C-160.71752789 233.89835516 -162.17202038 234.45062932 -163.62060547 235.01782227 C-168.71428802 236.89965169 -173.56869456 237.78024351 -179 237 C-181.87029869 235.20606332 -183.49131638 234.01736724 -185 231 C-185.54720677 227.89087063 -185.64966084 225.09758286 -185 222 C-182.2816135 218.47265666 -179.19789057 216.39929686 -175 215 C-173.33429204 214.82000914 -171.66387037 214.68191934 -169.9921875 214.5703125 C-169.00476563 214.49683594 -168.01734375 214.42335938 -167 214.34765625 C-164.94053055 214.20091905 -162.88062592 214.06014952 -160.8203125 213.92578125 C-152.56996561 213.29524956 -144.660382 212.56604312 -139 206 C-138.34 206 -137.68 206 -137 206 C-137.01571045 205.03400879 -137.0314209 204.06801758 -137.04760742 203.07275391 C-137.59324115 166.25069202 -137.59324115 166.25069202 -134 153 C-133.81195801 152.2874707 -133.62391602 151.57494141 -133.43017578 150.84082031 C-130.40777694 139.81399366 -125.69714634 129.99115595 -120.171875 120.01171875 C-118.54704519 117.07436938 -117.13791933 114.16720881 -116 111 C-117.485 110.505 -117.485 110.505 -119 110 C-119.309375 108.700625 -119.309375 108.700625 -119.625 107.375 C-122.42156175 100.51071207 -129.50957055 97.23912704 -135.69238281 93.6574707 C-148.65076384 86.13964343 -148.65076384 86.13964343 -151 81 C-151.78565838 77.77935783 -151.8864663 75.20445586 -151 72 C-147.75524781 68.02517856 -146.20296822 67.23664949 -141.1875 66.25 C-134.86405659 66.68443504 -130.31730272 71.47852964 -126.2265625 75.9296875 C-125.10322957 77.24287952 -123.98218765 78.55803431 -122.86328125 79.875 C-117.06853197 86.48368681 -111.62986852 92.33037656 -102.51171875 93.296875 C-98.70527664 92.84696893 -97.35738274 91.13757813 -94.984375 88.26171875 C-77.25196764 68.05096311 -46.9471992 56.95968424 -21 53 C-18.66708941 52.95558587 -16.33266556 52.94418055 -14 53 C-14.04125 52.236875 -14.0825 51.47375 -14.125 50.6875 C-14 48 -14 48 -12 45 C-11.71019799 43.02093162 -11.71019799 43.02093162 -11.76953125 40.875 C-11.77146484 40.08609375 -11.77339844 39.2971875 -11.77539062 38.484375 C-11.78763672 37.66453125 -11.79988281 36.8446875 -11.8125 36 C-11.81314453 35.18015625 -11.81378906 34.3603125 -11.81445312 33.515625 C-11.84015217 30.02055551 -11.8841995 27.34740151 -13 24 C-13.20056689 21.21212018 -13.32284555 18.47776317 -13.375 15.6875 C-13.43107422 14.56698242 -13.43107422 14.56698242 -13.48828125 13.42382812 C-13.55331605 9.30857065 -13.24480532 6.77163273 -10.6015625 3.51953125 C-6.9682667 0.00079883 -5.04114278 -0.58167032 0 0 Z " fill="#FCFDFE" transform="translate(259,70)"/>
<path d="M0 0 C4.81545957 3.4145986 9.12265916 6.98502875 13.23046875 11.22265625 C15.65507307 13.65796523 18.23955971 15.88043882 20.83984375 18.125 C24.06424272 20.92375498 27.22713727 23.78941245 30.39453125 26.65234375 C32.19767045 28.27706138 34.00807284 29.89374093 35.82421875 31.50390625 C37.17966797 32.70853516 37.17966797 32.70853516 38.5625 33.9375 C39.38878906 34.66839844 40.21507812 35.39929688 41.06640625 36.15234375 C43.51259415 38.48981219 43.94925789 39.42915126 44.25 42.8125 C43.9578617 46.53726332 43.39752014 48.13844371 41 51 C34.8767341 54.08257435 28.36350357 55.60878827 21.75 57.3125 C12.66957628 59.69296052 3.68844196 62.23437223 -5.21191406 65.22192383 C-8.6929861 66.37137161 -11.29025743 67 -15 67 C-15.42100876 41.51925434 -15.42100876 41.51925434 -13 32 C-12.84934082 31.37496582 -12.69868164 30.74993164 -12.54345703 30.10595703 C-9.8541649 19.14986872 -5.69884173 9.71489893 0 0 Z " fill="#346DE5" transform="translate(164,201)"/>
<path d="M0 0 C-0.42482772 13.73955013 -0.99737303 27.46890035 -1.875 41.1875 C-1.94122559 42.36151367 -2.00745117 43.53552734 -2.07568359 44.74511719 C-2.48754363 50.78865823 -3.04792683 55.66384748 -6 61 C-8.24488727 62.78042784 -9.79361774 62.96888864 -12.6171875 63.39453125 C-17.56631872 62.81732311 -20.43842307 60.24316509 -24.3125 57.25 C-25.91328073 56.0523398 -27.51486307 54.85575039 -29.1171875 53.66015625 C-29.92768555 53.04930176 -30.73818359 52.43844727 -31.57324219 51.80908203 C-35.30774776 49.02510956 -39.1204288 46.35651496 -42.9375 43.6875 C-49.33882261 39.18799825 -55.69314562 34.63138334 -62 30 C-58.63116163 25.68738687 -55.18583356 22.27698098 -50.6875 19.125 C-50.08139893 18.69936768 -49.47529785 18.27373535 -48.85083008 17.83520508 C-34.84630037 8.26237547 -17.27617356 0 0 0 Z " fill="#346DE5" transform="translate(243,151)"/>
<path d="M0 0 C1.09565277 0.17756836 2.19130554 0.35513672 3.32015991 0.53808594 C6.78500523 1.10134564 10.24794258 1.67548505 13.7109375 2.25 C16.07410069 2.63613989 18.43738101 3.02156368 20.80078125 3.40625 C26.56388006 4.34589185 32.3254564 5.29444857 38.0859375 6.25 C33.69004875 25.82753871 18.44936508 44.00835815 3.0234375 56.125 C2.4754248 56.56013916 1.92741211 56.99527832 1.36279297 57.44360352 C-0.19921875 58.6171875 -0.19921875 58.6171875 -2.9140625 60.25 C-5.9140625 59.25 -5.9140625 59.25 -6.9894104 57.40359497 C-7.31726532 56.59767914 -7.64512024 55.79176331 -7.98291016 54.96142578 C-8.35985016 54.0502298 -8.73679016 53.13903381 -9.12515259 52.20022583 C-9.52213348 51.20860443 -9.91911438 50.21698303 -10.328125 49.1953125 C-10.74323334 48.1828244 -11.15834167 47.1703363 -11.58602905 46.12716675 C-12.91409004 42.88056972 -14.22657364 39.6279192 -15.5390625 36.375 C-16.4313022 34.18839807 -17.32451917 32.00219464 -18.21875 29.81640625 C-19.85304728 25.81242221 -21.48417101 21.80722323 -23.10400391 17.79736328 C-23.43026764 16.98985626 -23.75653137 16.18234924 -24.09268188 15.35037231 C-25.81970994 10.93414693 -26.55115109 6.97586613 -25.9140625 2.25 C-21.54410178 -5.69538313 -7.30805363 -1.22720212 0 0 Z " fill="#336DE5" transform="translate(318.9140625,286.75)"/>
<path d="M0 0 C3 1 3 1 4.10327148 2.60375977 C5.23096967 4.91677179 6.35313613 7.228731 7.4375 9.5625 C7.83710938 10.41497314 8.23671875 11.26744629 8.6484375 12.14575195 C14.98408344 26.11922681 17.19270306 40.23619489 17.0625 55.5 C17.05798828 56.51320313 17.05347656 57.52640625 17.04882812 58.5703125 C17.03714593 61.04693827 17.02076582 63.52343657 17 66 C10.9515232 64.88319224 5.15663796 63.54251235 -0.6875 61.625 C-5.9906204 59.91449918 -11.29593059 58.34666019 -16.6875 56.9375 C-21.53119166 55.6598737 -26.37216696 54.38118369 -31.1875 53 C-32.72470703 52.566875 -32.72470703 52.566875 -34.29296875 52.125 C-37.96215013 50.6001454 -40.22130327 48.55739346 -42 45 C-42.49501375 40.66862971 -42.52510434 38.70271316 -39.875 35.15625 C-38.451875 33.84140625 -38.451875 33.84140625 -37 32.5 C-36.49670166 32.02643066 -35.99340332 31.55286133 -35.47485352 31.06494141 C-34.00209219 29.68948878 -32.50152451 28.34399405 -31 27 C-30.28714844 26.35804688 -29.57429688 25.71609375 -28.83984375 25.0546875 C-27.57510946 23.93798166 -26.30164097 22.831088 -25.01953125 21.734375 C-22.68881866 19.73275723 -20.40627892 17.68276325 -18.125 15.625 C-17.29097656 14.87347656 -16.45695312 14.12195313 -15.59765625 13.34765625 C-13.81130646 11.73322584 -12.0275964 10.11587133 -10.24609375 8.49609375 C-9.36050781 7.69300781 -8.47492188 6.88992187 -7.5625 6.0625 C-6.75941406 5.33160156 -5.95632813 4.60070312 -5.12890625 3.84765625 C-3 2 -3 2 0 0 Z " fill="#346DE5" transform="translate(346,202)"/>
<path d="M0 0 C3.4529963 1.28736399 4.78315803 2.75719917 6.55859375 5.9453125 C7.02088379 6.76386719 7.48317383 7.58242188 7.95947266 8.42578125 C8.69109619 9.76189453 8.69109619 9.76189453 9.4375 11.125 C9.95103027 12.04410156 10.46456055 12.96320313 10.99365234 13.91015625 C12.67591864 16.93285963 14.33938236 19.96535443 16 23 C16.59216309 24.07604492 17.18432617 25.15208984 17.79443359 26.26074219 C19.57749782 29.50381343 21.35348576 32.75060642 23.125 36 C23.6811499 37.01980957 24.2372998 38.03961914 24.81030273 39.09033203 C25.58869507 40.53061768 25.58869507 40.53061768 26.3828125 42 C26.84059082 42.845625 27.29836914 43.69125 27.77001953 44.5625 C28.99858199 46.99718987 30.0264479 49.45387426 31 52 C21.26265255 57.46151071 9.22844195 57.45682769 -1.625 57.3125 C-2.84445312 57.31572266 -4.06390625 57.31894531 -5.3203125 57.32226562 C-16.42815171 57.2569952 -26.56533665 55.82604323 -37 52 C-35.67108972 48.52450785 -34.15371762 45.27128126 -32.3828125 42 C-31.86380371 41.03980957 -31.34479492 40.07961914 -30.81005859 39.09033203 C-30.25398926 38.07052246 -29.69791992 37.05071289 -29.125 36 C-28.55217285 34.94796387 -27.9793457 33.89592773 -27.38916016 32.81201172 C-23.42646567 25.55957415 -19.43297142 18.324586 -15.375 11.125 C-14.87887207 10.23425781 -14.38274414 9.34351563 -13.87158203 8.42578125 C-13.40606934 7.60722656 -12.94055664 6.78867187 -12.4609375 5.9453125 C-11.85451416 4.87047607 -11.85451416 4.87047607 -11.23583984 3.77392578 C-8.20166745 -0.58132839 -4.89420561 -0.34345303 0 0 Z " fill="#346DE5" transform="translate(259,307)"/>
<path d="M0 0 C7.17011742 0.42780901 13.53047318 1.78930476 20.3125 4.125 C21.68607666 4.59305054 21.68607666 4.59305054 23.08740234 5.07055664 C37.90833455 10.27709862 50.290747 18.59177511 62 29 C58.17929815 33.27081193 53.50238549 36.2746799 48.8125 39.5 C47.01535021 40.74569741 45.21848029 41.99179866 43.421875 43.23828125 C42.51759766 43.86428223 41.61332031 44.4902832 40.68164062 45.13525391 C35.91887507 48.44716244 31.19312332 51.8115964 26.4699707 55.1796875 C15.65524402 62.85058267 15.65524402 62.85058267 8 62 C5.56880377 60.12984906 4.35930827 58.71861655 3 56 C2.82545616 54.50243773 2.70434064 52.99846513 2.61108398 51.49365234 C2.55109726 50.55862885 2.49111053 49.62360535 2.42930603 48.6602478 C2.33861595 47.1384642 2.33861595 47.1384642 2.24609375 45.5859375 C2.18092056 44.54233063 2.11574738 43.49872375 2.04859924 42.42349243 C1.91126659 40.20937651 1.77606903 37.99512729 1.64282227 35.78076172 C1.4395793 32.40949017 1.22914542 29.03872701 1.01757812 25.66796875 C0.88498615 23.51565148 0.75281149 21.36330845 0.62109375 19.2109375 C0.55860947 18.20856049 0.49612518 17.20618347 0.43174744 16.1734314 C0.10982895 10.77020912 -0.06368422 5.41275821 0 0 Z " fill="#346DE5" transform="translate(269,151)"/>
<path d="M0 0 C2.8181718 4.31532557 2.94891036 7.05919525 2 12.0625 C1.19914482 13.99067139 0.32757978 15.89011227 -0.58984375 17.765625 C-3.08814586 23.03020934 -5.3940125 28.332184 -7.578125 33.734375 C-7.87897507 34.47562622 -8.17982513 35.21687744 -8.48979187 35.98059082 C-9.73085588 39.04323617 -10.96736423 42.10765883 -12.19726562 45.17480469 C-13.10996577 47.44710682 -14.0309282 49.7159138 -14.953125 51.984375 C-15.23021301 52.6821405 -15.50730103 53.37990601 -15.79278564 54.09881592 C-17.77318689 58.94909345 -17.77318689 58.94909345 -20 60.0625 C-36.47683321 49.13297737 -48.12167396 35.27631243 -57.5625 18 C-57.90966064 17.36852051 -58.25682129 16.73704102 -58.61450195 16.08642578 C-60.38211423 12.72710109 -61 10.95307509 -61 7.0625 C-49.55694382 4.21762909 -38.01583332 2.15123156 -26.375 0.3125 C-25.67568359 0.19999908 -24.97636719 0.08749817 -24.25585938 -0.02841187 C-4.85375242 -3.1347151 -4.85375242 -3.1347151 0 0 Z " fill="#336DE5" transform="translate(217,286.9375)"/>
<path d="M0 0 C4.65441311 0.87194818 6.99965998 2.85669831 10.015625 6.55078125 C12.28267542 10.33067746 13.90202848 13.34513342 13.578125 17.80078125 C13.20033303 19.24898379 12.78277336 20.68733867 12.328125 22.11328125 C12.225 22.88671875 12.121875 23.66015625 12.015625 24.45703125 C11.5051068 27.1919502 10.94134393 28.83002166 9.328125 31.11328125 C4.72225768 34.16945326 -0.55650896 37.36498003 -6.234375 36.90625 C-11.21863725 35.28476725 -15.614424 33.50515669 -19.671875 30.11328125 C-22.20173364 25.06754109 -22.57153164 20.05325284 -22.859375 14.48828125 C-18.72404558 2.73523974 -12.11590341 -1.13886462 0 0 Z " fill="#356EE5" transform="translate(260.671875,238.88671875)"/>
</svg>
