<?xml version="1.0" encoding="UTF-8"?>
<svg id="Layer_1" data-name="Layer 1" xmlns="http://www.w3.org/2000/svg" viewBox="0 0 765.54 184.15">
  <defs>
    <style>
      .cls-1 {
        fill: #fff;
      }
    </style>
  </defs>
  <g>
    <path class="cls-1" d="M106.41,137.21c-.1,0-.21,0-.31,0-2.24-.13-4.15-1.68-4.74-3.85l-16.95-62.14-8.68,28.98c-.66,2.22-2.7,3.73-5.02,3.73h-32.5c-2.89,0-5.24-2.34-5.24-5.24s2.34-5.24,5.24-5.24h28.6l12.81-42.79c.67-2.22,2.7-3.73,5.02-3.73.02,0,.04,0,.07,0,2.34.03,4.37,1.6,4.99,3.86l17.68,64.84,7.66-18.91c.8-1.98,2.72-3.27,4.85-3.27h26.04c2.89,0,5.24,2.34,5.24,5.24s-2.34,5.24-5.24,5.24h-22.51l-12.16,30.01c-.81,1.98-2.73,3.27-4.85,3.27Z"/>
    <path class="cls-1" d="M92.07,184.15C41.3,184.15,0,142.84,0,92.07S41.3,0,92.07,0s92.08,41.3,92.08,92.07-41.31,92.07-92.08,92.07ZM92.07,10.47C47.08,10.47,10.47,47.08,10.47,92.07s36.6,81.6,81.6,81.6,81.6-36.6,81.6-81.6S137.07,10.47,92.07,10.47Z"/>
  </g>
  <g>
    <path class="cls-1" d="M228.32,74.89l21.85-63.96h17.17l22.41,63.96h-14.55l-10.26-30.86c-1.23-3.98-2.48-8.33-3.76-13.07-1.27-4.74-2.61-9.91-4.01-15.52h2.88c-1.37,5.64-2.65,10.84-3.84,15.6-1.19,4.76-2.37,9.09-3.54,12.99l-9.87,30.86h-14.47ZM241.97,60.04v-10.26h34.13v10.26h-34.13Z"/>
    <path class="cls-1" d="M297.64,74.89V10.93h24.94c4.86,0,9,.92,12.41,2.77,3.4,1.85,6,4.39,7.79,7.64,1.79,3.25,2.68,6.98,2.68,11.18s-.91,7.96-2.73,11.18c-1.82,3.22-4.45,5.74-7.9,7.55-3.45,1.82-7.63,2.73-12.56,2.73h-16.05v-10.56h13.95c2.69,0,4.9-.46,6.63-1.39,1.73-.93,3.02-2.21,3.86-3.84.84-1.63,1.27-3.52,1.27-5.67s-.42-4.03-1.27-5.64c-.84-1.62-2.14-2.88-3.88-3.78-1.75-.9-3.96-1.35-6.65-1.35h-9.4v53.14h-13.09Z"/>
    <path class="cls-1" d="M367.7,10.93v63.96h-13.09V10.93h13.09Z"/>
    <path class="cls-1" d="M401.39,74.89V10.93h14.42l13.95,36.7c.4,1.09.85,2.46,1.35,4.12.5,1.66,1.02,3.46,1.57,5.41.54,1.95,1.06,3.86,1.55,5.75.49,1.89.92,3.59,1.29,5.11h-2.06c.37-1.43.8-3.08,1.29-4.96.49-1.87,1-3.78,1.55-5.73.54-1.95,1.07-3.78,1.59-5.49.52-1.72.97-3.12,1.37-4.21l13.74-36.7h14.51v63.96h-9.74v-34.43c0-1.32.01-2.89.04-4.72.03-1.83.06-3.77.11-5.82.04-2.05.09-4.11.13-6.2.04-2.09.08-4.09.11-6.01h.73c-.57,2.09-1.2,4.24-1.87,6.46-.67,2.22-1.33,4.36-1.97,6.42-.64,2.06-1.26,3.94-1.85,5.64-.59,1.7-1.08,3.11-1.48,4.23l-13.09,34.43h-8.37l-13.26-34.43c-.43-1.09-.92-2.47-1.48-4.14-.56-1.67-1.17-3.53-1.82-5.58-.66-2.04-1.33-4.18-2.02-6.4-.69-2.22-1.37-4.43-2.06-6.63h.86c.06,1.75.11,3.64.15,5.69.04,2.05.09,4.11.13,6.2.04,2.09.09,4.07.13,5.94.04,1.87.06,3.51.06,4.92v34.43h-9.53Z"/>
    <path class="cls-1" d="M494.33,75.97c-3.03,0-5.78-.57-8.24-1.7-2.46-1.13-4.41-2.78-5.84-4.96-1.43-2.17-2.15-4.84-2.15-7.98,0-2.72.52-4.95,1.57-6.7,1.04-1.75,2.46-3.13,4.25-4.16,1.79-1.03,3.78-1.8,5.97-2.32,2.19-.51,4.41-.9,6.68-1.16,2.83-.34,5.14-.62,6.91-.84,1.77-.21,3.08-.57,3.93-1.07.84-.5,1.27-1.31,1.27-2.43v-.26c0-1.8-.34-3.32-1.03-4.55-.69-1.23-1.71-2.18-3.07-2.85-1.36-.67-3.05-1.01-5.09-1.01s-3.88.32-5.39.97c-1.5.64-2.72,1.47-3.65,2.47-.93,1-1.62,2.05-2.08,3.13l-8.89-2.32c1.09-2.86,2.65-5.17,4.68-6.91,2.03-1.74,4.36-3.02,7-3.82,2.63-.8,5.35-1.2,8.16-1.2,1.95,0,4.01.23,6.18.69s4.22,1.29,6.14,2.49c1.92,1.2,3.48,2.89,4.68,5.07,1.2,2.18,1.8,5.01,1.8,8.5v31.85h-9.14v-6.57h-.47c-.63,1.23-1.56,2.43-2.79,3.61-1.23,1.17-2.78,2.14-4.66,2.9-1.87.76-4.11,1.14-6.72,1.14ZM496.43,68.37c2.58,0,4.78-.5,6.61-1.5,1.83-1,3.23-2.33,4.21-3.99.97-1.66,1.46-3.42,1.46-5.28v-6.14c-.34.34-.99.65-1.95.92-.96.27-2.05.52-3.28.73-1.23.22-2.42.39-3.56.54-1.14.14-2.09.26-2.83.34-1.78.23-3.4.62-4.87,1.16-1.47.54-2.65,1.32-3.52,2.32-.87,1-1.31,2.33-1.31,3.99,0,1.52.39,2.79,1.18,3.82.79,1.03,1.85,1.8,3.2,2.32,1.34.52,2.9.77,4.68.77Z"/>
    <path class="cls-1" d="M540.26,46.48v28.42h-9.44V26.9h9.01l.09,11.76h-.99c1.4-4.29,3.43-7.43,6.1-9.4,2.66-1.97,5.88-2.96,9.66-2.96,3.26,0,6.11.69,8.54,2.06,2.43,1.37,4.34,3.4,5.71,6.07,1.37,2.68,2.06,6,2.06,9.98v30.48h-9.44v-29.32c0-3.46-.9-6.17-2.7-8.11-1.8-1.95-4.28-2.92-7.43-2.92-2.12,0-4.02.47-5.71,1.4-1.69.93-3.02,2.28-3.99,4.06-.97,1.78-1.46,3.94-1.46,6.48Z"/>
    <path class="cls-1" d="M597.14,75.97c-3.03,0-5.78-.57-8.24-1.7-2.46-1.13-4.41-2.78-5.84-4.96-1.43-2.17-2.15-4.84-2.15-7.98,0-2.72.52-4.95,1.57-6.7,1.04-1.75,2.46-3.13,4.25-4.16,1.79-1.03,3.78-1.8,5.97-2.32,2.19-.51,4.41-.9,6.68-1.16,2.83-.34,5.14-.62,6.91-.84,1.77-.21,3.08-.57,3.93-1.07.84-.5,1.27-1.31,1.27-2.43v-.26c0-1.8-.34-3.32-1.03-4.55-.69-1.23-1.71-2.18-3.07-2.85-1.36-.67-3.05-1.01-5.09-1.01s-3.88.32-5.39.97c-1.5.64-2.72,1.47-3.65,2.47-.93,1-1.62,2.05-2.08,3.13l-8.89-2.32c1.09-2.86,2.65-5.17,4.68-6.91,2.03-1.74,4.36-3.02,7-3.82,2.63-.8,5.35-1.2,8.16-1.2,1.95,0,4.01.23,6.18.69s4.22,1.29,6.14,2.49c1.92,1.2,3.48,2.89,4.68,5.07,1.2,2.18,1.8,5.01,1.8,8.5v31.85h-9.14v-6.57h-.47c-.63,1.23-1.56,2.43-2.79,3.61-1.23,1.17-2.78,2.14-4.66,2.9-1.87.76-4.11,1.14-6.72,1.14ZM599.24,68.37c2.58,0,4.78-.5,6.61-1.5,1.83-1,3.23-2.33,4.21-3.99.97-1.66,1.46-3.42,1.46-5.28v-6.14c-.34.34-.99.65-1.95.92-.96.27-2.05.52-3.28.73-1.23.22-2.42.39-3.56.54-1.14.14-2.09.26-2.83.34-1.78.23-3.4.62-4.87,1.16-1.47.54-2.65,1.32-3.52,2.32-.87,1-1.31,2.33-1.31,3.99,0,1.52.39,2.79,1.18,3.82.79,1.03,1.85,1.8,3.2,2.32,1.34.52,2.9.77,4.68.77Z"/>
    <path class="cls-1" d="M653.67,93.87c-3.69,0-6.9-.47-9.62-1.42-2.72-.94-4.96-2.2-6.72-3.78-1.76-1.57-3.1-3.32-4.01-5.24l7.9-3.73c.57.92,1.34,1.88,2.3,2.9s2.25,1.88,3.89,2.6c1.63.71,3.72,1.07,6.27,1.07,3.66,0,6.63-.87,8.91-2.6s3.41-4.44,3.41-8.13v-9.36h-.82c-.57,1.06-1.37,2.2-2.38,3.43-1.02,1.23-2.43,2.3-4.25,3.2-1.82.9-4.19,1.35-7.1,1.35-3.78,0-7.18-.89-10.19-2.66-3.02-1.77-5.42-4.41-7.19-7.9-1.77-3.49-2.66-7.78-2.66-12.88s.88-9.46,2.64-13.11c1.76-3.65,4.16-6.45,7.21-8.39s6.49-2.92,10.32-2.92c2.95,0,5.34.49,7.19,1.46s3.29,2.12,4.34,3.46c1.04,1.33,1.84,2.5,2.38,3.5h.69v-7.81h9.23v48.68c0,4.21-.95,7.66-2.85,10.37-1.9,2.7-4.49,4.7-7.77,5.99-3.28,1.29-6.98,1.93-11.1,1.93ZM653.63,66.31c2.69,0,4.96-.62,6.8-1.87s3.24-3.05,4.19-5.41c.94-2.36,1.42-5.17,1.42-8.43s-.47-6.07-1.42-8.5-2.34-4.34-4.19-5.71c-1.85-1.37-4.11-2.06-6.8-2.06s-5.09.72-6.95,2.17c-1.86,1.45-3.26,3.39-4.21,5.84s-1.42,5.2-1.42,8.26.47,5.86,1.42,8.22c.94,2.36,2.35,4.2,4.23,5.52,1.87,1.32,4.18,1.98,6.93,1.98Z"/>
    <path class="cls-1" d="M708.79,75.88c-4.72,0-8.8-1.02-12.23-3.05-3.43-2.03-6.07-4.89-7.92-8.58-1.85-3.69-2.77-8.03-2.77-13.01s.91-9.26,2.73-13.01c1.82-3.75,4.39-6.67,7.71-8.78,3.32-2.1,7.21-3.15,11.68-3.15,2.75,0,5.39.45,7.94,1.35,2.55.9,4.84,2.31,6.87,4.23,2.03,1.92,3.64,4.4,4.83,7.45,1.19,3.05,1.78,6.75,1.78,11.1v3.35h-38.25v-7.04h33.4l-4.42,2.32c0-2.95-.46-5.54-1.37-7.79-.92-2.25-2.27-4-4.06-5.26-1.79-1.26-4.03-1.89-6.72-1.89s-4.94.64-6.83,1.93c-1.89,1.29-3.33,2.98-4.31,5.09-.99,2.1-1.48,4.4-1.48,6.89v4.81c0,3.29.56,6.07,1.7,8.35s2.71,3.99,4.74,5.15c2.03,1.16,4.39,1.74,7.08,1.74,1.77,0,3.38-.25,4.81-.75,1.43-.5,2.67-1.26,3.71-2.27,1.04-1.02,1.84-2.27,2.38-3.76l8.89,2.1c-.77,2.46-2.07,4.64-3.88,6.52-1.82,1.89-4.08,3.36-6.78,4.4s-5.77,1.57-9.21,1.57Z"/>
    <path class="cls-1" d="M739.74,74.89V26.9h9.14v7.73h.52c.89-2.63,2.43-4.69,4.64-6.18s4.71-2.23,7.51-2.23c.6,0,1.29.02,2.06.06.77.04,1.42.11,1.93.19v9.01c-.34-.11-1-.23-1.97-.34-.97-.11-1.96-.17-2.96-.17-2.18,0-4.14.46-5.88,1.37-1.75.92-3.11,2.18-4.08,3.8-.97,1.62-1.46,3.48-1.46,5.6v29.15h-9.44Z"/>
  </g>
  <g>
    <path class="cls-1" d="M228.32,182.55l22.32-62.74h11.79l22.74,62.74h-10.4l-12.21-34.91c-.95-2.83-2-6.17-3.14-10.02-1.14-3.84-2.45-8.46-3.94-13.85h1.94c-1.43,5.45-2.72,10.11-3.85,14-1.14,3.89-2.14,7.18-3.01,9.87l-11.83,34.91h-10.4ZM240.4,166v-8h32.63v8h-32.63Z"/>
    <path class="cls-1" d="M310.38,183.48c-3.82,0-7.21-.98-10.19-2.93-2.98-1.95-5.31-4.74-6.99-8.38-1.68-3.63-2.53-7.98-2.53-13.03s.86-9.47,2.57-13.09c1.71-3.62,4.06-6.39,7.03-8.29,2.98-1.91,6.34-2.86,10.11-2.86,2.92,0,5.27.48,7.05,1.45,1.78.97,3.18,2.1,4.19,3.39,1.01,1.29,1.78,2.43,2.32,3.41h.51v-23.33h9.26v62.74h-9.01v-7.37h-.76c-.53,1.01-1.32,2.16-2.36,3.45-1.04,1.29-2.46,2.42-4.25,3.39-1.8.97-4.11,1.45-6.95,1.45ZM312.4,175.6c2.64,0,4.86-.7,6.67-2.11,1.81-1.4,3.19-3.35,4.13-5.83.94-2.48,1.41-5.35,1.41-8.61s-.46-6.14-1.39-8.57-2.29-4.32-4.11-5.68-4.05-2.04-6.72-2.04-4.99.72-6.8,2.15-3.17,3.38-4.08,5.83c-.91,2.46-1.37,5.23-1.37,8.32s.46,5.92,1.39,8.42c.93,2.5,2.3,4.48,4.13,5.94,1.82,1.46,4.07,2.19,6.74,2.19Z"/>
    <path class="cls-1" d="M346.17,182.55v-47.08h8.8l.25,10.91h-.72c.67-2.67,1.71-4.86,3.12-6.57,1.4-1.71,3.05-3,4.93-3.85,1.88-.86,3.85-1.28,5.9-1.28,3.42,0,6.19,1.06,8.29,3.18s3.52,5.07,4.25,8.86h-1.18c.62-2.58,1.68-4.77,3.2-6.57,1.52-1.8,3.35-3.16,5.49-4.08,2.15-.93,4.44-1.39,6.88-1.39,2.78,0,5.3.6,7.56,1.81,2.26,1.21,4.05,3,5.37,5.39,1.32,2.39,1.98,5.36,1.98,8.93v31.75h-9.26v-30.82c0-3.14-.88-5.42-2.63-6.82-1.75-1.4-3.83-2.11-6.21-2.11-1.94,0-3.61.41-5.01,1.22-1.4.81-2.48,1.94-3.24,3.39-.76,1.45-1.14,3.11-1.14,4.99v30.15h-9.14v-31.41c0-2.53-.81-4.55-2.42-6.06-1.61-1.52-3.67-2.27-6.17-2.27-1.71,0-3.31.4-4.78,1.2-1.47.8-2.65,1.98-3.54,3.54-.88,1.56-1.33,3.47-1.33,5.75v29.26h-9.26Z"/>
    <path class="cls-1" d="M427.44,128.27c-1.6,0-2.97-.54-4.1-1.62-1.14-1.08-1.71-2.37-1.71-3.85s.57-2.85,1.71-3.92c1.14-1.07,2.51-1.6,4.1-1.6s2.98.53,4.13,1.6c1.15,1.07,1.73,2.37,1.73,3.92s-.58,2.81-1.73,3.87c-1.15,1.07-2.53,1.6-4.13,1.6ZM422.76,182.55v-47.08h9.26v47.08h-9.26Z"/>
    <path class="cls-1" d="M453.75,154.68v27.87h-9.26v-47.08h8.84l.08,11.54h-.97c1.38-4.21,3.37-7.28,5.98-9.22,2.61-1.94,5.77-2.91,9.47-2.91,3.2,0,5.99.67,8.38,2.02,2.39,1.35,4.25,3.33,5.6,5.96,1.35,2.63,2.02,5.89,2.02,9.79v29.9h-9.26v-28.76c0-3.4-.88-6.05-2.65-7.96-1.77-1.91-4.2-2.86-7.28-2.86-2.08,0-3.94.46-5.6,1.37-1.66.91-2.96,2.24-3.92,3.98-.95,1.74-1.43,3.86-1.43,6.36Z"/>
    <path class="cls-1" d="M520.07,182.55v-62.74h22.48c4.83,0,8.86.9,12.08,2.7,3.23,1.8,5.64,4.22,7.24,7.28,1.6,3.06,2.4,6.53,2.4,10.4s-.81,7.35-2.42,10.42c-1.61,3.07-4.04,5.5-7.26,7.28-3.23,1.78-7.27,2.67-12.13,2.67h-15.37v-8.13h14.44c3.09,0,5.59-.53,7.49-1.6,1.91-1.07,3.31-2.53,4.19-4.38.88-1.85,1.33-3.94,1.33-6.27s-.44-4.46-1.33-6.29c-.88-1.84-2.29-3.28-4.21-4.32-1.92-1.04-4.44-1.56-7.56-1.56h-11.79v54.53h-9.6Z"/>
    <path class="cls-1" d="M593.92,183.52c-4.41,0-8.26-1.01-11.56-3.03-3.3-2.02-5.86-4.86-7.68-8.5-1.83-3.65-2.74-7.89-2.74-12.72s.91-9.16,2.74-12.82c1.82-3.66,4.39-6.5,7.68-8.53,3.3-2.02,7.15-3.03,11.56-3.03s8.3,1.01,11.6,3.03c3.3,2.02,5.86,4.86,7.68,8.53,1.82,3.66,2.74,7.94,2.74,12.82s-.91,9.07-2.74,12.72-4.39,6.48-7.68,8.5c-3.3,2.02-7.17,3.03-11.6,3.03ZM593.92,175.69c2.86,0,5.23-.75,7.1-2.25,1.87-1.5,3.26-3.49,4.17-5.98.91-2.48,1.37-5.21,1.37-8.19s-.46-5.76-1.37-8.27c-.91-2.51-2.3-4.52-4.17-6.02-1.87-1.5-4.23-2.25-7.1-2.25s-5.18.75-7.03,2.25c-1.85,1.5-3.24,3.5-4.15,6-.91,2.5-1.37,5.26-1.37,8.29s.46,5.71,1.37,8.19c.91,2.48,2.29,4.48,4.15,5.98,1.85,1.5,4.2,2.25,7.03,2.25Z"/>
    <path class="cls-1" d="M626.22,182.55v-47.08h8.97v7.58h.51c.87-2.58,2.39-4.6,4.55-6.06s4.62-2.19,7.37-2.19c.59,0,1.26.02,2.02.06.76.04,1.39.11,1.9.19v8.84c-.34-.11-.98-.22-1.94-.34-.95-.11-1.92-.17-2.91-.17-2.13,0-4.06.45-5.77,1.35-1.71.9-3.05,2.14-4,3.73-.95,1.59-1.43,3.42-1.43,5.5v28.59h-9.26Z"/>
    <path class="cls-1" d="M681.17,135.48v7.54h-25.52v-7.54h25.52ZM662.52,124.27h9.26v45.56c0,1.88.4,3.26,1.2,4.15.8.88,2.11,1.33,3.94,1.33.48,0,1.11-.06,1.89-.17.79-.11,1.46-.22,2.02-.34l1.64,7.41c-.98.34-2.04.58-3.16.74-1.12.15-2.23.23-3.33.23-4.27,0-7.58-1.1-9.94-3.31-2.36-2.2-3.54-5.3-3.54-9.28v-46.32Z"/>
    <path class="cls-1" d="M703.99,183.6c-2.98,0-5.67-.55-8.08-1.66-2.41-1.11-4.32-2.73-5.73-4.86-1.4-2.13-2.11-4.74-2.11-7.83,0-2.67.51-4.86,1.54-6.57,1.02-1.71,2.41-3.07,4.17-4.08,1.75-1.01,3.71-1.77,5.85-2.27,2.15-.5,4.33-.88,6.55-1.14,2.78-.34,5.04-.61,6.78-.82,1.74-.21,3.02-.56,3.85-1.05.83-.49,1.24-1.28,1.24-2.38v-.25c0-1.77-.34-3.26-1.01-4.46-.67-1.21-1.68-2.14-3.01-2.8-1.33-.66-3-.99-4.99-.99s-3.81.32-5.28.95c-1.47.63-2.67,1.44-3.58,2.42-.91.98-1.59,2.01-2.04,3.07l-8.72-2.27c1.07-2.81,2.6-5.07,4.59-6.78,1.99-1.71,4.28-2.96,6.86-3.75,2.58-.79,5.25-1.18,8-1.18,1.91,0,3.93.22,6.06.67s4.14,1.26,6.02,2.44c1.88,1.18,3.41,2.84,4.59,4.97,1.18,2.13,1.77,4.91,1.77,8.34v31.24h-8.97v-6.44h-.46c-.62,1.21-1.53,2.39-2.74,3.54-1.21,1.15-2.73,2.1-4.57,2.84-1.84.74-4.04,1.12-6.59,1.12ZM706.05,176.15c2.53,0,4.69-.49,6.48-1.47,1.8-.98,3.17-2.29,4.13-3.92.95-1.63,1.43-3.35,1.43-5.18v-6.02c-.34.34-.98.64-1.92.91-.94.27-2.01.51-3.22.72-1.21.21-2.37.39-3.49.53-1.12.14-2.05.25-2.78.34-1.74.23-3.33.6-4.78,1.14-1.45.53-2.6,1.29-3.45,2.27-.86.98-1.28,2.29-1.28,3.92,0,1.49.39,2.74,1.16,3.75.77,1.01,1.82,1.77,3.14,2.27,1.32.51,2.85.76,4.59.76Z"/>
    <path class="cls-1" d="M749.04,119.81v62.74h-9.26v-62.74h9.26Z"/>
  </g>
</svg>