<?xml version="1.0" encoding="UTF-8"?>
<svg id="Layer_1" data-name="Layer 1" xmlns="http://www.w3.org/2000/svg" viewBox="0 0 881.86 184.15">
  <defs>
    <style>
      .cls-1 {
        fill: #fff;
      }
    </style>
  </defs>
  <g>
    <path class="cls-1" d="M106.41,137.21c-.1,0-.21,0-.31,0-2.24-.13-4.15-1.68-4.74-3.85l-16.95-62.14-8.68,28.98c-.66,2.22-2.7,3.73-5.02,3.73h-32.5c-2.89,0-5.24-2.34-5.24-5.24s2.34-5.24,5.24-5.24h28.6l12.81-42.79c.67-2.22,2.7-3.73,5.02-3.73.02,0,.04,0,.07,0,2.34.03,4.37,1.6,4.99,3.86l17.68,64.84,7.66-18.91c.8-1.98,2.72-3.27,4.85-3.27h26.04c2.89,0,5.24,2.34,5.24,5.24s-2.34,5.24-5.24,5.24h-22.51l-12.16,30.01c-.81,1.98-2.73,3.27-4.85,3.27Z"/>
    <path class="cls-1" d="M92.07,184.15C41.3,184.15,0,142.84,0,92.07S41.3,0,92.07,0s92.08,41.3,92.08,92.07-41.31,92.07-92.08,92.07ZM92.07,10.47C47.08,10.47,10.47,47.08,10.47,92.07s36.6,81.6,81.6,81.6,81.6-36.6,81.6-81.6S137.07,10.47,92.07,10.47Z"/>
  </g>
  <g>
    <path class="cls-1" d="M228.31,73.67l21.43-62.74h16.84l21.98,62.74h-14.27l-10.06-30.27c-1.21-3.9-2.44-8.17-3.68-12.82-1.25-4.65-2.56-9.72-3.94-15.22h2.82c-1.35,5.53-2.6,10.63-3.77,15.31s-2.32,8.92-3.47,12.74l-9.68,30.27h-14.19ZM241.7,59.1v-10.06h33.47v10.06h-33.47Z"/>
    <path class="cls-1" d="M296.32,73.67V10.93h24.46c4.77,0,8.83.91,12.17,2.72s5.89,4.31,7.64,7.5c1.75,3.19,2.63,6.84,2.63,10.97s-.89,7.81-2.67,10.97c-1.78,3.16-4.37,5.63-7.75,7.41-3.38,1.78-7.49,2.67-12.32,2.67h-15.75v-10.36h13.68c2.64,0,4.81-.46,6.51-1.37,1.7-.91,2.96-2.17,3.79-3.77.83-1.6,1.24-3.45,1.24-5.56s-.41-3.95-1.24-5.54-2.1-2.82-3.81-3.71c-1.71-.88-3.89-1.33-6.53-1.33h-9.22v52.13h-12.84Z"/>
    <path class="cls-1" d="M365.03,10.93v62.74h-12.84V10.93h12.84Z"/>
    <path class="cls-1" d="M398.09,73.67V10.93h14.15l13.68,36c.39,1.07.83,2.41,1.33,4.04.49,1.63,1,3.4,1.54,5.31s1.04,3.79,1.52,5.64c.48,1.85.9,3.52,1.26,5.01h-2.02c.37-1.4.79-3.02,1.26-4.86.48-1.84.98-3.71,1.52-5.62.53-1.91,1.05-3.71,1.56-5.39.5-1.68.95-3.06,1.35-4.13l13.47-36h14.23v62.74h-9.56v-33.77c0-1.29.01-2.83.04-4.63.03-1.8.06-3.7.1-5.71.04-2.01.08-4.04.13-6.08s.08-4.01.11-5.9h.72c-.56,2.05-1.17,4.16-1.83,6.34-.66,2.17-1.31,4.27-1.94,6.29-.63,2.02-1.24,3.87-1.81,5.54-.58,1.67-1.06,3.05-1.45,4.15l-12.84,33.77h-8.21l-13.01-33.77c-.42-1.07-.91-2.42-1.45-4.06-.55-1.64-1.14-3.47-1.79-5.47-.65-2.01-1.31-4.1-1.98-6.27-.67-2.17-1.35-4.34-2.02-6.51h.84c.06,1.71.11,3.57.15,5.58.04,2.01.08,4.04.13,6.08s.08,3.99.13,5.83c.04,1.84.06,3.45.06,4.82v33.77h-9.35Z"/>
    <path class="cls-1" d="M489.25,74.73c-2.98,0-5.67-.55-8.08-1.66s-4.32-2.73-5.73-4.86c-1.4-2.13-2.11-4.74-2.11-7.83,0-2.67.51-4.86,1.54-6.57,1.02-1.71,2.41-3.07,4.17-4.08,1.75-1.01,3.71-1.77,5.85-2.27,2.15-.5,4.33-.88,6.55-1.14,2.78-.34,5.04-.61,6.78-.82,1.74-.21,3.02-.56,3.85-1.05.83-.49,1.24-1.28,1.24-2.38v-.25c0-1.77-.34-3.26-1.01-4.46-.67-1.21-1.68-2.14-3.01-2.8-1.33-.66-3-.99-4.99-.99s-3.81.32-5.28.95-2.67,1.44-3.58,2.42c-.91.98-1.59,2.01-2.04,3.07l-8.72-2.27c1.07-2.81,2.6-5.07,4.59-6.78,1.99-1.71,4.28-2.96,6.86-3.75,2.58-.79,5.25-1.18,8-1.18,1.91,0,3.93.22,6.06.67,2.13.45,4.14,1.26,6.02,2.44,1.88,1.18,3.41,2.84,4.59,4.97,1.18,2.13,1.77,4.91,1.77,8.34v31.24h-8.97v-6.44h-.46c-.62,1.21-1.53,2.39-2.74,3.54-1.21,1.15-2.73,2.1-4.57,2.84-1.84.74-4.04,1.12-6.59,1.12ZM491.31,67.27c2.53,0,4.69-.49,6.48-1.47,1.8-.98,3.17-2.29,4.13-3.92.95-1.63,1.43-3.35,1.43-5.18v-6.02c-.34.34-.98.64-1.92.91-.94.27-2.01.51-3.22.72-1.21.21-2.37.39-3.5.53-1.12.14-2.05.25-2.78.34-1.74.23-3.33.6-4.78,1.14-1.45.53-2.6,1.29-3.45,2.27-.86.98-1.28,2.29-1.28,3.92,0,1.49.39,2.74,1.16,3.75.77,1.01,1.82,1.77,3.14,2.27,1.32.51,2.85.76,4.59.76Z"/>
    <path class="cls-1" d="M534.3,45.8v27.87h-9.26V26.6h8.84l.08,11.54h-.97c1.38-4.21,3.37-7.28,5.98-9.22s5.77-2.91,9.47-2.91c3.2,0,5.99.67,8.38,2.02,2.39,1.35,4.25,3.33,5.6,5.96,1.35,2.63,2.02,5.89,2.02,9.79v29.9h-9.26v-28.76c0-3.4-.88-6.05-2.65-7.96-1.77-1.91-4.2-2.86-7.29-2.86-2.08,0-3.94.46-5.6,1.37-1.66.91-2.96,2.24-3.92,3.98-.96,1.74-1.43,3.86-1.43,6.36Z"/>
    <path class="cls-1" d="M590.09,74.73c-2.98,0-5.67-.55-8.08-1.66s-4.32-2.73-5.73-4.86c-1.4-2.13-2.11-4.74-2.11-7.83,0-2.67.51-4.86,1.54-6.57,1.02-1.71,2.41-3.07,4.17-4.08,1.75-1.01,3.71-1.77,5.85-2.27,2.15-.5,4.33-.88,6.55-1.14,2.78-.34,5.04-.61,6.78-.82,1.74-.21,3.02-.56,3.85-1.05.83-.49,1.24-1.28,1.24-2.38v-.25c0-1.77-.34-3.26-1.01-4.46-.67-1.21-1.68-2.14-3.01-2.8-1.33-.66-3-.99-4.99-.99s-3.81.32-5.28.95-2.67,1.44-3.58,2.42c-.91.98-1.59,2.01-2.04,3.07l-8.72-2.27c1.07-2.81,2.6-5.07,4.59-6.78,1.99-1.71,4.28-2.96,6.86-3.75,2.58-.79,5.25-1.18,8-1.18,1.91,0,3.93.22,6.06.67,2.13.45,4.14,1.26,6.02,2.44,1.88,1.18,3.41,2.84,4.59,4.97,1.18,2.13,1.77,4.91,1.77,8.34v31.24h-8.97v-6.44h-.46c-.62,1.21-1.53,2.39-2.74,3.54-1.21,1.15-2.73,2.1-4.57,2.84-1.84.74-4.04,1.12-6.59,1.12ZM592.15,67.27c2.53,0,4.69-.49,6.48-1.47,1.8-.98,3.17-2.29,4.13-3.92.95-1.63,1.43-3.35,1.43-5.18v-6.02c-.34.34-.98.64-1.92.91-.94.27-2.01.51-3.22.72-1.21.21-2.37.39-3.5.53-1.12.14-2.05.25-2.78.34-1.74.23-3.33.6-4.78,1.14-1.45.53-2.6,1.29-3.45,2.27-.86.98-1.28,2.29-1.28,3.92,0,1.49.39,2.74,1.16,3.75.77,1.01,1.82,1.77,3.14,2.27,1.32.51,2.85.76,4.59.76Z"/>
    <path class="cls-1" d="M645.55,92.28c-3.62,0-6.77-.46-9.43-1.39-2.67-.93-4.86-2.16-6.59-3.71s-3.04-3.26-3.94-5.14l7.75-3.66c.56.9,1.31,1.85,2.25,2.84.94,1,2.21,1.85,3.81,2.55,1.6.7,3.65,1.05,6.15,1.05,3.59,0,6.5-.85,8.74-2.55,2.23-1.7,3.35-4.36,3.35-7.98v-9.18h-.8c-.56,1.04-1.34,2.16-2.34,3.37-1,1.21-2.39,2.25-4.17,3.14-1.78.88-4.11,1.33-6.97,1.33-3.71,0-7.04-.87-10-2.61-2.96-1.74-5.31-4.32-7.05-7.75-1.74-3.42-2.61-7.63-2.61-12.63s.86-9.28,2.59-12.86,4.08-6.32,7.07-8.23c2.99-1.91,6.36-2.86,10.13-2.86,2.89,0,5.24.48,7.05,1.43s3.23,2.08,4.25,3.39c1.02,1.3,1.8,2.45,2.34,3.43h.67v-7.66h9.05v47.75c0,4.13-.93,7.52-2.8,10.17-1.87,2.65-4.41,4.61-7.62,5.87-3.21,1.26-6.84,1.9-10.88,1.9ZM645.5,65.25c2.64,0,4.86-.61,6.67-1.83s3.18-2.99,4.11-5.31c.93-2.32,1.39-5.07,1.39-8.27s-.46-5.95-1.39-8.34c-.93-2.39-2.29-4.25-4.11-5.6-1.81-1.35-4.04-2.02-6.67-2.02s-5,.71-6.82,2.13c-1.83,1.42-3.2,3.33-4.13,5.73-.93,2.4-1.39,5.1-1.39,8.11s.46,5.75,1.39,8.06c.93,2.32,2.31,4.12,4.15,5.41,1.84,1.29,4.11,1.94,6.8,1.94Z"/>
    <path class="cls-1" d="M699.61,74.64c-4.63,0-8.63-1-12-2.99-3.37-1.99-5.96-4.8-7.77-8.42s-2.72-7.87-2.72-12.76.89-9.08,2.67-12.76c1.78-3.68,4.3-6.55,7.56-8.61,3.26-2.06,7.07-3.09,11.45-3.09,2.7,0,5.29.44,7.79,1.33,2.5.88,4.74,2.27,6.74,4.15,1.99,1.88,3.57,4.32,4.74,7.31,1.17,2.99,1.75,6.62,1.75,10.88v3.29h-37.52v-6.91h32.76l-4.34,2.27c0-2.89-.45-5.44-1.35-7.64-.9-2.2-2.23-3.92-3.98-5.16-1.75-1.23-3.95-1.85-6.59-1.85s-4.84.63-6.69,1.89c-1.85,1.26-3.26,2.93-4.23,4.99-.97,2.06-1.45,4.32-1.45,6.76v4.72c0,3.23.55,5.96,1.66,8.19,1.11,2.23,2.66,3.92,4.65,5.05,1.99,1.14,4.31,1.71,6.95,1.71,1.74,0,3.31-.25,4.72-.74,1.4-.49,2.62-1.24,3.64-2.23s1.8-2.22,2.34-3.68l8.72,2.06c-.76,2.41-2.03,4.55-3.81,6.4-1.78,1.85-4,3.29-6.65,4.32s-5.66,1.54-9.03,1.54Z"/>
    <path class="cls-1" d="M729.97,73.67V26.6h8.97v7.58h.51c.87-2.58,2.38-4.6,4.55-6.06,2.16-1.46,4.62-2.19,7.37-2.19.59,0,1.26.02,2.02.06s1.39.11,1.89.19v8.84c-.34-.11-.98-.22-1.94-.34s-1.92-.17-2.91-.17c-2.13,0-4.06.45-5.77,1.35-1.71.9-3.05,2.14-4,3.73-.96,1.59-1.43,3.42-1.43,5.5v28.59h-9.26Z"/>
  </g>
  <g>
    <path class="cls-1" d="M235.26,166.55v-62.74h22.49c4.83,0,8.86.9,12.08,2.7,3.23,1.8,5.64,4.22,7.24,7.28,1.6,3.06,2.4,6.53,2.4,10.4s-.81,7.35-2.42,10.42c-1.62,3.07-4.04,5.5-7.26,7.28-3.23,1.78-7.27,2.67-12.13,2.67h-15.37v-8.13h14.44c3.09,0,5.59-.53,7.5-1.6,1.91-1.07,3.3-2.53,4.19-4.38.88-1.85,1.33-3.94,1.33-6.27s-.44-4.46-1.33-6.29c-.88-1.84-2.29-3.28-4.21-4.32-1.92-1.04-4.44-1.56-7.56-1.56h-11.79v54.53h-9.6Z"/>
    <path class="cls-1" d="M305.92,167.14c-3.2,0-6.01-.67-8.42-2.02s-4.29-3.34-5.62-5.98c-1.33-2.64-2-5.89-2-9.77v-29.9h9.26v28.76c0,3.4.89,6.05,2.67,7.96,1.78,1.91,4.2,2.86,7.26,2.86,2.1,0,3.98-.46,5.62-1.37,1.64-.91,2.94-2.25,3.89-4,.95-1.75,1.43-3.87,1.43-6.34v-27.88h9.26v47.08h-8.84l-.04-11.54h.88c-1.38,4.27-3.38,7.35-6.02,9.26-2.64,1.91-5.75,2.86-9.35,2.86Z"/>
    <path class="cls-1" d="M365.12,167.48c-2.84,0-5.16-.48-6.97-1.45s-3.23-2.1-4.25-3.39c-1.02-1.29-1.82-2.44-2.38-3.45h-.76v7.37h-9.01v-62.74h9.26v23.33h.5c.56-.98,1.34-2.12,2.34-3.41,1-1.29,2.39-2.42,4.17-3.39,1.78-.97,4.15-1.45,7.09-1.45,3.76,0,7.12.95,10.08,2.86,2.96,1.91,5.3,4.67,7.01,8.29s2.57,7.99,2.57,13.09-.84,9.4-2.53,13.03c-1.68,3.64-4.01,6.43-6.97,8.38-2.96,1.95-6.35,2.93-10.17,2.93ZM363.05,159.6c2.7,0,4.95-.73,6.78-2.19,1.82-1.46,3.19-3.44,4.11-5.94.91-2.5,1.37-5.31,1.37-8.42s-.46-5.86-1.37-8.32c-.91-2.46-2.27-4.4-4.08-5.83s-4.08-2.15-6.8-2.15-4.87.68-6.69,2.04c-1.83,1.36-3.2,3.26-4.13,5.68-.93,2.43-1.39,5.28-1.39,8.57s.47,6.13,1.41,8.61,2.32,4.43,4.15,5.83c1.82,1.4,4.04,2.11,6.65,2.11Z"/>
    <path class="cls-1" d="M404.32,103.81v62.74h-9.26v-62.74h9.26Z"/>
    <path class="cls-1" d="M421.45,112.27c-1.6,0-2.97-.54-4.11-1.62-1.14-1.08-1.71-2.37-1.71-3.85s.57-2.85,1.71-3.92c1.14-1.07,2.51-1.6,4.11-1.6s2.98.53,4.13,1.6c1.15,1.07,1.73,2.37,1.73,3.92s-.58,2.81-1.73,3.87c-1.15,1.07-2.53,1.6-4.13,1.6ZM416.78,166.55v-47.08h9.26v47.08h-9.26Z"/>
    <path class="cls-1" d="M455.39,167.52c-3.4,0-6.42-.49-9.07-1.47-2.65-.98-4.83-2.44-6.53-4.36s-2.83-4.27-3.39-7.05l8.72-1.81c.65,2.44,1.85,4.25,3.62,5.43s4.01,1.77,6.74,1.77c2.98,0,5.35-.62,7.12-1.87,1.77-1.25,2.65-2.74,2.65-4.48,0-1.52-.54-2.76-1.62-3.75-1.08-.98-2.74-1.71-4.99-2.19l-7.92-1.81c-4.38-.98-7.64-2.55-9.77-4.72-2.13-2.16-3.2-4.93-3.2-8.29,0-2.81.79-5.26,2.36-7.37,1.57-2.11,3.72-3.74,6.44-4.91,2.72-1.16,5.87-1.75,9.43-1.75s6.3.49,8.72,1.47c2.41.98,4.37,2.36,5.87,4.13,1.5,1.77,2.58,3.82,3.22,6.15l-8.29,1.81c-.59-1.66-1.61-3.11-3.07-4.36-1.46-1.25-3.58-1.87-6.36-1.87-2.55,0-4.69.58-6.4,1.73-1.71,1.15-2.57,2.61-2.57,4.38,0,1.57.57,2.84,1.71,3.81s3,1.75,5.58,2.34l7.58,1.68c4.35.98,7.58,2.53,9.68,4.63,2.11,2.1,3.16,4.8,3.16,8.08,0,2.86-.82,5.4-2.46,7.6-1.64,2.2-3.92,3.93-6.82,5.18s-6.28,1.87-10.13,1.87Z"/>
    <path class="cls-1" d="M494.21,138.68v27.87h-9.26v-62.74h9.18v27.2h-1.22c1.38-4.21,3.37-7.28,5.98-9.22s5.77-2.91,9.47-2.91c3.2,0,6,.67,8.4,2.02,2.4,1.35,4.27,3.33,5.6,5.96,1.33,2.63,2,5.89,2,9.79v29.9h-9.26v-28.76c0-3.4-.88-6.05-2.65-7.96-1.77-1.91-4.2-2.86-7.29-2.86-2.08,0-3.94.46-5.6,1.37-1.66.91-2.96,2.24-3.92,3.98-.96,1.74-1.43,3.86-1.43,6.36Z"/>
    <path class="cls-1" d="M557.12,167.52c-4.63,0-8.63-1-12-2.99-3.37-1.99-5.96-4.8-7.77-8.42s-2.72-7.87-2.72-12.76.89-9.08,2.67-12.76c1.78-3.68,4.3-6.55,7.56-8.61,3.26-2.06,7.07-3.09,11.45-3.09,2.7,0,5.29.44,7.79,1.33,2.5.88,4.74,2.27,6.74,4.15,1.99,1.88,3.57,4.32,4.74,7.31,1.17,2.99,1.75,6.62,1.75,10.88v3.29h-37.52v-6.91h32.76l-4.34,2.27c0-2.89-.45-5.44-1.35-7.64-.9-2.2-2.23-3.92-3.98-5.16-1.75-1.23-3.95-1.85-6.59-1.85s-4.84.63-6.69,1.89c-1.85,1.26-3.26,2.93-4.23,4.99-.97,2.06-1.45,4.32-1.45,6.76v4.72c0,3.23.55,5.96,1.66,8.19,1.11,2.23,2.66,3.92,4.65,5.05,1.99,1.14,4.31,1.71,6.95,1.71,1.74,0,3.31-.25,4.72-.74,1.4-.49,2.62-1.24,3.64-2.23s1.8-2.22,2.34-3.68l8.72,2.06c-.76,2.41-2.03,4.55-3.81,6.4-1.78,1.85-4,3.29-6.65,4.32s-5.66,1.54-9.03,1.54Z"/>
    <path class="cls-1" d="M587.48,166.55v-47.08h8.97v7.58h.51c.87-2.58,2.38-4.6,4.55-6.06,2.16-1.46,4.62-2.19,7.37-2.19.59,0,1.26.02,2.02.06s1.39.11,1.89.19v8.84c-.34-.11-.98-.22-1.94-.34s-1.92-.17-2.91-.17c-2.13,0-4.06.45-5.77,1.35-1.71.9-3.05,2.14-4,3.73-.96,1.59-1.43,3.42-1.43,5.5v28.59h-9.26Z"/>
    <path class="cls-1" d="M644.53,166.55v-62.74h22.49c4.83,0,8.86.9,12.08,2.7,3.23,1.8,5.64,4.22,7.24,7.28,1.6,3.06,2.4,6.53,2.4,10.4s-.81,7.35-2.42,10.42c-1.62,3.07-4.04,5.5-7.26,7.28-3.23,1.78-7.27,2.67-12.13,2.67h-15.37v-8.13h14.44c3.09,0,5.59-.53,7.5-1.6,1.91-1.07,3.3-2.53,4.19-4.38.88-1.85,1.33-3.94,1.33-6.27s-.44-4.46-1.33-6.29c-.88-1.84-2.29-3.28-4.21-4.32-1.92-1.04-4.44-1.56-7.56-1.56h-11.79v54.53h-9.6Z"/>
    <path class="cls-1" d="M718.39,167.52c-4.41,0-8.26-1.01-11.56-3.03-3.3-2.02-5.86-4.86-7.68-8.5-1.83-3.65-2.74-7.89-2.74-12.72s.91-9.16,2.74-12.82c1.82-3.66,4.39-6.5,7.68-8.53,3.3-2.02,7.15-3.03,11.56-3.03s8.3,1.01,11.6,3.03c3.3,2.02,5.86,4.86,7.68,8.53,1.82,3.66,2.74,7.94,2.74,12.82s-.91,9.07-2.74,12.72c-1.83,3.65-4.39,6.48-7.68,8.5-3.3,2.02-7.17,3.03-11.6,3.03ZM718.39,159.69c2.86,0,5.23-.75,7.09-2.25,1.87-1.5,3.26-3.49,4.17-5.98.91-2.48,1.37-5.21,1.37-8.19s-.46-5.76-1.37-8.27c-.91-2.51-2.3-4.52-4.17-6.02-1.87-1.5-4.23-2.25-7.09-2.25s-5.18.75-7.03,2.25c-1.85,1.5-3.24,3.5-4.15,6-.91,2.5-1.37,5.26-1.37,8.29s.46,5.71,1.37,8.19c.91,2.48,2.29,4.48,4.15,5.98,1.85,1.5,4.2,2.25,7.03,2.25Z"/>
    <path class="cls-1" d="M750.68,166.55v-47.08h8.97v7.58h.51c.87-2.58,2.38-4.6,4.55-6.06,2.16-1.46,4.62-2.19,7.37-2.19.59,0,1.26.02,2.02.06s1.39.11,1.89.19v8.84c-.34-.11-.98-.22-1.94-.34s-1.92-.17-2.91-.17c-2.13,0-4.06.45-5.77,1.35-1.71.9-3.05,2.14-4,3.73-.96,1.59-1.43,3.42-1.43,5.5v28.59h-9.26Z"/>
    <path class="cls-1" d="M805.63,119.47v7.54h-25.52v-7.54h25.52ZM786.98,108.27h9.26v45.56c0,1.88.4,3.26,1.2,4.15.8.88,2.11,1.33,3.94,1.33.48,0,1.11-.06,1.9-.17.79-.11,1.46-.22,2.02-.34l1.64,7.41c-.98.34-2.04.58-3.16.74-1.12.15-2.23.23-3.33.23-4.27,0-7.58-1.1-9.94-3.31-2.36-2.2-3.54-5.3-3.54-9.28v-46.32Z"/>
    <path class="cls-1" d="M828.45,167.6c-2.98,0-5.67-.55-8.08-1.66s-4.32-2.73-5.73-4.86c-1.4-2.13-2.11-4.74-2.11-7.83,0-2.67.51-4.86,1.54-6.57,1.02-1.71,2.41-3.07,4.17-4.08,1.75-1.01,3.71-1.77,5.85-2.27,2.15-.5,4.33-.88,6.55-1.14,2.78-.34,5.04-.61,6.78-.82,1.74-.21,3.02-.56,3.85-1.05.83-.49,1.24-1.28,1.24-2.38v-.25c0-1.77-.34-3.26-1.01-4.46-.67-1.21-1.68-2.14-3.01-2.8-1.33-.66-3-.99-4.99-.99s-3.81.32-5.28.95-2.67,1.44-3.58,2.42c-.91.98-1.59,2.01-2.04,3.07l-8.72-2.27c1.07-2.81,2.6-5.07,4.59-6.78,1.99-1.71,4.28-2.96,6.86-3.75,2.58-.79,5.25-1.18,8-1.18,1.91,0,3.93.22,6.06.67,2.13.45,4.14,1.26,6.02,2.44,1.88,1.18,3.41,2.84,4.59,4.97,1.18,2.13,1.77,4.91,1.77,8.34v31.24h-8.97v-6.44h-.46c-.62,1.21-1.53,2.39-2.74,3.54-1.21,1.15-2.73,2.1-4.57,2.84-1.84.74-4.04,1.12-6.59,1.12ZM830.52,160.15c2.53,0,4.69-.49,6.48-1.47,1.8-.98,3.17-2.29,4.13-3.92.95-1.63,1.43-3.35,1.43-5.18v-6.02c-.34.34-.98.64-1.92.91-.94.27-2.01.51-3.22.72-1.21.21-2.37.39-3.5.53-1.12.14-2.05.25-2.78.34-1.74.23-3.33.6-4.78,1.14-1.45.53-2.6,1.29-3.45,2.27-.86.98-1.28,2.29-1.28,3.92,0,1.49.39,2.74,1.16,3.75.77,1.01,1.82,1.77,3.14,2.27,1.32.51,2.85.76,4.59.76Z"/>
    <path class="cls-1" d="M873.51,103.81v62.74h-9.26v-62.74h9.26Z"/>
  </g>
</svg>