<svg width="72" height="48" viewBox="0 0 72 48" fill="none" xmlns="http://www.w3.org/2000/svg">
<path d="M47.6356 4H24.3643C23.4974 4 22.6729 4.37498 22.1032 5.02834L12.1 16.5L15.5 19.5L33 25.5H44.5L54 21L59.9 16.5L49.8966 5.02832C49.3269 4.37497 48.5024 4 47.6356 4Z" fill="#F0F1FB"/>
<ellipse cx="36" cy="36.5" rx="32.5" ry="7.5" fill="#F7F8FB"/>
<path d="M12 17C12 16.4477 12.4477 16 13 16H22.3604C23.3138 16 24.1346 16.6729 24.3216 17.6078L24.6784 19.3922C24.8654 20.3271 25.6862 21 26.6396 21H45.3604C46.3138 21 47.1346 20.3271 47.3216 19.3922L47.6784 17.6078C47.8654 16.6729 48.6862 16 49.6396 16H59C59.5523 16 60 16.4477 60 17V33C60 35.2091 58.2091 37 56 37H36H24H16C13.7909 37 12 35.2091 12 33V17Z" fill="#CCD1F2"/>
<path d="M33 37H56C58.2091 37 60 35.2091 60 33V17C60 16.4477 59.5523 16 59 16H49.6396C48.6862 16 47.8654 16.6729 47.6784 17.6078L47.3216 19.3922C47.1346 20.3271 46.3138 21 45.3604 21H44.5M20 37H16C13.7909 37 12 35.2091 12 33V17C12 16.4477 12.4477 16 13 16H22.3604C23.3138 16 24.1346 16.6729 24.3216 17.6078L24.6784 19.3922C24.8654 20.3271 25.6862 21 26.6396 21H37" stroke="black" stroke-linecap="round"/>
<path d="M59.9 16.5L49.8966 5.02832C49.3269 4.37497 48.5024 4 47.6355 4H32.9999M12.1 16.5L22.1032 5.02834C22.6729 4.37498 23.4974 4 24.3643 4H28.4999" stroke="black" stroke-linecap="round"/>
</svg>
