<svg width="220" height="220" viewBox="0 0 220 220" fill="none" xmlns="http://www.w3.org/2000/svg">
<g clip-path="url(#clip0_1721_3398)">
<path d="M75.5127 29.1294C116.281 24.4501 153.584 46.3515 172.745 67.6521C191.906 88.9528 200.507 101.235 207.068 124.572C214.523 151.093 201.771 170.108 183.696 180.327C165.309 190.724 132.03 184.588 100.971 172.238C70.7082 160.205 55.9834 169.706 27.9215 151.638C5.33229 137.094 1.81166 119.886 3.48191 92.6636C4.86949 70.0487 23.5787 35.0904 75.5127 29.1294Z" fill="white"/>
<path d="M105.5 161C135.047 161 159 137.047 159 107.5C159 77.9528 135.047 54 105.5 54C75.9528 54 52 77.9528 52 107.5C52 137.047 75.9528 161 105.5 161Z" stroke="#FF7B7C" stroke-width="5" stroke-miterlimit="10"/>
<path d="M105 46C72.4152 46 46 72.7249 46 105.692C46 113.01 47.3018 120.021 49.6838 126.5" stroke="#41415B" stroke-miterlimit="10"/>
<path d="M105.5 161C135.047 161 159 137.047 159 107.5C159 77.9528 135.047 54 105.5 54C75.9528 54 52 77.9528 52 107.5C52 137.047 75.9528 161 105.5 161Z" stroke="#FF7B7C" stroke-width="5" stroke-miterlimit="10"/>
<path fill-rule="evenodd" clip-rule="evenodd" d="M49.5 107.5C49.5 76.5721 74.5721 51.5 105.5 51.5V56.5C77.3335 56.5 54.5 79.3335 54.5 107.5H49.5Z" fill="#FF7B7C"/>
<path d="M61.699 125.136C60.2408 120.765 63.4942 116.25 68.1021 116.25H142.284C146.796 116.25 150.038 120.593 148.755 124.919L142.528 145.919C141.678 148.784 139.045 150.75 136.056 150.75H75.1075C72.2027 150.75 69.6236 148.892 68.7044 146.136L61.699 125.136Z" fill="#CCD1F2" stroke="#5567D5" stroke-width="2.5"/>
<circle cx="105" cy="133" r="3" fill="#5567D5"/>
<path d="M81 81H75C72.7909 81 71 79.2091 71 77V63" stroke="#5567D5" stroke-width="2.5"/>
<path d="M127 115C127 108.723 124.44 103.052 120.321 99M83 115C83 108.723 85.5595 103.052 89.6786 99" stroke="#5567D5" stroke-width="2.5"/>
<path d="M90 110L88 115" stroke="#5567D5" stroke-width="2.5" stroke-linecap="round"/>
<path fill-rule="evenodd" clip-rule="evenodd" d="M66.2323 69.7678L113.232 116.768L116.768 113.232L69.7678 66.2322L66.2323 69.7678Z" fill="#FF7B7C"/>
<path d="M105.5 161C135.047 161 159 137.047 159 107.5C159 77.9528 135.047 54 105.5 54C75.9528 54 52 77.9528 52 107.5" stroke="#FF7B7C" stroke-width="5" stroke-miterlimit="10"/>
<circle cx="71" cy="59" r="4" stroke="#5567D5" stroke-width="2"/>
<path d="M118.781 99.2328H117.854L117.585 100.12L114.93 108.88L103.089 99.5028L102.747 99.2328H102.312H88C84.2721 99.2328 81.25 96.2107 81.25 92.4828V58C81.25 54.2721 84.2721 51.25 88 51.25H123C126.728 51.25 129.75 54.2721 129.75 58V92.4828C129.75 96.2107 126.728 99.2328 123 99.2328H118.781Z" fill="white" stroke="#5567D5" stroke-width="2.5"/>
<path d="M145 145L68 68" stroke="#FF7B7C" stroke-width="5" stroke-miterlimit="10"/>
<path d="M75 81V81C72.7909 81 71 79.2091 71 77V63" stroke="#5567D5" stroke-width="2.5"/>
<path d="M114 82C111.966 85.5868 108.165 88 103.812 88C102.097 88 100.469 87.6258 99 86.9532" stroke="#5567D5" stroke-width="2.5" stroke-linecap="round"/>
<circle cx="114" cy="69" r="3" fill="#5567D5"/>
<circle cx="97" cy="69" r="3" fill="#5567D5"/>
</g>
<defs>
<clipPath id="clip0_1721_3398">
<rect width="220" height="220" fill="white"/>
</clipPath>
</defs>
</svg>
