<svg width="111" height="81" viewBox="0 0 111 81" fill="none" xmlns="http://www.w3.org/2000/svg">
<path d="M84.3538 0C84.8416 0.224593 85.3278 0.457477 85.8088 0.700195C88.0189 1.77722 88.857 4.39262 88.095 6.7002C86.723 10.5464 87.6379 15.008 90.6868 18.085C93.7356 21.1619 98.156 22.0079 101.967 20.7002C104.33 19.854 106.921 20.7779 107.989 23.0088C108.979 24.9317 109.818 26.932 110.504 29.0088C111.342 31.3934 110.123 33.8547 107.836 34.9316C104.025 36.7008 101.434 40.5474 101.434 45.0088C101.434 49.4702 104.025 53.3168 107.76 55.0859C109.97 56.086 111.19 58.624 110.428 60.9316C109.742 63.0086 108.903 65.0085 107.912 66.9316C106.769 69.1624 104.101 70.086 101.739 69.1631C97.8513 67.7016 93.2015 68.5473 90.0764 71.7012C87.7446 74.0545 86.6863 77.2217 86.9006 80.3076H39.9905C40.3972 77.0543 39.3593 73.6711 36.8743 71.1631C33.9018 68.2401 29.7097 67.3168 25.9749 68.4707C23.5358 69.1631 20.8681 68.0861 19.801 65.7783C18.8864 63.8552 18.1237 61.8554 17.5139 59.8555C16.828 57.6248 17.8955 55.2401 20.0295 54.1631C23.6118 52.3937 26.1272 48.6241 26.1272 44.2393C26.1271 40.0086 23.7642 36.3159 20.3342 34.4697C18.2767 33.3159 17.2099 30.8547 17.9719 28.624C18.658 26.624 19.4967 24.7006 20.4114 22.7773C21.5546 20.5468 24.0693 19.5471 26.4319 20.2393C30.1668 21.393 34.4359 20.4697 37.4084 17.4697C40.3809 14.5468 41.2949 10.239 40.1516 6.46973C39.4657 4.16199 40.5331 1.69999 42.6672 0.623047C43.0841 0.40426 43.5056 0.198305 43.929 0H53.9622C54.1253 0.21946 54.2743 0.452992 54.4055 0.700195C56.2348 4.23881 59.8932 6.6239 64.1614 6.62402C68.4297 6.62402 72.0889 4.23873 73.9182 0.700195C74.0494 0.452986 74.1984 0.219465 74.3616 0H84.3538ZM64.01 21.0088C50.9002 21.0089 40.2298 31.7778 40.2297 45.0088C40.2297 58.2398 50.9001 69.0097 64.01 69.0098C77.12 69.0098 87.7913 58.2398 87.7913 45.0088C87.7912 31.7778 77.1199 21.0088 64.01 21.0088Z" fill="#216BC1" fill-opacity="0.03"/>
<path d="M2.41412 21.2246L8.48069 27.2883H14.1345V21.6345L8.06796 15.5707C10.1619 14.6245 12.4944 14.3386 14.7548 14.7512C17.0153 15.1637 19.0964 16.2552 20.721 17.8801C22.3457 19.505 23.4367 21.5864 23.8489 23.8469C24.261 26.1074 23.9747 28.4399 23.028 30.5336L50.4718 57.9745C52.5657 57.0283 54.8982 56.7424 57.1587 57.155C59.4191 57.5676 61.5003 58.659 63.1249 60.2839C64.7495 61.9089 65.8406 63.9902 66.2527 66.2507C66.6648 68.5113 66.3785 70.8437 65.4319 72.9375L59.3653 66.8652H53.7115V72.5191L59.778 78.5885C57.6841 79.5347 55.3516 79.8206 53.0912 79.408C50.8307 78.9955 48.7496 77.904 47.125 76.2791C45.5003 74.6541 44.4093 72.5728 43.9971 70.3123C43.585 68.0518 43.8713 65.7193 44.818 63.6256L17.3742 36.1875C15.2803 37.1337 12.9478 37.4196 10.6873 37.007C8.42687 36.5944 6.34574 35.503 4.72111 33.8781C3.09648 32.2531 2.00544 30.1718 1.5933 27.9113C1.18116 25.6507 1.46747 23.3183 2.41412 21.2246Z" fill="#B5CEEA"/>
<path d="M14.1347 27.2883V21.6345L8.06812 15.5707C10.162 14.6245 12.4945 14.3386 14.755 14.7512C17.0154 15.1637 19.0966 16.2552 20.7212 17.8801C22.3458 19.505 23.4369 21.5864 23.849 23.8469C24.2612 26.1074 23.9748 28.4399 23.0282 30.5336L50.472 57.9746C52.5659 57.0283 54.8984 56.7424 57.1588 57.155C59.4193 57.5676 61.5004 58.659 63.125 60.2839C64.7497 61.9089 65.8407 63.9902 66.2529 66.2507C66.665 68.5113 66.3787 70.8437 65.432 72.9375L59.3655 66.8652H53.7116L14.1347 27.2883Z" fill="#B5CEEA"/>
<path d="M65.4319 21.2246L59.3653 27.2883H53.7115V21.6345L59.778 15.5707C57.6841 14.6245 55.3516 14.3386 53.0912 14.7512C50.8307 15.1637 48.7496 16.2552 47.125 17.8801C45.5003 19.505 44.4093 21.5864 43.9971 23.8469C43.585 26.1074 43.8713 28.4399 44.818 30.5336L17.3742 57.9746C15.2803 57.0283 12.9478 56.7424 10.6873 57.155C8.42687 57.5676 6.34574 58.659 4.72111 60.2839C3.09648 61.9089 2.00544 63.9902 1.5933 66.2507C1.18116 68.5113 1.46747 70.8437 2.41412 72.9375L8.48069 66.8652H14.1345V72.5191L8.06796 78.5913C10.1619 79.5376 12.4944 79.8234 14.7548 79.4109C17.0153 78.9983 19.0964 77.9069 20.721 76.2819C22.3457 74.657 23.4367 72.5757 23.8489 70.3151C24.261 68.0546 23.9747 65.7221 23.028 63.6284L50.4718 36.1875C52.5657 37.1337 54.8982 37.4196 57.1587 37.007C59.4191 36.5944 61.5003 35.503 63.1249 33.8781C64.7495 32.2531 65.8406 30.1718 66.2527 27.9113C66.6648 25.6507 66.3785 23.3183 65.4319 21.2246Z" fill="#B5CEEA"/>
<path d="M53.7115 27.2883V21.6345L59.778 15.5707C57.6841 14.6245 55.3516 14.3386 53.0912 14.7512C50.8307 15.1637 48.7496 16.2552 47.125 17.8801C45.5003 19.505 44.4093 21.5864 43.9971 23.8469C43.585 26.1074 43.8713 28.4399 44.818 30.5336L17.3742 57.9746C15.2803 57.0283 12.9478 56.7424 10.6873 57.155C8.42687 57.5676 6.34574 58.659 4.72111 60.2839C3.09648 61.9089 2.00544 63.9902 1.5933 66.2507C1.18116 68.5113 1.46747 70.8437 2.41412 72.9375L8.48069 66.8652H14.1345L53.7115 27.2883Z" fill="#BAD1EC"/>
</svg>

