<svg width="43" height="43" viewBox="0 0 43 43" fill="none" xmlns="http://www.w3.org/2000/svg">
<path d="M0 18.125C0 15.9159 1.79086 14.125 4 14.125H8.35907C8.88951 14.125 9.39821 14.3357 9.77329 14.7108L13.5588 18.4963C14.1214 19.0589 14.8845 19.375 15.6801 19.375H32.75C34.9591 19.375 36.75 21.1659 36.75 23.375V39C36.75 41.2091 34.9591 43 32.75 43H4C1.79086 43 0 41.2091 0 39V18.125Z" fill="#C0D7F1"/>
<path d="M32.7498 19.3748C34.9588 19.3748 36.7497 21.1658 36.7498 23.3748V38.9998C36.7498 41.209 34.9589 42.9998 32.7498 42.9998H4.43823L31.6091 19.3748H32.7498Z" fill="#D8EAFF"/>
<path d="M7.875 28.5H24.0855" stroke="#1D2028" stroke-width="1.5" stroke-linecap="round"/>
<path d="M7.875 35.125H15.3355" stroke="#1D2028" stroke-width="1.5" stroke-linecap="round"/>
<path d="M20.5625 1.875V1.875C18.8711 1.875 17.5 3.24613 17.5 4.9375V11.0858C17.5 11.351 17.3946 11.6054 17.2071 11.7929L15.75 13.25L17.2071 14.7071C17.3946 14.8946 17.5 15.149 17.5 15.4142V21.5625C17.5 23.2539 18.8711 24.625 20.5625 24.625V24.625" stroke="white" stroke-width="2" stroke-linecap="round"/>
<path d="M35.875 1.875V1.875C37.5664 1.875 38.9375 3.24613 38.9375 4.9375V11.0858C38.9375 11.351 39.0429 11.6054 39.2304 11.7929L40.6875 13.25L39.2304 14.7071C39.0429 14.8946 38.9375 15.149 38.9375 15.4142V21.5625C38.9375 23.2539 37.5664 24.625 35.875 24.625V24.625" stroke="white" stroke-width="2" stroke-linecap="round"/>
<circle cx="33.25" cy="13.25" r="1.25" fill="#4F83BF" stroke="white"/>
<circle cx="22.75" cy="13.25" r="1.25" fill="#4F83BF" stroke="white"/>
<circle cx="28" cy="13.25" r="1.25" fill="#4F83BF" stroke="white"/>
</svg>
