<svg width="108" height="81" viewBox="0 0 108 81" fill="none" xmlns="http://www.w3.org/2000/svg">
<path d="M81.3545 0C81.8421 0.22451 82.3278 0.457575 82.8086 0.700195C85.0189 1.77717 85.8569 4.39253 85.0947 6.7002C83.7228 10.5464 84.6378 15.008 87.6865 18.085C90.7353 21.1619 95.1558 22.0078 98.9668 20.7002C101.33 19.8539 103.921 20.7779 104.988 23.0088C105.979 24.9318 106.818 26.932 107.504 29.0088C108.342 31.3935 107.122 33.8547 104.836 34.9316C101.025 36.7008 98.4336 40.5474 98.4336 45.0088C98.4336 49.4702 101.025 53.3167 104.76 55.0859C106.97 56.086 108.19 58.624 107.428 60.9316C106.742 63.0086 105.903 65.0085 104.912 66.9316C103.769 69.1625 101.101 70.0861 98.7383 69.1631C94.851 67.7016 90.2013 68.5472 87.0762 71.7012C84.7444 74.0545 83.6861 77.2217 83.9004 80.3076H36.9902C37.3969 77.0543 36.3591 73.6711 33.874 71.1631C30.9015 68.2402 26.7094 67.3169 22.9746 68.4707C20.5356 69.163 17.8678 68.086 16.8008 65.7783C15.8862 63.8553 15.1244 61.8553 14.5146 59.8555C13.8288 57.6249 14.8954 55.2401 17.0293 54.1631C20.6116 52.3937 23.127 48.6241 23.127 44.2393C23.1269 40.0086 20.7649 36.3159 17.335 34.4697C15.2772 33.316 14.2096 30.8549 14.9717 28.624C15.6578 26.624 16.4965 24.7005 17.4111 22.7773C18.5544 20.5466 21.07 19.547 23.4326 20.2393C27.1674 21.3928 31.4358 20.4696 34.4082 17.4697C37.3807 14.5468 38.2955 10.239 37.1523 6.46973C36.4665 4.16206 37.5329 1.70004 39.667 0.623047C40.0838 0.404294 40.5054 0.198278 40.9287 0H50.9619C51.1251 0.219465 51.274 0.452985 51.4053 0.700195C53.2346 4.23891 56.8938 6.62402 61.1621 6.62402C65.4303 6.62388 69.0887 4.23863 70.918 0.700195C71.0492 0.452993 71.1982 0.219461 71.3613 0H81.3545ZM61.0098 21.0088C47.9 21.009 37.2295 31.7779 37.2295 45.0088C37.2295 58.2397 47.9 69.0095 61.0098 69.0098C74.1197 69.0098 84.791 58.2398 84.791 45.0088C84.791 31.7778 74.1197 21.0088 61.0098 21.0088Z" fill="#216BC1" fill-opacity="0.03"/>
<path d="M36.9482 17.8164C37.6945 16.408 39.2869 15.6533 40.7793 16.1562C42.0725 16.609 43.4156 17.1626 44.709 17.8164C46.1515 18.5205 46.6993 20.2304 46.2021 21.7393C45.3068 24.2542 45.9037 27.1717 47.8936 29.1836C49.8834 31.1955 52.7685 31.7496 55.2559 30.8945C56.798 30.3412 58.4891 30.9446 59.1855 32.4033C59.8322 33.6606 60.3795 34.9684 60.8271 36.3262C61.3743 37.8855 60.5783 39.495 59.0859 40.1992C56.5987 41.3561 54.9072 43.8719 54.9072 46.7891C54.9074 49.706 56.5988 52.2211 59.0361 53.3779C60.4787 54.0319 61.2747 55.6913 60.7773 57.2002C60.3296 58.5583 59.7824 59.8665 59.1357 61.124C58.3894 62.5824 56.6484 63.1864 55.1064 62.583C52.5694 61.6274 49.5348 62.1801 47.4951 64.2422C45.4555 66.3045 44.9084 69.3226 45.8535 71.8877C46.4007 73.3966 45.803 75.1074 44.3604 75.8115C43.1168 76.4653 41.7737 76.9682 40.4307 77.4209C38.8885 77.9237 37.2473 77.0685 36.5508 75.5596C35.4066 73.0447 32.9185 71.335 30.0332 71.335C27.1979 71.3351 24.7106 73.0448 23.5664 75.459C22.9197 76.9176 21.3273 77.6724 19.835 77.1191C18.4422 76.6163 17.099 76.0625 15.8057 75.3584C14.4626 74.6038 13.866 72.944 14.4131 71.4854C15.358 68.9204 14.8108 65.9528 12.7715 63.8906C10.8314 61.9793 8.09488 61.3755 5.65723 62.1299C4.06555 62.5825 2.3246 61.8786 1.62793 60.3701C1.03098 59.1126 0.532739 57.8038 0.134766 56.4961C-0.312542 55.0378 0.383885 53.4786 1.77637 52.7744C4.11429 51.6175 5.75661 49.153 5.75684 46.2861C5.75684 43.5197 4.21425 41.1047 1.97559 39.8975C0.632761 39.143 -0.0635888 37.5337 0.433594 36.0752C0.881364 34.7675 1.42844 33.5095 2.02539 32.252C2.77157 30.7933 4.41397 30.1391 5.95605 30.5918C8.39364 31.3461 11.1791 30.7427 13.1191 28.7812C15.0592 26.8701 15.6562 24.0535 14.9102 21.5889C14.4625 20.0799 15.1589 18.4698 16.5518 17.7656C17.7955 17.1117 19.0894 16.6089 20.3828 16.1562C21.8753 15.6535 23.4667 16.4081 24.2129 17.8164C25.4069 20.1302 27.7952 21.6895 30.5811 21.6895C33.3667 21.6894 35.7543 20.1299 36.9482 17.8164ZM31 27C19.9543 27 11 35.9543 11 47C11.0001 58.0456 19.9544 67 31 67C42.0456 67 50.9999 58.0456 51 47C51 35.9543 42.0457 27 31 27Z" fill="#BAD1EC"/>
<g clip-path="url(#clip0_263_445)">
<path d="M17.9963 36.3309L20.5 38.8334H22.8333V36.5001L20.3297 33.9976C21.1938 33.6071 22.1565 33.4891 23.0893 33.6593C24.0222 33.8296 24.8811 34.28 25.5516 34.9506C26.2221 35.6213 26.6723 36.4802 26.8424 37.4131C27.0125 38.3461 26.8944 39.3086 26.5037 40.1727L37.8297 51.4976C38.6938 51.107 39.6564 50.9891 40.5893 51.1593C41.5222 51.3296 42.3811 51.78 43.0516 52.4506C43.7221 53.1213 44.1723 53.9802 44.3424 54.9131C44.5125 55.846 44.3944 56.8086 44.0037 57.6727L41.5 55.1667H39.1667V57.5001L41.6703 60.0049C40.8062 60.3954 39.8436 60.5134 38.9107 60.3431C37.9778 60.1729 37.1189 59.7224 36.4484 59.0518C35.778 58.3812 35.3277 57.5222 35.1576 56.5893C34.9875 55.6564 35.1057 54.6938 35.4963 53.8297L24.1703 42.5061C23.3062 42.8966 22.3436 43.0146 21.4107 42.8443C20.4778 42.674 19.6189 42.2236 18.9484 41.553C18.278 40.8824 17.8277 40.0234 17.6576 39.0905C17.4875 38.1576 17.6057 37.195 17.9963 36.3309Z" fill="#B5CEEA"/>
<path d="M22.8334 38.8334V36.5001L20.3297 33.9976C21.1939 33.6071 22.1565 33.4891 23.0894 33.6593C24.0223 33.8296 24.8811 34.28 25.5516 34.9506C26.2221 35.6213 26.6724 36.4802 26.8425 37.4131C27.0126 38.3461 26.8944 39.3087 26.5037 40.1727L37.8297 51.4976C38.6939 51.1071 39.6565 50.9891 40.5894 51.1593C41.5223 51.3296 42.3811 51.78 43.0516 52.4506C43.7221 53.1213 44.1724 53.9802 44.3425 54.9131C44.5126 55.8461 44.3944 56.8087 44.0037 57.6727L41.5 55.1667H39.1667L22.8334 38.8334Z" fill="#B5CEEA"/>
<path d="M44.0037 36.3309L41.5 38.8334H39.1667V36.5001L41.6703 33.9976C40.8062 33.6071 39.8436 33.4891 38.9107 33.6593C37.9778 33.8296 37.1189 34.28 36.4484 34.9506C35.778 35.6213 35.3277 36.4802 35.1576 37.4131C34.9875 38.3461 35.1057 39.3087 35.4963 40.1727L24.1703 51.4976C23.3062 51.1071 22.3436 50.9891 21.4107 51.1593C20.4778 51.3296 19.6189 51.78 18.9484 52.4506C18.278 53.1213 17.8277 53.9802 17.6576 54.9131C17.4875 55.8461 17.6057 56.8087 17.9963 57.6727L20.5 55.1667H22.8333V57.5001L20.3297 60.0061C21.1938 60.3966 22.1565 60.5146 23.0893 60.3443C24.0222 60.174 24.8811 59.7236 25.5516 59.053C26.2221 58.3824 26.6723 57.5234 26.8424 56.5905C27.0125 55.6576 26.8944 54.695 26.5037 53.8309L37.8297 42.5061C38.6938 42.8966 39.6564 43.0146 40.5893 42.8443C41.5222 42.674 42.3811 42.2236 43.0516 41.553C43.7221 40.8824 44.1723 40.0234 44.3424 39.0905C44.5125 38.1576 44.3944 37.195 44.0037 36.3309Z" fill="#B5CEEA"/>
<path d="M39.1667 38.8334V36.5001L41.6703 33.9976C40.8062 33.6071 39.8436 33.4891 38.9107 33.6593C37.9778 33.8296 37.1189 34.28 36.4484 34.9506C35.778 35.6213 35.3277 36.4802 35.1576 37.4131C34.9875 38.3461 35.1057 39.3087 35.4963 40.1727L24.1703 51.4976C23.3062 51.1071 22.3436 50.9891 21.4107 51.1593C20.4778 51.3296 19.6189 51.78 18.9484 52.4506C18.278 53.1213 17.8277 53.9802 17.6576 54.9131C17.4875 55.8461 17.6057 56.8087 17.9963 57.6727L20.5 55.1667H22.8333L39.1667 38.8334Z" fill="#BAD1EC"/>
</g>
<defs>
<clipPath id="clip0_263_445">
<rect width="28" height="28" fill="white" transform="translate(17 33)"/>
</clipPath>
</defs>
</svg>
