<svg width="116" height="76" viewBox="0 0 116 76" fill="none" xmlns="http://www.w3.org/2000/svg">
<path d="M91.2627 0C91.7194 0.210251 92.1738 0.429039 92.6241 0.65625C94.6941 1.66482 95.4795 4.11418 94.7657 6.27539C93.4809 9.87738 94.3372 14.0559 97.1924 16.9375C100.048 19.819 104.188 20.6113 107.757 19.3867C109.97 18.5942 112.396 19.4587 113.396 21.5479C114.324 23.3488 115.11 25.222 115.752 27.167C116.537 29.4003 115.394 31.7053 113.253 32.7139C109.684 34.3708 107.258 37.9733 107.258 42.1514C107.258 46.3295 109.684 49.932 113.182 51.5889C115.252 52.5255 116.394 54.9023 115.68 57.0635C115.037 59.0086 114.252 60.8816 113.324 62.6826C112.253 64.7716 109.756 65.6358 107.543 64.7715C103.902 63.4028 99.5478 64.1957 96.6211 67.1494C94.4375 69.3533 93.4458 72.3191 93.6465 75.209H49.7149C50.0958 72.1622 49.1242 68.9933 46.7969 66.6445C44.0132 63.9073 40.0875 63.0435 36.5899 64.124C34.3057 64.7725 31.807 63.7636 30.8077 61.6025C29.9511 59.8014 29.2371 57.9277 28.6661 56.0547C28.024 53.9657 29.024 51.7321 31.0225 50.7236C34.377 49.0665 36.7325 45.5368 36.7325 41.4307C36.7324 37.4686 34.5199 34.0102 31.3077 32.2812C29.3805 31.2007 28.381 28.8958 29.0948 26.8066C29.7372 24.9337 30.5224 23.133 31.3789 21.332C32.4495 19.2429 34.805 18.306 37.0176 18.9541C40.5154 20.0346 44.5131 19.1698 47.2969 16.3604C50.0806 13.623 50.9369 9.58859 49.8663 6.05859C49.2242 3.89752 50.2242 1.59248 52.2227 0.583984C52.6132 0.379053 53.0077 0.185744 53.4043 0H62.7998C62.9527 0.205601 63.0919 0.424646 63.2149 0.65625C64.928 3.97015 68.3544 6.203 72.3516 6.20312C76.3488 6.20312 79.7751 3.96993 81.4883 0.65625C81.6113 0.424596 81.7514 0.205641 81.9043 0H91.2627ZM72.21 19.6748C59.9325 19.6748 49.9395 29.7604 49.9395 42.1514C49.9395 54.5423 59.9325 64.6279 72.21 64.6279C84.4875 64.6279 94.4805 54.5423 94.4805 42.1514C94.4805 29.7604 84.4876 19.6748 72.21 19.6748Z" fill="#216BC1" fill-opacity="0.03"/>
<path d="M36.9482 13.7694C37.6945 12.3609 39.2869 11.6062 40.7793 12.1092C42.0726 12.5619 43.4156 13.1155 44.709 13.7694C46.1515 14.4735 46.6993 16.1834 46.2021 17.6922C45.3067 20.2072 45.9036 23.1246 47.8936 25.1366C49.8835 27.1485 52.7685 27.7026 55.2559 26.8475C56.798 26.2941 58.4891 26.8975 59.1855 28.3563C59.8322 29.6136 60.3795 30.9213 60.8271 32.2791C61.3744 33.8385 60.5784 35.448 59.0859 36.1522C56.5987 37.3091 54.9072 39.8248 54.9072 42.742C54.9073 45.659 56.5987 48.174 59.0361 49.3309C60.4787 49.9848 61.2747 51.6442 60.7773 53.1532C60.3296 54.5113 59.7825 55.8194 59.1357 57.077C58.3895 58.5355 56.6484 59.1394 55.1064 58.536C52.5694 57.5804 49.5348 58.1331 47.4951 60.1951C45.4555 62.2574 44.9084 65.2755 45.8535 67.8407C46.4008 69.3496 45.8031 71.0603 44.3604 71.7645C43.1168 72.4183 41.7737 72.9212 40.4307 73.3739C38.8884 73.8767 37.2472 73.0215 36.5508 71.5125C35.4066 68.9976 32.9185 67.2879 30.0332 67.2879C27.1979 67.288 24.7106 68.9978 23.5664 71.4119C22.9197 72.8707 21.3274 73.6254 19.835 73.0721C18.4421 72.5693 17.099 72.0155 15.8057 71.3114C14.4626 70.5568 13.8659 68.897 14.4131 67.4383C15.358 64.8733 14.8108 61.9058 12.7715 59.8436C10.8314 57.9323 8.09489 57.3284 5.65723 58.0828C4.06549 58.5355 2.32456 57.8317 1.62793 56.3231C1.03096 55.0655 0.532748 53.7568 0.134767 52.4491C-0.312547 50.9907 0.383846 49.4316 1.77637 48.7274C4.11433 47.5705 5.75667 45.106 5.75684 42.2391C5.75684 39.4727 4.21429 37.0576 1.97559 35.8504C0.632718 35.096 -0.0636826 33.4867 0.433595 32.0282C0.881381 30.7204 1.42842 29.4625 2.02539 28.2049C2.77157 26.7462 4.41397 26.0921 5.95606 26.5448C8.39369 27.2991 11.1791 26.6958 13.1191 24.7342C15.0592 22.823 15.6563 20.0065 14.9102 17.5418C14.4625 16.0329 15.1588 14.4228 16.5518 13.7186C17.7955 13.0647 19.0894 12.5619 20.3828 12.1092C21.8753 11.6065 23.4667 12.3611 24.2129 13.7694C25.4068 16.0833 27.7952 17.6424 30.5811 17.6424C33.3668 17.6424 35.7543 16.083 36.9482 13.7694ZM30.4824 27.0487C21.9258 27.0487 14.9609 34.0905 14.9609 42.742C14.9611 51.3934 21.9259 58.4354 30.4824 58.4354C39.0387 58.4351 46.0028 51.3933 46.0029 42.742C46.0029 34.0907 39.0388 27.0489 30.4824 27.0487Z" fill="#BAD1EC"/>
<path d="M21.9065 48C21.3497 48 21.0002 47.666 21.0002 47.1377C21.0002 46.9858 21.0417 46.7794 21.1187 46.5547L23.4524 40.0385C23.7011 39.3279 24.1217 39 24.7969 39C25.4958 39 25.9104 39.3158 26.1651 40.0324L28.5106 46.5547C28.5935 46.7915 28.6231 46.9555 28.6231 47.1377C28.6231 47.6417 28.25 48 27.7288 48C27.2253 48 26.9588 47.7632 26.7989 47.1923L26.3487 45.8077H23.2628L22.8127 47.1741C22.6468 47.7571 22.3803 48 21.9065 48ZM23.6537 44.3866H25.9341L24.8028 40.7976H24.7613L23.6537 44.3866Z" fill="#8D91A3"/>
<path d="M30.6074 48C30.0447 48 29.713 47.6478 29.713 47.0466V40.0749C29.713 39.4737 30.0447 39.1215 30.6074 39.1215H33.1898C34.943 39.1215 36.1513 40.3178 36.1513 42.1215C36.1513 43.919 34.9015 45.1215 33.1009 45.1215H31.5017V47.0466C31.5017 47.6478 31.17 48 30.6074 48ZM31.5017 43.6883H32.71C33.7347 43.6883 34.3329 43.1296 34.3329 42.1275C34.3329 41.1316 33.7406 40.5729 32.7159 40.5729H31.5017V43.6883Z" fill="#8D91A3"/>
<path d="M38.1059 48C37.5432 48 37.2115 47.6478 37.2115 47.0466V39.9595C37.2115 39.3522 37.5432 39 38.1059 39C38.6686 39 39.0002 39.3522 39.0002 39.9595V47.0466C39.0002 47.6478 38.6686 48 38.1059 48Z" fill="#8D91A3"/>
</svg>
