<svg width="118" height="76" viewBox="0 0 118 76" fill="none" xmlns="http://www.w3.org/2000/svg">
<path d="M93.2627 0C93.7193 0.210251 94.1738 0.429039 94.624 0.65625C96.6941 1.66482 97.4794 4.11418 96.7656 6.27539C95.4808 9.87738 96.3372 14.0559 99.1924 16.9375C102.048 19.819 106.188 20.6113 109.757 19.3867C111.97 18.5942 114.396 19.4587 115.396 21.5479C116.324 23.3488 117.11 25.222 117.752 27.167C118.537 29.4003 117.394 31.7053 115.253 32.7139C111.684 34.3708 109.258 37.9733 109.258 42.1514C109.258 46.3295 111.684 49.932 115.182 51.5889C117.252 52.5255 118.394 54.9023 117.68 57.0635C117.037 59.0086 116.252 60.8816 115.324 62.6826C114.253 64.7716 111.756 65.6358 109.543 64.7715C105.902 63.4028 101.548 64.1957 98.6211 67.1494C96.4375 69.3533 95.4458 72.3191 95.6465 75.209H51.7148C52.0958 72.1622 51.1242 68.9933 48.7969 66.6445C46.0131 63.9073 42.0875 63.0435 38.5898 64.124C36.3057 64.7725 33.807 63.7636 32.8076 61.6025C31.951 59.8014 31.2371 57.9277 30.666 56.0547C30.024 53.9657 31.0239 51.7321 33.0225 50.7236C36.377 49.0665 38.7324 45.5368 38.7324 41.4307C38.7324 37.4686 36.5198 34.0102 33.3076 32.2812C31.3805 31.2007 30.3809 28.8958 31.0947 26.8066C31.7372 24.9337 32.5224 23.133 33.3789 21.332C34.4495 19.2429 36.805 18.306 39.0176 18.9541C42.5153 20.0346 46.5131 19.1698 49.2969 16.3604C52.0806 13.623 52.9369 9.58859 51.8662 6.05859C51.2242 3.89752 52.2241 1.59248 54.2227 0.583984C54.6132 0.379053 55.0077 0.185744 55.4043 0H64.7998C64.9527 0.205601 65.0919 0.424646 65.2148 0.65625C66.928 3.97015 70.3544 6.203 74.3516 6.20312C78.3488 6.20312 81.7751 3.96993 83.4883 0.65625C83.6113 0.424596 83.7514 0.205641 83.9043 0H93.2627ZM74.21 19.6748C61.9324 19.6748 51.9395 29.7604 51.9395 42.1514C51.9395 54.5423 61.9324 64.6279 74.21 64.6279C86.4875 64.6279 96.4805 54.5423 96.4805 42.1514C96.4805 29.7604 86.4875 19.6748 74.21 19.6748Z" fill="#216BC1" fill-opacity="0.03"/>
<path d="M30.0938 17.6455C30.9504 16.0288 32.7781 15.1629 34.4912 15.7402C35.9757 16.2599 37.5174 16.895 39.002 17.6455C40.658 18.4538 41.2869 20.4173 40.7158 22.1494C39.688 25.0363 40.3731 28.3849 42.6572 30.6943C44.9414 33.0038 48.2532 33.6387 51.1084 32.6572C52.8786 32.022 54.8206 32.7152 55.6201 34.3896C56.3625 35.833 56.99 37.3348 57.5039 38.8936C58.1319 40.6834 57.2188 42.5305 55.5059 43.3389C52.6507 44.6667 50.7091 47.5538 50.709 50.9023C50.709 54.251 52.6501 57.1389 55.4482 58.4668C57.1042 59.2175 58.0183 61.1223 57.4473 62.8545C56.9333 64.4133 56.3048 65.914 55.5625 67.3574C54.7059 69.0318 52.7076 69.7248 50.9375 69.0322C48.0252 67.9353 44.5416 68.5704 42.2002 70.9375C41.0042 72.1468 40.2561 73.6427 39.9541 75.209H4.65918C4.41995 73.5008 3.64792 71.8548 2.34082 70.5332C1.63838 69.8412 0.844816 69.2987 0 68.9072V32.0654C0.997315 31.6589 1.93282 31.0487 2.74023 30.2324C4.96732 28.0385 5.65247 24.8048 4.7959 21.9756C4.2822 20.2436 5.08194 18.3962 6.68066 17.5879C8.10835 16.8373 9.5934 16.2599 11.0781 15.7402C12.7913 15.1631 14.618 16.029 15.4746 17.6455C16.8451 20.3015 19.5864 22.0917 22.7842 22.0918C25.982 22.0918 28.7232 20.3014 30.0938 17.6455ZM22.6709 32.8887C12.849 32.8887 4.8547 40.9715 4.85449 50.9023C4.85449 60.8333 12.8489 68.917 22.6709 68.917C32.4929 68.917 40.4873 60.8333 40.4873 50.9023C40.4871 40.9715 32.4928 32.8887 22.6709 32.8887Z" fill="#216BC1" fill-opacity="0.31"/>
</svg>

