<svg width="71" height="76" viewBox="0 0 71 76" fill="none" xmlns="http://www.w3.org/2000/svg">
<path d="M23.6748 3.69727C30.9926 -0.565341 40.0074 -0.565341 47.3252 3.69727L58.6709 10.3057C65.9893 14.5687 70.5 22.4493 70.5 30.9795V44.1973C70.5 52.7275 65.9892 60.6071 58.6709 64.8701L47.3252 71.4795C40.0075 75.742 30.9925 75.742 23.6748 71.4795L12.3291 64.8701C5.01075 60.6071 0.500039 52.7275 0.5 44.1973V30.9795C0.5 22.4493 5.01072 14.5687 12.3291 10.3057L23.6748 3.69727Z" fill="url(#paint0_linear_81_1318)" stroke="black"/>
<path d="M33.4773 58.4706H27.8706C21.2432 58.4706 15.8706 53.0981 15.8706 46.4706V28.7059C15.8706 22.0785 21.2432 16.7059 27.8706 16.7059H45.6353C52.2627 16.7059 57.6353 22.0785 57.6353 28.7059V44.1396" stroke="#40404B" stroke-linecap="round" stroke-dasharray="1 5"/>
<path d="M48.4551 37.5958C47.3627 37.0822 46.6048 35.9655 46.6048 34.6702C46.6048 33.375 47.3628 32.2583 48.4774 31.7446C49.1462 31.4319 49.5029 30.7173 49.2576 30.0249C49.057 29.422 48.8118 28.8413 48.5219 28.2829C48.2098 27.6353 47.4519 27.3673 46.7608 27.613C45.6462 27.9926 44.3532 27.747 43.4615 26.8536C42.5698 25.9603 42.3023 24.665 42.7036 23.5483C42.9265 22.8783 42.6813 22.119 42.0348 21.8063C41.4552 21.516 40.8533 21.2703 40.2737 21.0693C39.6049 20.846 38.8916 21.181 38.5571 21.8063C38.0221 22.8337 36.9521 23.526 35.7037 23.526C34.4553 23.526 33.3852 22.8337 32.8502 21.8063C32.5158 21.181 31.8025 20.846 31.1337 21.0693C30.554 21.2703 29.9744 21.4936 29.4171 21.784C28.7929 22.0966 28.4808 22.8113 28.6814 23.4813C29.0158 24.5756 28.7483 25.8263 27.8789 26.6749C27.0095 27.5459 25.7611 27.8139 24.6687 27.4789C23.9777 27.2779 23.242 27.5682 22.9076 28.2159C22.6401 28.7743 22.3949 29.3326 22.1943 29.9132C21.9713 30.5609 22.2834 31.2756 22.8853 31.6106C23.8885 32.1466 24.5796 33.2186 24.5796 34.4468C24.5796 35.7199 23.8439 36.8142 22.7961 37.3279C22.172 37.6405 21.8599 38.3329 22.0605 38.9805C22.2388 39.5612 22.4617 40.1418 22.7292 40.7002C23.0413 41.3702 23.8216 41.6828 24.535 41.4818C25.6273 41.1468 26.8534 41.4148 27.7228 42.2635C28.6368 43.1791 28.882 44.4968 28.4585 45.6357C28.2133 46.2834 28.4808 47.0204 29.0827 47.3554C29.6623 47.6681 30.2642 47.9138 30.8884 48.137C31.5572 48.3827 32.2706 48.0477 32.5603 47.4C33.073 46.328 34.1877 45.5687 35.4584 45.5687C36.7514 45.5687 37.866 46.328 38.3787 47.4447C38.6908 48.1147 39.4264 48.4943 40.1175 48.271C40.7194 48.07 41.3213 47.8467 41.8786 47.5564C42.5251 47.2437 42.7926 46.4844 42.5474 45.8144C42.1238 44.6754 42.3691 43.3354 43.2831 42.4198C44.1971 41.5041 45.5569 41.2584 46.6939 41.6827C47.3849 41.9507 48.1652 41.6827 48.4996 41.0351C48.7894 40.4767 49.0346 39.8961 49.2353 39.2931C49.4582 38.6231 49.1015 37.8862 48.4551 37.5958ZM35.6593 41.6382C31.825 41.6382 28.704 38.5115 28.704 34.6702C28.704 30.8289 31.825 27.7023 35.6593 27.7023C39.4937 27.7023 42.6147 30.8289 42.6147 34.6702C42.6147 38.5115 39.4937 41.6382 35.6593 41.6382Z" fill="#205088"/>
<circle cx="35.5336" cy="34.5336" r="8.97774" fill="white"/>
<g clip-path="url(#clip0_81_1318)">
<path d="M30.1913 30.1745L31.2456 31.2284H32.2283V30.2457L31.1739 29.1918C31.5378 29.0274 31.9432 28.9777 32.3361 29.0494C32.7289 29.1211 33.0906 29.3108 33.373 29.5932C33.6554 29.8756 33.845 30.2374 33.9166 30.6302C33.9882 31.0231 33.9385 31.4285 33.774 31.7924L38.5437 36.5616C38.9076 36.3972 39.313 36.3475 39.7059 36.4192C40.0987 36.4909 40.4604 36.6806 40.7428 36.963C41.0251 37.2454 41.2148 37.6071 41.2864 38C41.358 38.3929 41.3083 38.7983 41.1437 39.1622L40.0894 38.1068H39.1067V39.0895L40.1611 40.1443C39.7972 40.3088 39.3918 40.3585 38.9989 40.2868C38.6061 40.2151 38.2444 40.0254 37.962 39.7429C37.6796 39.4605 37.49 39.0988 37.4184 38.7059C37.3468 38.313 37.3965 37.9077 37.561 37.5438L32.7913 32.775C32.4274 32.9395 32.022 32.9892 31.6291 32.9175C31.2363 32.8458 30.8746 32.6561 30.5922 32.3737C30.3098 32.0912 30.1202 31.7295 30.0486 31.3366C29.977 30.9437 30.0267 30.5384 30.1913 30.1745Z" fill="#CBCEDB"/>
<path d="M32.2283 31.2284V30.2457L31.174 29.1918C31.5379 29.0274 31.9433 28.9777 32.3361 29.0494C32.729 29.1211 33.0907 29.3108 33.3731 29.5932C33.6554 29.8756 33.845 30.2374 33.9167 30.6302C33.9883 31.0231 33.9385 31.4285 33.774 31.7924L38.5437 36.5616C38.9077 36.3972 39.313 36.3475 39.7059 36.4192C40.0988 36.4909 40.4605 36.6806 40.7428 36.963C41.0252 37.2454 41.2148 37.6071 41.2865 38C41.3581 38.3929 41.3083 38.7983 41.1438 39.1622L40.0894 38.1068H39.1068L32.2283 31.2284Z" fill="#CBCEDB"/>
<path d="M41.1437 30.1745L40.0894 31.2284H39.1067V30.2457L40.1611 29.1918C39.7972 29.0274 39.3918 28.9777 38.9989 29.0494C38.6061 29.1211 38.2444 29.3108 37.962 29.5932C37.6796 29.8756 37.49 30.2374 37.4184 30.6302C37.3468 31.0231 37.3965 31.4285 37.561 31.7924L32.7913 36.5616C32.4274 36.3972 32.022 36.3475 31.6291 36.4192C31.2363 36.4909 30.8746 36.6806 30.5922 36.963C30.3098 37.2454 30.1202 37.6071 30.0486 38C29.977 38.3929 30.0267 38.7983 30.1913 39.1622L31.2456 38.1068H32.2283V39.0895L31.1739 40.1448C31.5378 40.3093 31.9432 40.359 32.3361 40.2872C32.7289 40.2155 33.0906 40.0259 33.373 39.7434C33.6554 39.461 33.845 39.0993 33.9166 38.7064C33.9882 38.3135 33.9385 37.9081 33.774 37.5443L38.5437 32.775C38.9076 32.9395 39.313 32.9892 39.7059 32.9175C40.0987 32.8458 40.4604 32.6561 40.7428 32.3737C41.0251 32.0912 41.2148 31.7295 41.2864 31.3366C41.358 30.9437 41.3083 30.5384 41.1437 30.1745Z" fill="#CBCEDB"/>
<path d="M39.1067 31.2284V30.2457L40.1611 29.1918C39.7972 29.0274 39.3918 28.9777 38.9989 29.0494C38.6061 29.1211 38.2444 29.3108 37.962 29.5932C37.6796 29.8756 37.49 30.2374 37.4184 30.6302C37.3468 31.0231 37.3965 31.4285 37.561 31.7924L32.7913 36.5616C32.4274 36.3972 32.022 36.3475 31.6291 36.4192C31.2363 36.4909 30.8746 36.6806 30.5922 36.963C30.3098 37.2454 30.1202 37.6071 30.0486 38C29.977 38.3929 30.0267 38.7983 30.1913 39.1622L31.2456 38.1068H32.2283L39.1067 31.2284Z" fill="#CBCEDB"/>
</g>
<path d="M50 51V35H37.6146V40.9608H21V51H50Z" fill="#205088" fill-opacity="0.16" stroke="#B8CEE7" stroke-width="2" stroke-linejoin="round"/>
<path d="M61.9209 55.4571C61.0196 55.0333 60.3943 54.112 60.3943 53.0433C60.3943 51.9746 61.0197 51.0533 61.9393 50.6295C62.4911 50.3715 62.7854 49.7819 62.583 49.2107C62.4175 48.7132 62.2152 48.2341 61.9761 47.7735C61.7186 47.2391 61.0932 47.018 60.5231 47.2207C59.6034 47.5339 58.5367 47.3312 57.801 46.5942C57.0653 45.8572 56.8446 44.7884 57.1756 43.8671C57.3595 43.3144 57.1572 42.6879 56.6238 42.4299C56.1456 42.1904 55.649 41.9877 55.1709 41.8218C54.6191 41.6376 54.0305 41.914 53.7546 42.4299C53.3132 43.2775 52.4303 43.8487 51.4003 43.8487C50.3704 43.8487 49.4875 43.2776 49.0461 42.4299C48.7702 41.914 48.1817 41.6376 47.6298 41.8218C47.1516 41.9877 46.6734 42.1719 46.2136 42.4115C45.6986 42.6694 45.4411 43.2591 45.6066 43.8118C45.8825 44.7147 45.6618 45.7466 44.9445 46.4467C44.2272 47.1653 43.1972 47.3864 42.296 47.1101C41.7258 46.9442 41.1188 47.1838 40.843 47.7182C40.6223 48.1788 40.42 48.6395 40.2544 49.1185C40.0705 49.6529 40.328 50.2425 40.8245 50.5189C41.6522 50.9611 42.2224 51.8456 42.2224 52.859C42.2224 53.9093 41.6154 54.8121 40.751 55.236C40.236 55.4939 39.9785 56.0652 40.144 56.5995C40.2911 57.0786 40.4751 57.5576 40.6958 58.0183C40.9533 58.5711 41.597 58.829 42.1856 58.6632C43.0869 58.3868 44.0984 58.6079 44.8157 59.3081C45.5698 60.0636 45.7721 61.1507 45.4227 62.0904C45.2204 62.6248 45.4411 63.2328 45.9377 63.5092C46.4159 63.7672 46.9125 63.9699 47.4275 64.1541C47.9793 64.3568 48.5678 64.0804 48.8069 63.546C49.2299 62.6616 50.1496 62.0351 51.198 62.0351C52.2647 62.0351 53.1844 62.6616 53.6074 63.5829C53.8649 64.1356 54.4718 64.4489 55.042 64.2647C55.5386 64.0988 56.0352 63.9146 56.495 63.675C57.0284 63.4171 57.2491 62.7906 57.0468 62.2378C56.6973 61.2981 56.8996 60.1925 57.6537 59.437C58.4079 58.6816 59.5298 58.4789 60.4678 58.829C61.038 59.0501 61.6817 58.829 61.9577 58.2946C62.1968 57.8339 62.3991 57.3549 62.5646 56.8574C62.7486 56.3046 62.4543 55.6966 61.9209 55.4571ZM51.3638 58.7922C48.2003 58.7922 45.6253 56.2126 45.6253 53.0433C45.6253 49.874 48.2003 47.2944 51.3638 47.2944C54.5273 47.2944 57.1023 49.874 57.1023 53.0433C57.1023 56.2126 54.5273 58.7922 51.3638 58.7922Z" fill="white" fill-opacity="0.3"/>
<path d="M54.4032 57.1277C53.5019 56.7039 52.8766 55.7826 52.8766 54.7139C52.8766 53.6453 53.502 52.7239 54.4216 52.3002C54.9734 52.0422 55.2677 51.4526 55.0653 50.8813C54.8998 50.3839 54.6975 49.9047 54.4584 49.4441C54.2009 48.9097 53.5755 48.6886 53.0054 48.8913C52.0857 49.2046 51.019 49.0019 50.2833 48.2648C49.5476 47.5278 49.3269 46.4591 49.6579 45.5378C49.8418 44.985 49.6395 44.3585 49.1061 44.1006C48.6279 43.861 48.1313 43.6583 47.6532 43.4925C47.1014 43.3082 46.5128 43.5846 46.2369 44.1006C45.7955 44.9482 44.9126 45.5194 43.8826 45.5194C42.8527 45.5194 41.9698 44.9482 41.5284 44.1006C41.2525 43.5846 40.664 43.3083 40.1121 43.4925C39.6339 43.6583 39.1557 43.8426 38.6959 44.0821C38.1809 44.3401 37.9234 44.9297 38.0889 45.4825C38.3648 46.3854 38.1441 47.4172 37.4268 48.1174C36.7095 48.836 35.6795 49.0571 34.7783 48.7807C34.2081 48.6149 33.6011 48.8544 33.3253 49.3888C33.1046 49.8495 32.9023 50.3101 32.7367 50.7892C32.5528 51.3236 32.8103 51.9132 33.3068 52.1896C34.1345 52.6318 34.7047 53.5162 34.7047 54.5296C34.7047 55.5799 34.0977 56.4828 33.2333 56.9066C32.7183 57.1646 32.4608 57.7358 32.6263 58.2701C32.7734 58.7492 32.9574 59.2283 33.1781 59.689C33.4356 60.2417 34.0793 60.4997 34.6679 60.3338C35.5692 60.0575 36.5807 60.2786 37.298 60.9787C38.0521 61.7342 38.2544 62.8213 37.905 63.761C37.7027 64.2954 37.9234 64.9035 38.42 65.1799C38.8982 65.4378 39.3948 65.6405 39.9098 65.8248C40.4616 66.0274 41.0501 65.751 41.2892 65.2167C41.7122 64.3322 42.6319 63.7057 43.6803 63.7057C44.747 63.7057 45.6667 64.3322 46.0897 65.2535C46.3472 65.8063 46.9541 66.1195 47.5243 65.9353C48.0209 65.7695 48.5175 65.5852 48.9773 65.3457C49.5107 65.0877 49.7314 64.4612 49.5291 63.9084C49.1796 62.9687 49.3819 61.8632 50.136 61.1077C50.8902 60.3522 52.0121 60.1495 52.9501 60.4996C53.5203 60.7207 54.164 60.4996 54.44 59.9652C54.6791 59.5046 54.8814 59.0255 55.0469 58.528C55.2309 57.9752 54.9366 57.3673 54.4032 57.1277ZM43.8461 60.4629C40.6825 60.4629 38.1076 57.8832 38.1076 54.7139C38.1076 51.5447 40.6825 48.965 43.8461 48.965C47.0096 48.965 49.5846 51.5447 49.5846 54.7139C49.5846 57.8832 47.0096 60.4629 43.8461 60.4629Z" fill="white"/>
<defs>
<linearGradient id="paint0_linear_81_1318" x1="15.787" y1="9.86569" x2="60.3244" y2="75.647" gradientUnits="userSpaceOnUse">
<stop stop-color="#ADC7E6"/>
<stop offset="1" stop-color="#ECF2F9"/>
</linearGradient>
<clipPath id="clip0_81_1318">
<rect width="11.7917" height="11.7917" fill="white" transform="translate(29.7717 28.7717)"/>
</clipPath>
</defs>
</svg>
