<svg width="71" height="76" viewBox="0 0 71 76" fill="none" xmlns="http://www.w3.org/2000/svg">
<path d="M23.6748 3.69727C30.9926 -0.565341 40.0074 -0.565341 47.3252 3.69727L58.6709 10.3057C65.9893 14.5687 70.5 22.4493 70.5 30.9795V44.1973C70.5 52.7275 65.9892 60.6071 58.6709 64.8701L47.3252 71.4795C40.0075 75.742 30.9925 75.742 23.6748 71.4795L12.3291 64.8701C5.01075 60.6071 0.500039 52.7275 0.5 44.1973V30.9795C0.5 22.4493 5.01072 14.5687 12.3291 10.3057L23.6748 3.69727Z" fill="url(#paint0_linear_81_1241)" stroke="black"/>
<path d="M33.4773 58.4706H27.8706C21.2432 58.4706 15.8706 53.098 15.8706 46.4706V28.7059C15.8706 22.0785 21.2432 16.7059 27.8706 16.7059H45.6353C52.2627 16.7059 57.6353 22.0785 57.6353 28.7059V44.1396" stroke="#40404B" stroke-linecap="round" stroke-dasharray="1 5"/>
<g clip-path="url(#clip0_81_1241)">
<path d="M35.2603 22.6557C34.4703 22.8612 33.7626 23.2224 33.1606 23.7246C33.0402 23.8274 30.1829 26.6142 26.8117 29.9208C21.6052 35.0245 20.6684 35.9554 20.5862 36.1052C20.4951 36.2696 20.4893 36.299 20.4893 36.575C20.4893 36.854 20.4951 36.8775 20.5891 37.0537C20.7066 37.271 20.8622 37.4178 21.0913 37.5265C21.2293 37.5911 21.2909 37.6029 21.5317 37.6029C21.9928 37.6029 21.9722 37.6175 23.2438 36.3754C23.8428 35.7851 26.615 33.0688 29.4018 30.3348C32.1886 27.6038 34.5525 25.3015 34.6583 25.2222C34.9226 25.0196 35.4394 24.77 35.7888 24.676C36.059 24.5997 36.1236 24.5938 36.6111 24.5967C37.0868 24.5967 37.169 24.6055 37.4245 24.6731C38.0001 24.8287 38.4788 25.1106 38.9016 25.5364C39.9324 26.5789 40.0909 28.1559 39.2951 29.398C39.0866 29.7211 39.6035 29.2042 33.8566 34.8395C30.2093 38.4163 29.625 39.0007 29.5545 39.1416C29.484 39.2884 29.4752 39.3384 29.4752 39.5997C29.4752 39.8523 29.4869 39.9139 29.5486 40.0402C29.8276 40.6128 30.5823 40.8155 31.1079 40.4572C31.1813 40.4043 33.3339 38.3106 35.8916 35.8027C38.8458 32.9014 40.6136 31.1894 40.7487 31.0954C41.8588 30.3113 43.3094 30.282 44.4224 31.0249C45.6029 31.809 46.1315 33.1539 45.7879 34.4901C45.6998 34.8337 45.4443 35.327 45.2094 35.6148C45.1007 35.7499 42.4989 38.3194 39.4302 41.3294C33.6305 47.0175 33.7186 46.9265 33.5277 47.3523C33.2722 47.9308 33.2722 48.709 33.5277 49.2904C33.698 49.6722 33.839 49.8308 35.1134 51.0876C36.5876 52.5383 36.5641 52.5207 37.0486 52.5207C37.3129 52.5207 37.3629 52.5119 37.5126 52.4385C38.0412 52.18 38.2526 51.5692 38.0001 51.0406C37.9325 50.8968 37.8738 50.8351 36.4143 49.402C35.3924 48.3977 35.3865 48.386 35.4981 48.1775C35.5304 48.1246 38.0148 45.6667 41.0218 42.7184C44.026 39.77 46.5896 37.2505 46.7129 37.1154C47.3061 36.4693 47.7495 35.5795 47.9375 34.6457C47.9962 34.3609 48.005 34.2258 48.005 33.6825C48.005 33.1392 47.9962 33.0042 47.9375 32.7193C47.4823 30.464 45.6323 28.7461 43.3359 28.4407C42.9982 28.3967 42.3404 28.3879 42.0496 28.4231L41.8764 28.4437L41.894 28.3585C41.9674 27.9973 41.938 27.2044 41.8353 26.6993C41.4564 24.8463 40.1291 23.3634 38.3143 22.7614C37.7182 22.5646 37.6242 22.5529 36.5758 22.5529L35.642 22.5558L35.2603 22.6557Z" fill="#1D2028"/>
<path d="M36.291 26.7111C36.2117 26.7346 36.0972 26.7904 36.0326 26.8286C35.8887 26.9196 26.7882 35.8439 26.565 36.1141C25.9278 36.8805 25.5255 37.8261 25.408 38.8304C25.3522 39.2856 25.3845 40.0021 25.4785 40.4396C25.8162 42.0254 26.8146 43.3175 28.2683 44.0487C29.4135 44.6272 30.6381 44.7799 31.8949 44.5009C32.3207 44.404 32.6496 44.2895 33.0608 44.0928C33.4073 43.9254 33.8947 43.6141 34.159 43.388C34.2471 43.3116 36.385 41.2266 38.9104 38.754C44.1052 33.662 43.6882 34.1113 43.6882 33.6238C43.6882 33.4007 43.6794 33.3507 43.5913 33.1775C43.4034 32.7928 43.0657 32.5872 42.6311 32.5843C42.4255 32.5843 42.3668 32.596 42.1906 32.6783C42.0203 32.7605 41.9145 32.8486 41.4594 33.2979C38.2702 36.443 32.7906 41.7905 32.6379 41.905C32.3765 42.1017 31.9155 42.3279 31.5895 42.4189C30.0096 42.8682 28.3387 42.0665 27.7279 40.563C27.3462 39.6203 27.4636 38.5397 28.0421 37.6675C28.2154 37.4091 27.957 37.6675 33.1841 32.5432C37.7681 28.0443 37.5743 28.247 37.6536 27.8828C37.7475 27.4629 37.495 26.9842 37.078 26.7787C36.846 26.6641 36.5259 26.6348 36.291 26.7111Z" fill="#1D2028"/>
</g>
<path d="M61.9209 55.4571C61.0196 55.0334 60.3943 54.112 60.3943 53.0433C60.3943 51.9747 61.0197 51.0533 61.9393 50.6296C62.4911 50.3716 62.7854 49.782 62.583 49.2107C62.4175 48.7133 62.2152 48.2341 61.9761 47.7735C61.7186 47.2391 61.0932 47.018 60.5231 47.2207C59.6034 47.534 58.5367 47.3313 57.801 46.5943C57.0653 45.8572 56.8446 44.7885 57.1756 43.8672C57.3595 43.3144 57.1572 42.6879 56.6238 42.43C56.1456 42.1904 55.649 41.9878 55.1709 41.8219C54.6191 41.6376 54.0305 41.914 53.7546 42.43C53.3132 43.2776 52.4303 43.8488 51.4003 43.8488C50.3704 43.8488 49.4875 43.2776 49.0461 42.43C48.7702 41.914 48.1817 41.6377 47.6298 41.8219C47.1516 41.9877 46.6734 42.172 46.2136 42.4115C45.6986 42.6695 45.4411 43.2591 45.6066 43.8119C45.8825 44.7148 45.6618 45.7467 44.9445 46.4468C44.2272 47.1654 43.1972 47.3865 42.296 47.1101C41.7258 46.9443 41.1188 47.1838 40.843 47.7182C40.6223 48.1789 40.42 48.6395 40.2544 49.1186C40.0705 49.653 40.328 50.2426 40.8245 50.519C41.6522 50.9612 42.2224 51.8456 42.2224 52.859C42.2224 53.9093 41.6154 54.8122 40.751 55.236C40.236 55.494 39.9785 56.0652 40.144 56.5995C40.2911 57.0786 40.4751 57.5577 40.6958 58.0184C40.9533 58.5711 41.597 58.8291 42.1856 58.6633C43.0869 58.3869 44.0984 58.608 44.8157 59.3081C45.5698 60.0636 45.7721 61.1507 45.4227 62.0904C45.2204 62.6248 45.4411 63.2329 45.9377 63.5093C46.4159 63.7672 46.9125 63.9699 47.4275 64.1542C47.9793 64.3568 48.5678 64.0805 48.8069 63.5461C49.2299 62.6616 50.1496 62.0351 51.198 62.0351C52.2647 62.0351 53.1844 62.6616 53.6074 63.5829C53.8649 64.1357 54.4718 64.4489 55.042 64.2647C55.5386 64.0989 56.0352 63.9146 56.495 63.6751C57.0284 63.4171 57.2491 62.7906 57.0468 62.2379C56.6973 61.2982 56.8996 60.1926 57.6537 59.4371C58.4079 58.6816 59.5298 58.479 60.4678 58.829C61.038 59.0501 61.6817 58.829 61.9577 58.2947C62.1968 57.834 62.3991 57.3549 62.5646 56.8574C62.7486 56.3046 62.4543 55.6967 61.9209 55.4571ZM51.3638 58.7923C48.2003 58.7923 45.6253 56.2126 45.6253 53.0433C45.6253 49.8741 48.2003 47.2944 51.3638 47.2944C54.5273 47.2944 57.1023 49.8741 57.1023 53.0433C57.1023 56.2126 54.5273 58.7923 51.3638 58.7923Z" fill="white" fill-opacity="0.3"/>
<path d="M54.4032 57.1277C53.5019 56.7039 52.8766 55.7826 52.8766 54.7139C52.8766 53.6453 53.502 52.7239 54.4216 52.3002C54.9734 52.0422 55.2677 51.4526 55.0653 50.8813C54.8998 50.3839 54.6975 49.9047 54.4584 49.4441C54.2009 48.9097 53.5755 48.6886 53.0054 48.8913C52.0857 49.2046 51.019 49.0019 50.2833 48.2648C49.5476 47.5278 49.3269 46.4591 49.6579 45.5378C49.8418 44.985 49.6395 44.3585 49.1061 44.1006C48.6279 43.861 48.1313 43.6583 47.6532 43.4925C47.1014 43.3082 46.5128 43.5846 46.2369 44.1006C45.7955 44.9482 44.9126 45.5194 43.8826 45.5194C42.8527 45.5194 41.9698 44.9482 41.5284 44.1006C41.2525 43.5846 40.664 43.3083 40.1121 43.4925C39.6339 43.6583 39.1557 43.8426 38.6959 44.0821C38.1809 44.3401 37.9234 44.9297 38.0889 45.4825C38.3648 46.3854 38.1441 47.4172 37.4268 48.1174C36.7095 48.836 35.6795 49.0571 34.7783 48.7807C34.2081 48.6149 33.6011 48.8544 33.3253 49.3888C33.1046 49.8495 32.9023 50.3101 32.7367 50.7892C32.5528 51.3236 32.8103 51.9132 33.3068 52.1896C34.1345 52.6318 34.7047 53.5162 34.7047 54.5296C34.7047 55.5799 34.0977 56.4828 33.2333 56.9066C32.7183 57.1646 32.4608 57.7358 32.6263 58.2701C32.7734 58.7492 32.9574 59.2283 33.1781 59.689C33.4356 60.2417 34.0793 60.4997 34.6679 60.3338C35.5692 60.0575 36.5807 60.2786 37.298 60.9787C38.0521 61.7342 38.2544 62.8213 37.905 63.761C37.7027 64.2954 37.9234 64.9035 38.42 65.1799C38.8982 65.4378 39.3948 65.6405 39.9098 65.8248C40.4616 66.0274 41.0501 65.751 41.2892 65.2167C41.7122 64.3322 42.6319 63.7057 43.6803 63.7057C44.747 63.7057 45.6667 64.3322 46.0897 65.2535C46.3472 65.8063 46.9541 66.1195 47.5243 65.9353C48.0209 65.7695 48.5175 65.5852 48.9773 65.3457C49.5107 65.0877 49.7314 64.4612 49.5291 63.9084C49.1796 62.9687 49.3819 61.8632 50.136 61.1077C50.8902 60.3522 52.0121 60.1495 52.9501 60.4996C53.5203 60.7207 54.164 60.4996 54.44 59.9652C54.6791 59.5046 54.8814 59.0255 55.0469 58.528C55.2309 57.9752 54.9366 57.3673 54.4032 57.1277ZM43.8461 60.4629C40.6825 60.4629 38.1076 57.8832 38.1076 54.7139C38.1076 51.5447 40.6825 48.965 43.8461 48.965C47.0096 48.965 49.5846 51.5447 49.5846 54.7139C49.5846 57.8832 47.0096 60.4629 43.8461 60.4629Z" fill="white"/>
<defs>
<linearGradient id="paint0_linear_81_1241" x1="15.787" y1="9.86569" x2="60.3244" y2="75.647" gradientUnits="userSpaceOnUse">
<stop stop-color="#ADC7E6"/>
<stop offset="1" stop-color="#ECF2F9"/>
</linearGradient>
<clipPath id="clip0_81_1241">
<rect width="30.0706" height="30.0706" fill="white" transform="translate(19.2118 22.5529)"/>
</clipPath>
</defs>
</svg>
