<svg width="38" height="38" viewBox="0 0 38 38" fill="none" xmlns="http://www.w3.org/2000/svg">
<path d="M32.0625 7.12499H6.72917C5.88931 7.12499 5.08386 6.79136 4.49 6.19749C3.89613 5.60363 3.5625 4.79818 3.5625 3.95832C3.5625 3.11847 3.89613 2.31302 4.49 1.71915C5.08386 1.12529 5.88931 0.791656 6.72917 0.791656H32.0625V7.12499Z" fill="white"/>
<path d="M33.6458 8.70834V35.625C33.6458 36.0449 33.479 36.4477 33.1821 36.7446C32.8852 37.0415 32.4824 37.2083 32.0625 37.2083H6.72917C5.88931 37.2083 5.08386 36.8747 4.49 36.2808C3.89613 35.687 3.5625 34.8815 3.5625 34.0417V3.95834C3.5625 4.7982 3.89613 5.60365 4.49 6.19752C5.08386 6.79138 5.88931 7.12501 6.72917 7.12501H32.0625C32.4824 7.12501 32.8852 7.29183 33.1821 7.58876C33.479 7.88569 33.6458 8.28842 33.6458 8.70834Z" fill="#D8EAFF"/>
<path d="M8.97273 34.0417V7.12501H6.72282C5.88297 7.12501 5.07751 6.79138 4.48365 6.19752C3.88978 5.60365 3.55615 4.7982 3.55615 3.95834V34.0417C3.55615 34.8815 3.88978 35.687 4.48365 36.2808C5.07751 36.8747 5.88297 37.2083 6.72282 37.2083H12.1394C11.2995 37.2083 10.4941 36.8747 9.90023 36.2808C9.30637 35.687 8.97273 34.8815 8.97273 34.0417Z" fill="#C0D7F1"/>
<path d="M33.6395 0.791656H6.72282C5.88297 0.791656 5.07751 1.12529 4.48365 1.71915C3.88978 2.31302 3.55615 3.11847 3.55615 3.95832M3.55615 3.95832C3.55615 4.79818 3.88978 5.60363 4.48365 6.19749C5.07751 6.79136 5.88297 7.12499 6.72282 7.12499H32.0562C32.4761 7.12499 32.8788 7.29181 33.1757 7.58874C33.4727 7.88567 33.6395 8.2884 33.6395 8.70832V35.625C33.6395 36.0449 33.4727 36.4476 33.1757 36.7446C32.8788 37.0415 32.4761 37.2083 32.0562 37.2083H6.72282C5.88297 37.2083 5.07751 36.8747 4.48365 36.2808C3.88978 35.687 3.55615 34.8815 3.55615 34.0417V3.95832Z" stroke="#00303E" stroke-linecap="round" stroke-linejoin="round"/>
<path d="M6.7229 3.95834H32.0562" stroke="#00303E" stroke-linecap="round" stroke-linejoin="round"/>
<path d="M6 21H31.3333H6Z" fill="#1D2028"/>
<path d="M6 21H31.3333" stroke="#1D2028" stroke-linecap="round" stroke-linejoin="round"/>
<path d="M6 25H25H6Z" fill="#1D2028"/>
<path d="M6 25H25" stroke="#1D2028" stroke-linecap="round" stroke-linejoin="round"/>
<path d="M6 30H26H6Z" fill="#1D2028"/>
<path d="M6 30H26" stroke="#1D2028" stroke-linecap="round" stroke-linejoin="round"/>
<path d="M29 30H31H29Z" fill="#1D2028"/>
<path d="M29 30H31" stroke="#1D2028" stroke-linecap="round" stroke-linejoin="round"/>
<path d="M21.3867 14.0898C21.3867 14.7331 21.2669 15.2708 21.0273 15.7031C20.7878 16.1328 20.4401 16.457 19.9844 16.6758C19.5286 16.8919 18.9792 17 18.3359 17H16.75V11.2891H18.5078C19.099 11.2891 19.6094 11.3958 20.0391 11.6094C20.4688 11.8203 20.8008 12.1341 21.0352 12.5508C21.2695 12.9648 21.3867 13.4779 21.3867 14.0898ZM20.4102 14.1172C20.4102 13.6484 20.3359 13.263 20.1875 12.9609C20.0417 12.6589 19.8255 12.4349 19.5391 12.2891C19.2552 12.1406 18.9049 12.0664 18.4883 12.0664H17.6875V16.2148H18.3516C19.0417 16.2148 19.5573 16.0391 19.8984 15.6875C20.2396 15.3359 20.4102 14.8125 20.4102 14.1172ZM26.3516 14.8281C26.3516 15.1875 26.3047 15.5065 26.2109 15.7852C26.1172 16.0638 25.9805 16.2995 25.8008 16.4922C25.6211 16.6823 25.4049 16.8281 25.1523 16.9297C24.8997 17.0286 24.6146 17.0781 24.2969 17.0781C24 17.0781 23.7279 17.0286 23.4805 16.9297C23.2331 16.8281 23.0182 16.6823 22.8359 16.4922C22.6562 16.2995 22.5169 16.0638 22.418 15.7852C22.319 15.5065 22.2695 15.1875 22.2695 14.8281C22.2695 14.3516 22.3516 13.9479 22.5156 13.6172C22.6823 13.2839 22.9193 13.0299 23.2266 12.8555C23.5339 12.681 23.8997 12.5938 24.3242 12.5938C24.7227 12.5938 25.0742 12.681 25.3789 12.8555C25.6836 13.0299 25.9219 13.2839 26.0938 13.6172C26.2656 13.9505 26.3516 14.3542 26.3516 14.8281ZM23.2148 14.8281C23.2148 15.1432 23.2526 15.4128 23.3281 15.6367C23.4062 15.8607 23.526 16.0326 23.6875 16.1523C23.849 16.2695 24.0573 16.3281 24.3125 16.3281C24.5677 16.3281 24.776 16.2695 24.9375 16.1523C25.099 16.0326 25.2174 15.8607 25.293 15.6367C25.3685 15.4128 25.4062 15.1432 25.4062 14.8281C25.4062 14.513 25.3685 14.2461 25.293 14.0273C25.2174 13.806 25.099 13.638 24.9375 13.5234C24.776 13.4062 24.5664 13.3477 24.3086 13.3477C23.9284 13.3477 23.651 13.4753 23.4766 13.7305C23.3021 13.9857 23.2148 14.3516 23.2148 14.8281ZM29.1484 17.0781C28.7396 17.0781 28.3854 16.9987 28.0859 16.8398C27.7865 16.681 27.556 16.4375 27.3945 16.1094C27.2331 15.7812 27.1523 15.3646 27.1523 14.8594C27.1523 14.3333 27.2409 13.9036 27.418 13.5703C27.5951 13.237 27.8398 12.9909 28.1523 12.832C28.4674 12.6732 28.8281 12.5938 29.2344 12.5938C29.4922 12.5938 29.7253 12.6198 29.9336 12.6719C30.1445 12.7214 30.3229 12.7826 30.4688 12.8555L30.1953 13.5898C30.0365 13.5247 29.8737 13.4701 29.707 13.4258C29.5404 13.3815 29.3802 13.3594 29.2266 13.3594C28.974 13.3594 28.763 13.4154 28.5938 13.5273C28.4271 13.6393 28.3021 13.806 28.2188 14.0273C28.138 14.2487 28.0977 14.5234 28.0977 14.8516C28.0977 15.1693 28.1393 15.4375 28.2227 15.6562C28.306 15.8724 28.4297 16.0365 28.5938 16.1484C28.7578 16.2578 28.9596 16.3125 29.1992 16.3125C29.4362 16.3125 29.6484 16.2839 29.8359 16.2266C30.0234 16.1693 30.2005 16.0951 30.3672 16.0039V16.8008C30.2031 16.8945 30.0273 16.9635 29.8398 17.0078C29.6523 17.0547 29.4219 17.0781 29.1484 17.0781Z" fill="#1D2028"/>
</svg>
