<svg width="262" height="248" viewBox="0 0 262 248" fill="none" xmlns="http://www.w3.org/2000/svg">
<path d="M225.749 216.65C225.206 226.33 213.806 232.802 203.872 232.245C193.937 231.688 188.499 222.456 189.042 212.775C189.584 203.095 199.782 197.904 205.798 197.89C215.732 198.447 226.292 206.97 225.749 216.65Z" fill="#D7E2DE"/>
<circle cx="203.261" cy="214.261" r="17.5109" stroke="black" stroke-width="1.5"/>
<path d="M171 175L192.5 200.5" stroke="black" stroke-width="1.5"/>
<path d="M103 226.036C103 238.716 89.25 248 76.8349 248C64.4198 248 57 236.343 57 223.663C57 210.983 69.3417 203.459 76.8349 203C89.25 203 103 213.356 103 226.036Z" fill="#D7E2DE"/>
<circle cx="80.8" cy="223.8" r="23.05" stroke="black" stroke-width="1.5"/>
<path d="M104.5 182.5L90.5 202.5" stroke="black" stroke-width="1.5"/>
<path d="M43.0437 150.084C32.0671 156.432 16.8471 148.66 10.3616 137.445C3.87603 126.23 10.0908 113.692 21.0674 107.345C32.0441 100.997 45.0046 108.378 49.3165 114.917C55.802 126.131 54.0203 143.736 43.0437 150.084Z" fill="#D7E2DE"/>
<circle cx="27.8" cy="123.8" r="23.05" stroke="black" stroke-width="1.5"/>
<path d="M76 125H51" stroke="black" stroke-width="1.5"/>
<path d="M100.82 38.8038C94.4927 46.9197 80.6353 45.6703 72.3065 39.1768C63.9777 32.6832 64.8169 21.3415 71.1444 13.2256C77.4719 5.10972 89.5062 6.74907 94.7622 10.3744C103.091 16.8679 107.148 30.6879 100.82 38.8038Z" fill="#D7E2DE"/>
<circle cx="84.2608" cy="22.2609" r="17.5109" stroke="black" stroke-width="1.5"/>
<path d="M108 61.5L93.5 37" stroke="black" stroke-width="1.5"/>
<path d="M261.133 129.767C261.133 143.179 245.889 153 232.124 153C218.36 153 210.133 140.67 210.133 127.257C210.133 113.845 223.817 105.886 232.124 105.4C245.889 105.4 261.133 116.354 261.133 129.767Z" fill="#D7E2DE"/>
<circle cx="232.8" cy="125.8" r="23.05" stroke="black" stroke-width="1.5"/>
<path d="M209.5 124H198" stroke="black" stroke-width="1.5"/>
<path d="M209 31.0357C209 43.7157 194.652 53 181.697 53C168.742 53 161 41.3433 161 28.6633C161 15.9833 173.878 8.4592 181.697 8C194.652 8 209 18.3557 209 31.0357Z" fill="#D7E2DE"/>
<circle cx="187.8" cy="30.8" r="23.05" stroke="black" stroke-width="1.5"/>
<path d="M165.5 70.5L175.5 51" stroke="black" stroke-width="1.5"/>
<path d="M153.132 71.2129C155.211 71.5901 157.244 72.0755 159.225 72.6625C160.289 72.9778 161.062 73.8863 161.248 74.9806L163.528 88.3982C163.841 90.2403 165.743 91.3512 167.501 90.7184L180.077 86.1921C181.135 85.8113 182.322 86.0494 183.119 86.8422C185.965 89.6731 188.502 92.7936 190.69 96.1447C191.294 97.069 191.298 98.2544 190.741 99.2068L184.047 110.636C183.102 112.249 183.846 114.323 185.599 114.968L197.803 119.46C198.854 119.846 199.608 120.785 199.714 121.9C200.093 125.909 200.049 130.011 199.543 134.152C199.41 135.246 198.652 136.155 197.614 136.526L185.471 140.86C183.712 141.488 182.948 143.555 183.876 145.176L190.215 156.248C190.768 157.214 190.746 158.41 190.121 159.33C187.775 162.779 185.07 165.939 182.068 168.766C181.262 169.524 180.093 169.737 179.056 169.352L167.135 164.929C165.383 164.279 163.47 165.371 163.139 167.21L160.879 179.755C160.683 180.843 159.907 181.74 158.847 182.049C154.913 183.194 150.827 183.922 146.649 184.19C145.539 184.261 144.497 183.671 143.947 182.704L137.617 171.58C136.693 169.956 134.525 169.563 133.09 170.758L123.113 179.068C122.266 179.773 121.099 179.963 120.09 179.523C116.311 177.872 112.77 175.833 109.506 173.465C108.6 172.807 108.175 171.68 108.377 170.578L110.73 157.702C111.066 155.864 109.659 154.169 107.79 154.162L94.4446 154.113C93.341 154.109 92.3229 153.502 91.8339 152.513C90.0774 148.959 88.6854 145.211 87.6969 141.328C87.4196 140.238 87.8182 139.095 88.6838 138.378L99.0537 129.787C100.492 128.595 100.503 126.392 99.0766 125.186L88.6345 116.358C87.7872 115.642 87.3981 114.515 87.6667 113.438C88.6303 109.577 89.9735 105.897 91.6499 102.433C92.1387 101.422 93.177 100.806 94.2992 100.813L108.053 100.899C109.921 100.911 111.345 99.2301 111.028 97.3888L108.679 83.7814C108.489 82.6799 108.923 81.5587 109.833 80.9092C112.992 78.6544 116.378 76.7209 119.939 75.1455C120.961 74.6936 122.146 74.8903 122.997 75.6135L133.516 84.5527C134.939 85.7627 137.111 85.3908 138.051 83.7761L144.938 71.9468C145.503 70.9754 146.565 70.395 147.685 70.4896C149.493 70.6423 151.31 70.8824 153.132 71.2129Z" fill="#E6E6E6"/>
<mask id="path-20-inside-1_1003_4018" fill="white">
<path d="M145.944 66.5205C148.024 66.8978 150.057 67.3831 152.037 67.9701C153.102 68.2854 153.875 69.194 154.061 70.2882L156.34 83.7058C156.653 85.5479 158.556 86.6588 160.314 86.0261L172.89 81.4997C173.948 81.1189 175.135 81.357 175.932 82.1499C178.778 84.9807 181.315 88.1013 183.503 91.4524C184.106 92.3766 184.111 93.562 183.553 94.5144L176.859 105.944C175.915 107.556 176.658 109.63 178.412 110.276L190.616 114.767C191.666 115.154 192.421 116.093 192.526 117.208C192.905 121.217 192.861 125.319 192.356 129.46C192.222 130.554 191.465 131.463 190.427 131.833L178.284 136.168C176.524 136.796 175.761 138.862 176.689 140.484L183.028 151.556C183.58 152.521 183.559 153.717 182.933 154.637C180.588 158.087 177.882 161.247 174.88 164.073C174.075 164.832 172.906 165.044 171.869 164.659L159.947 160.236C158.196 159.587 156.283 160.678 155.951 162.517L153.691 175.063C153.496 176.15 152.72 177.048 151.659 177.357C147.726 178.502 143.64 179.229 139.462 179.497C138.351 179.569 137.31 178.979 136.759 178.011L130.43 166.888C129.506 165.264 127.338 164.87 125.902 166.066L115.925 174.376C115.079 175.081 113.912 175.271 112.902 174.83C109.124 173.18 105.583 171.141 102.319 168.772C101.413 168.115 100.988 166.987 101.189 165.886L103.543 153.009C103.879 151.171 102.471 149.477 100.603 149.47L87.2572 149.421C86.1536 149.417 85.1355 148.81 84.6465 147.821C82.8899 144.266 81.4979 140.519 80.5095 136.635C80.2322 135.546 80.6307 134.403 81.4964 133.686L91.8663 125.095C93.3051 123.903 93.316 121.7 91.8892 120.494L81.4471 111.666C80.5998 110.95 80.2107 109.822 80.4793 108.746C81.4429 104.884 82.7861 101.205 84.4625 97.7402C84.9513 96.7301 85.9896 96.1132 87.1118 96.1202L100.865 96.2066C102.734 96.2184 104.158 94.5377 103.84 92.6965L101.492 79.0891C101.302 77.9876 101.736 76.8663 102.646 76.2168C105.804 73.962 109.191 72.0285 112.752 70.4531C113.773 70.0012 114.958 70.1979 115.809 70.9211L126.328 79.8603C127.752 81.0703 129.923 80.6984 130.864 79.0837L137.75 67.2545C138.316 66.283 139.377 65.7026 140.497 65.7972C142.305 65.9499 144.123 66.19 145.944 66.5205Z"/>
</mask>
<path d="M145.944 66.5205L146.212 65.0446L146.212 65.0446L145.944 66.5205ZM137.75 67.2545L139.046 68.0091L137.75 67.2545ZM126.328 79.8603L125.357 81.0033L126.328 79.8603ZM130.864 79.0837L129.567 78.329L130.864 79.0837ZM115.809 70.9211L114.838 72.0641L115.809 70.9211ZM101.492 79.0891L100.014 79.3442L101.492 79.0891ZM100.865 96.2066L100.875 94.7067L100.865 96.2066ZM103.84 92.6965L102.362 92.9516L103.84 92.6965ZM84.4625 97.7402L83.1122 97.0869L84.4625 97.7402ZM87.1118 96.1202L87.1212 94.6203L87.1118 96.1202ZM81.4471 111.666L80.4787 112.811L81.4471 111.666ZM91.8663 125.095L90.9094 123.94L91.8663 125.095ZM91.8892 120.494L90.9208 121.639L91.8892 120.494ZM80.5095 136.635L79.0558 137.005L80.5095 136.635ZM81.4964 133.686L80.5394 132.531L81.4964 133.686ZM87.2572 149.421L87.2517 150.921L87.2572 149.421ZM84.6465 147.821L85.9913 147.156L84.6465 147.821ZM100.603 149.47L100.597 150.97L100.603 149.47ZM102.319 168.772L103.2 167.558L102.319 168.772ZM115.925 174.376L114.965 173.223L115.925 174.376ZM112.902 174.83L113.503 173.456L112.902 174.83ZM130.43 166.888L129.126 167.629L130.43 166.888ZM125.902 166.066L124.942 164.914L125.902 166.066ZM139.462 179.497L139.558 180.994L139.462 179.497ZM136.759 178.011L135.456 178.753L136.759 178.011ZM153.691 175.063L155.168 175.329L153.691 175.063ZM151.659 177.357L151.24 175.917L151.659 177.357ZM159.947 160.236L160.469 158.83L159.947 160.236ZM155.951 162.517L157.428 162.783L155.951 162.517ZM171.869 164.659L171.347 166.066L171.869 164.659ZM183.028 151.556L181.726 152.301L183.028 151.556ZM182.933 154.637L184.174 155.481L182.933 154.637ZM178.284 136.168L177.78 134.755L178.284 136.168ZM176.689 140.484L175.387 141.229L176.689 140.484ZM192.356 129.46L190.867 129.278L192.356 129.46ZM192.526 117.208L194.02 117.066L192.526 117.208ZM176.859 105.944L175.565 105.186L176.859 105.944ZM178.412 110.276L177.894 111.683L178.412 110.276ZM183.503 91.4524L182.247 92.2723L183.503 91.4524ZM183.553 94.5144L184.848 95.2725L183.553 94.5144ZM172.89 81.4997L172.382 80.0883L172.89 81.4997ZM175.932 82.1499L174.874 83.2134L175.932 82.1499ZM156.34 83.7058L157.819 83.4546L156.34 83.7058ZM160.314 86.0261L160.822 87.4374L160.314 86.0261ZM152.037 67.9701L151.611 69.4083L152.037 67.9701ZM154.061 70.2882L155.539 70.037L154.061 70.2882ZM145.944 66.5205L145.676 67.9964C147.703 68.364 149.682 68.8367 151.611 69.4083L152.037 67.9701L152.464 66.5319C150.431 65.9294 148.345 65.4315 146.212 65.0446L145.944 66.5205ZM154.061 70.2882L152.582 70.5395L154.861 83.957L156.34 83.7058L157.819 83.4546L155.539 70.037L154.061 70.2882ZM160.314 86.0261L160.822 87.4374L173.398 82.9111L172.89 81.4997L172.382 80.0883L159.806 84.6147L160.314 86.0261ZM175.932 82.1499L174.874 83.2134C177.645 85.9699 180.116 89.0087 182.247 92.2723L183.503 91.4524L184.759 90.6324C182.514 87.1938 179.911 83.9915 176.99 81.0863L175.932 82.1499ZM183.553 94.5144L182.259 93.7564L175.565 105.186L176.859 105.944L178.154 106.702L184.848 95.2725L183.553 94.5144ZM178.412 110.276L177.894 111.683L190.098 116.175L190.616 114.767L191.134 113.36L178.93 108.868L178.412 110.276ZM192.526 117.208L191.033 117.349C191.402 121.251 191.359 125.245 190.867 129.278L192.356 129.46L193.845 129.641C194.363 125.393 194.409 121.182 194.02 117.066L192.526 117.208ZM190.427 131.833L189.922 130.421L177.78 134.755L178.284 136.168L178.788 137.58L190.931 133.246L190.427 131.833ZM176.689 140.484L175.387 141.229L181.726 152.301L183.028 151.556L184.329 150.81L177.991 139.738L176.689 140.484ZM182.933 154.637L181.693 153.794C179.41 157.152 176.775 160.229 173.852 162.981L174.88 164.073L175.909 165.165C178.989 162.264 181.766 159.021 184.174 155.481L182.933 154.637ZM171.869 164.659L172.39 163.253L160.469 158.83L159.947 160.236L159.426 161.643L171.347 166.066L171.869 164.659ZM155.951 162.517L154.475 162.251L152.215 174.797L153.691 175.063L155.168 175.329L157.428 162.783L155.951 162.517ZM151.659 177.357L151.24 175.917C147.41 177.031 143.433 177.74 139.366 178L139.462 179.497L139.558 180.994C143.847 180.719 148.041 179.972 152.079 178.797L151.659 177.357ZM136.759 178.011L138.063 177.27L131.733 166.146L130.43 166.888L129.126 167.629L135.456 178.753L136.759 178.011ZM125.902 166.066L124.942 164.914L114.965 173.223L115.925 174.376L116.885 175.528L126.862 167.219L125.902 166.066ZM112.902 174.83L113.503 173.456C109.825 171.849 106.378 169.864 103.2 167.558L102.319 168.772L101.438 169.986C104.788 172.418 108.423 174.51 112.302 176.205L112.902 174.83ZM101.189 165.886L102.665 166.156L105.018 153.279L103.543 153.009L102.067 152.739L99.7136 165.616L101.189 165.886ZM100.603 149.47L100.608 147.97L87.2627 147.921L87.2572 149.421L87.2517 150.921L100.597 150.97L100.603 149.47ZM84.6465 147.821L85.9913 147.156C84.2808 143.695 82.9255 140.046 81.9631 136.265L80.5095 136.635L79.0558 137.005C80.0704 140.992 81.4991 144.838 83.3018 148.485L84.6465 147.821ZM81.4964 133.686L82.4534 134.841L92.8233 126.25L91.8663 125.095L90.9094 123.94L80.5394 132.531L81.4964 133.686ZM91.8892 120.494L92.8576 119.348L82.4155 110.52L81.4471 111.666L80.4787 112.811L90.9208 121.639L91.8892 120.494ZM80.4793 108.746L81.9347 109.109C82.8732 105.348 84.181 101.766 85.8127 98.3935L84.4625 97.7402L83.1122 97.0869C81.3912 100.644 80.0127 104.421 79.024 108.383L80.4793 108.746ZM87.1118 96.1202L87.1023 97.6202L100.856 97.7066L100.865 96.2066L100.875 94.7067L87.1212 94.6203L87.1118 96.1202ZM103.84 92.6965L105.318 92.4413L102.97 78.8339L101.492 79.0891L100.014 79.3442L102.362 92.9516L103.84 92.6965ZM102.646 76.2168L103.517 77.4377C106.593 75.2418 109.891 73.359 113.359 71.8249L112.752 70.4531L112.145 69.0813C108.491 70.6981 105.015 72.6822 101.774 74.996L102.646 76.2168ZM115.809 70.9211L114.838 72.0641L125.357 81.0033L126.328 79.8603L127.3 78.7173L116.781 69.7781L115.809 70.9211ZM130.864 79.0837L132.16 79.8384L139.046 68.0091L137.75 67.2545L136.454 66.4998L129.567 78.329L130.864 79.0837ZM140.497 65.7972L140.371 67.2919C142.132 67.4406 143.902 67.6744 145.676 67.9964L145.944 66.5205L146.212 65.0446C144.343 64.7056 142.479 64.4592 140.624 64.3025L140.497 65.7972ZM137.75 67.2545L139.046 68.0091C139.334 67.5146 139.855 67.2483 140.371 67.2919L140.497 65.7972L140.624 64.3025C138.899 64.1569 137.297 65.0515 136.454 66.4998L137.75 67.2545ZM126.328 79.8603L125.357 81.0033C127.492 82.8183 130.75 82.2605 132.16 79.8384L130.864 79.0837L129.567 78.329C129.097 79.1364 128.011 79.3223 127.3 78.7173L126.328 79.8603ZM112.752 70.4531L113.359 71.8249C113.829 71.6167 114.405 71.696 114.838 72.0641L115.809 70.9211L116.781 69.7781C115.512 68.6998 113.717 68.3858 112.145 69.0813L112.752 70.4531ZM101.492 79.0891L102.97 78.8339C102.873 78.2732 103.098 77.7369 103.517 77.4377L102.646 76.2168L101.774 74.996C100.374 75.9957 99.7301 77.7019 100.014 79.3442L101.492 79.0891ZM100.865 96.2066L100.856 97.7066C103.658 97.7242 105.795 95.2032 105.318 92.4413L103.84 92.6965L102.362 92.9516C102.521 93.8722 101.809 94.7125 100.875 94.7067L100.865 96.2066ZM84.4625 97.7402L85.8127 98.3935C86.0376 97.9289 86.5309 97.6166 87.1023 97.6202L87.1118 96.1202L87.1212 94.6203C85.4483 94.6097 83.8649 95.5313 83.1122 97.0869L84.4625 97.7402ZM81.4471 111.666L82.4155 110.52C81.9843 110.156 81.8108 109.605 81.9347 109.109L80.4793 108.746L79.024 108.383C78.6106 110.039 79.2152 111.743 80.4787 112.811L81.4471 111.666ZM91.8663 125.095L92.8233 126.25C94.9814 124.462 94.9979 121.157 92.8576 119.348L91.8892 120.494L90.9208 121.639C91.6342 122.242 91.6287 123.344 90.9094 123.94L91.8663 125.095ZM80.5095 136.635L81.9631 136.265C81.8355 135.764 82.0126 135.206 82.4534 134.841L81.4964 133.686L80.5394 132.531C79.2489 133.6 78.6288 135.328 79.0558 137.005L80.5095 136.635ZM87.2572 149.421L87.2627 147.921C86.7009 147.919 86.2166 147.612 85.9913 147.156L84.6465 147.821L83.3018 148.485C84.0544 150.008 85.6062 150.915 87.2517 150.921L87.2572 149.421ZM103.543 153.009L105.018 153.279C105.522 150.522 103.411 147.98 100.608 147.97L100.603 149.47L100.597 150.97C101.531 150.973 102.235 151.821 102.067 152.739L103.543 153.009ZM102.319 168.772L103.2 167.558C102.783 167.256 102.562 166.716 102.665 166.156L101.189 165.886L99.7136 165.616C99.4134 167.258 100.043 168.974 101.438 169.986L102.319 168.772ZM115.925 174.376L114.965 173.223C114.535 173.582 113.968 173.659 113.503 173.456L112.902 174.83L112.302 176.205C113.856 176.884 115.624 176.579 116.885 175.528L115.925 174.376ZM130.43 166.888L131.733 166.146C130.347 163.71 127.096 163.12 124.942 164.914L125.902 166.066L126.862 167.219C127.58 166.621 128.664 166.817 129.126 167.629L130.43 166.888ZM139.462 179.497L139.366 178C138.855 178.033 138.343 177.762 138.063 177.27L136.759 178.011L135.456 178.753C136.276 180.195 137.848 181.104 139.558 180.994L139.462 179.497ZM153.691 175.063L152.215 174.797C152.115 175.351 151.729 175.774 151.24 175.917L151.659 177.357L152.079 178.797C153.711 178.322 154.876 176.95 155.168 175.329L153.691 175.063ZM159.947 160.236L160.469 158.83C157.842 157.855 154.972 159.493 154.475 162.251L155.951 162.517L157.428 162.783C157.593 161.864 158.55 161.318 159.426 161.643L159.947 160.236ZM174.88 164.073L173.852 162.981C173.481 163.331 172.918 163.449 172.39 163.253L171.869 164.659L171.347 166.066C172.893 166.639 174.669 166.333 175.909 165.165L174.88 164.073ZM183.028 151.556L181.726 152.301C182.007 152.792 181.981 153.37 181.693 153.794L182.933 154.637L184.174 155.481C185.137 154.064 185.154 152.25 184.329 150.81L183.028 151.556ZM178.284 136.168L177.78 134.755C175.14 135.697 173.995 138.797 175.387 141.229L176.689 140.484L177.991 139.738C177.527 138.928 177.908 137.895 178.788 137.58L178.284 136.168ZM192.356 129.46L190.867 129.278C190.805 129.782 190.451 130.232 189.922 130.421L190.427 131.833L190.931 133.246C192.479 132.694 193.639 131.325 193.845 129.641L192.356 129.46ZM190.616 114.767L190.098 116.175C190.633 116.372 190.984 116.836 191.033 117.349L192.526 117.208L194.02 117.066C193.857 115.35 192.7 113.936 191.134 113.36L190.616 114.767ZM176.859 105.944L175.565 105.186C174.148 107.604 175.263 110.715 177.894 111.683L178.412 110.276L178.93 108.868C178.053 108.545 177.681 107.508 178.154 106.702L176.859 105.944ZM183.503 91.4524L182.247 92.2723C182.525 92.6984 182.543 93.2716 182.259 93.7564L183.553 94.5144L184.848 95.2725C185.679 93.8524 185.687 92.0548 184.759 90.6324L183.503 91.4524ZM172.89 81.4997L173.398 82.9111C173.937 82.7172 174.507 82.8483 174.874 83.2134L175.932 82.1499L176.99 81.0863C175.762 79.8656 173.959 79.5207 172.382 80.0883L172.89 81.4997ZM156.34 83.7058L154.861 83.957C155.331 86.7202 158.185 88.3866 160.822 87.4374L160.314 86.0261L159.806 84.6147C158.927 84.9311 157.976 84.3756 157.819 83.4546L156.34 83.7058ZM152.037 67.9701L151.611 69.4083C152.101 69.5535 152.487 69.9824 152.582 70.5395L154.061 70.2882L155.539 70.037C155.262 68.4055 154.102 67.0174 152.464 66.5319L152.037 67.9701Z" fill="black" mask="url(#path-20-inside-1_1003_4018)"/>
<rect x="111" y="117.306" width="51" height="16" rx="3" fill="#B175BB"/>
<path d="M157.538 146.998L152 127.306L172.308 132.229L167.385 137.767L176 144.536L169.231 151.306L162.462 142.69L157.538 146.998Z" fill="#D9A1E3"/>
<rect x="111" y="139.306" width="51" height="16" rx="3" fill="#E0E2E9"/>
<rect x="111" y="95.3057" width="51" height="16" rx="3" fill="#E0E2E9"/>
<rect x="109" y="137.306" width="51" height="15" rx="3" stroke="black" stroke-linecap="round" stroke-dasharray="1 5"/>
<path d="M134.5 115.306H112C110.343 115.306 109 116.649 109 118.306V127.306C109 128.963 110.343 130.306 112 130.306H157C158.657 130.306 160 128.963 160 127.306V122.806V118.306C160 116.649 158.657 115.306 157 115.306H147.25" stroke="#1D2028" stroke-linecap="round"/>
<path d="M153.769 144.998L148 125.306L169.154 130.229L164.026 135.767L173 142.536L165.949 149.306L158.897 140.69L153.769 144.998Z" fill="white" stroke="#1D2028"/>
<rect x="109" y="93.3057" width="51" height="15" rx="3" stroke="black" stroke-linecap="round" stroke-dasharray="1 5"/>
<path d="M119.774 105L119.202 103.481H116.053L115.472 105H114.051L116.732 97.998H118.514L121.204 105H119.774ZM116.502 102.271H118.743L117.62 99.3115L116.502 102.271ZM125.159 97.998L125.15 98.0029C125.877 98.0029 126.463 98.252 126.912 98.75C127.362 99.248 127.586 99.8096 127.586 100.435C127.586 101.074 127.362 101.641 126.912 102.129C126.463 102.617 125.858 102.861 125.101 102.861H123.241V105H121.878V97.998H125.159ZM125.047 101.646L125.037 101.636C125.394 101.636 125.682 101.514 125.907 101.274C126.131 101.035 126.243 100.757 126.243 100.439C126.243 100.122 126.136 99.8438 125.921 99.6045C125.706 99.3652 125.438 99.2432 125.111 99.2432H123.231V101.646H125.047ZM128.441 105V97.998H129.832V105H128.441Z" fill="#2D2A2D"/>
</svg>
