<svg width="95" height="72" viewBox="0 0 95 72" fill="none" xmlns="http://www.w3.org/2000/svg">
<path d="M66.9824 0C69.4708 0 69.6944 0.0281161 71.1094 0.495117C75.4168 1.92407 78.5677 5.44373 79.4668 9.8418C79.7108 11.0407 79.7797 12.9229 79.6055 13.7803L79.5635 13.9824L79.9756 13.9336C80.6658 13.85 82.2269 13.8711 83.0283 13.9756C88.4789 14.7006 92.8698 18.7779 93.9502 24.1309C94.0896 24.8069 94.1104 25.1276 94.1104 26.417C94.1104 27.7064 94.0896 28.027 93.9502 28.7031C93.5041 30.9196 92.4519 33.032 91.0439 34.5654C90.7497 34.8875 84.6647 40.8671 77.5352 47.8643C70.4034 54.8567 64.5105 60.6871 64.4248 60.8213C64.1599 61.3162 64.174 61.3447 66.5996 63.7285C70.0625 67.1286 70.203 67.2759 70.3633 67.6172C70.9627 68.8718 70.4607 70.3222 69.2061 70.9355C68.8508 71.1097 68.7317 71.1309 68.1045 71.1309C66.9549 71.1309 67.01 71.172 63.5117 67.7295C60.4867 64.7463 60.1523 64.369 59.748 63.4629C59.1418 62.0829 59.1417 60.2363 59.748 58.8633C60.2011 57.8526 59.9918 58.0685 73.7578 44.5674C81.0416 37.423 87.2167 31.3236 87.4746 31.0029C88.0322 30.3199 88.6395 29.1495 88.8486 28.334C89.6641 25.1627 88.4091 21.9705 85.6074 20.1094C82.9658 18.346 79.5224 18.4154 76.8877 20.2764C76.5671 20.4994 72.3704 24.5627 65.3584 31.4492C59.2874 37.4017 54.1782 42.3716 54.0039 42.4971C52.7563 43.3471 50.9649 42.8667 50.3027 41.5078C50.1564 41.2081 50.1289 41.0613 50.1289 40.4619C50.1289 39.8416 50.1501 39.7225 50.3174 39.374C50.4857 39.0386 51.8754 37.6488 60.5283 29.1631C74.1689 15.7873 72.9426 17.0138 73.4375 16.2471C75.3261 13.2988 74.9493 9.55632 72.5029 7.08203C71.4992 6.07136 70.3632 5.40165 68.9971 5.03223C68.3908 4.87194 68.1955 4.85156 67.0664 4.85156C65.9097 4.84459 65.756 4.85798 65.1152 5.03906C64.2859 5.26208 63.059 5.85503 62.4316 6.33594C62.1807 6.52413 56.5696 11.9886 49.9551 18.4707C43.3404 24.9599 36.7598 31.4076 35.3379 32.8086C32.32 35.7568 32.3687 35.7217 31.2744 35.7217C30.7033 35.7217 30.5568 35.6942 30.2295 35.541C29.6859 35.2831 29.3159 34.9346 29.0371 34.4189C28.8141 34.0007 28.7998 33.9444 28.7998 33.2822C28.7998 32.6273 28.8142 32.5573 29.0303 32.167C29.2264 31.8107 31.4518 29.5992 43.8066 17.4883C51.8084 9.63988 58.5912 3.02521 58.877 2.78125C60.3058 1.58944 61.9855 0.732028 63.8604 0.244141L64.7666 0.00683594L66.9824 0ZM66.3066 9.87012C66.8643 9.68889 67.6242 9.75844 68.1748 10.0303C69.1645 10.5182 69.764 11.6547 69.541 12.6514C69.3531 13.5151 69.8113 13.0364 58.9326 23.7129C46.5282 35.8734 47.1383 35.2622 46.7275 35.875C45.3544 37.9451 45.0754 40.5106 45.9814 42.748C47.4312 46.3168 51.3975 48.2198 55.1475 47.1533C55.9211 46.9373 57.0154 46.4006 57.6357 45.9336C57.9982 45.6618 71.0046 32.969 78.5742 25.5039C79.6545 24.4376 79.9054 24.2283 80.3096 24.0332C80.7278 23.838 80.8676 23.8105 81.3555 23.8105C82.3869 23.8176 83.1887 24.3048 83.6348 25.2178C83.8438 25.629 83.8643 25.7478 83.8643 26.2773C83.8643 27.4344 84.8543 26.3682 72.5244 38.4541C66.5301 44.323 61.4552 49.2719 61.2461 49.4531C60.6188 49.9898 59.4621 50.7287 58.6396 51.126C57.6638 51.593 56.8827 51.8647 55.8721 52.0947C52.889 52.7568 49.9829 52.3945 47.2646 51.0215C43.8144 49.2859 41.4441 46.219 40.6426 42.4551C40.4196 41.4165 40.3432 39.716 40.4756 38.6357C40.7544 36.252 41.7092 34.0077 43.2217 32.1885C43.7514 31.5472 65.3518 10.3645 65.6934 10.1484C65.8467 10.0578 66.1185 9.92588 66.3066 9.87012Z" fill="#F1F4F9"/>
<path d="M38.1826 11.2695C40.6708 11.2695 40.8939 11.2977 42.3086 11.7646C46.6161 13.1935 49.7668 16.7133 50.666 21.1113C50.91 22.3102 50.9799 24.1925 50.8057 25.0498L50.7637 25.252L51.1748 25.2031C51.8648 25.1195 53.4259 25.1406 54.2275 25.2451C59.6782 25.97 64.07 30.0473 65.1504 35.4004C65.2898 36.0764 65.3105 36.3971 65.3105 37.6865C65.3105 38.9759 65.2898 39.2967 65.1504 39.9727C64.7043 42.1892 63.6511 44.3015 62.2432 45.835C61.9465 46.1594 55.8633 52.1382 48.7354 59.1338C42.0541 65.6846 36.4626 71.2178 35.7119 72.001H30.5088C30.5531 71.3418 30.6981 70.6972 30.9473 70.1328C31.4003 69.1221 31.1919 69.3381 44.958 55.8369C52.2394 48.6949 58.4132 42.5976 58.6748 42.2734C59.2324 41.5904 59.8387 40.419 60.0479 39.6035C60.8634 36.4321 59.6086 33.2399 56.8066 31.3789C54.1649 29.6155 50.7216 29.6849 48.0869 31.5459C47.7649 31.7703 43.5692 35.8336 36.5586 42.7188C30.4884 48.6705 25.3796 53.6399 25.2041 53.7666C23.9565 54.6169 22.1652 54.1363 21.5029 52.7773C21.3566 52.4776 21.3291 52.3309 21.3291 51.7314C21.3291 51.1114 21.3495 50.9927 21.5166 50.6445C21.6839 50.31 23.0716 48.9223 31.7285 40.4326C45.3664 27.0596 44.1426 28.2834 44.6367 27.5176C46.5256 24.5693 46.1495 20.826 43.7031 18.3516C42.6995 17.3409 41.5633 16.6712 40.1973 16.3018C39.5909 16.1415 39.3954 16.1211 38.2666 16.1211C37.1096 16.1141 36.9557 16.1283 36.3145 16.3096C35.485 16.5327 34.2581 17.1246 33.6309 17.6055C33.3788 17.7948 27.7682 23.2587 21.1543 29.7402C14.5398 36.2293 7.9602 42.6769 6.53809 44.0781C3.52019 47.0263 3.56872 46.9922 2.47461 46.9922C1.90306 46.9922 1.75631 46.9639 1.42871 46.8105C0.885197 46.5527 0.516073 46.2041 0.237305 45.6885C0.0142594 45.2703 0 45.2139 0 44.5518C6.45171e-06 43.897 0.0144436 43.8268 0.230469 43.4365C0.427607 43.0793 2.65505 40.8658 15.0068 28.7578C23.008 20.91 29.7895 14.2956 30.0762 14.0508C31.505 12.859 33.1847 12.0016 35.0596 11.5137L35.9658 11.2764L38.1826 11.2695ZM37.5068 21.1396C38.0643 20.9586 38.8235 21.0282 39.374 21.2998C40.3638 21.7877 40.9633 22.9242 40.7402 23.9209C40.5523 24.7846 41.0106 24.3058 30.1318 34.9824C17.7251 47.1452 18.339 46.5321 17.9277 47.1455C16.5546 49.2156 16.2756 51.7802 17.1816 54.0176C18.6314 57.5863 22.5977 59.4893 26.3477 58.4229C27.1213 58.2067 28.2157 57.67 28.8359 57.2031C29.2033 56.9264 42.2063 44.237 49.7744 36.7734C50.8545 35.7072 51.1055 35.4979 51.5098 35.3027C51.9277 35.1077 52.0672 35.0801 52.5547 35.0801C53.5861 35.087 54.3878 35.5745 54.834 36.4873C55.043 36.8985 55.0644 37.0175 55.0645 37.5469C55.0645 38.7039 56.0537 37.6375 43.7236 49.7236C37.732 55.5899 32.6596 60.5373 32.4463 60.7227C31.819 61.2594 30.6613 61.9982 29.8389 62.3955C28.8632 62.8624 28.0828 63.1343 27.0723 63.3643C24.089 64.0264 21.1822 63.6641 18.4639 62.291C15.0137 60.5554 12.6443 57.4884 11.8428 53.7246C11.6198 52.686 11.5424 50.9856 11.6748 49.9053C11.9536 47.5216 12.9085 45.2772 14.4209 43.458C14.9506 42.8168 36.552 21.634 36.8936 21.418C37.047 21.3274 37.3188 21.1954 37.5068 21.1396Z" fill="#216BC1" fill-opacity="0.31"/>
</svg>

