<svg width="50" height="35" viewBox="0 0 50 35" fill="none" xmlns="http://www.w3.org/2000/svg">
<path d="M36.6356 1H13.3643C12.4974 1 11.6729 1.37498 11.1032 2.02834L1.1 13.5L4.5 16.5L22 22.5H33.5L43 18L48.9 13.5L38.8966 2.02832C38.3269 1.37497 37.5024 1 36.6356 1Z" fill="#F0F1FB"/>
<path d="M1 14C1 13.4477 1.4477 13 2 13H11.3604C12.3138 13 13.1346 13.6729 13.3216 14.6078L13.6784 16.3922C13.8654 17.3271 14.6862 18 15.6396 18H34.3604C35.3138 18 36.1346 17.3271 36.3216 16.3922L36.6784 14.6078C36.8654 13.6729 37.6862 13 38.6396 13H48C48.5523 13 49 13.4477 49 14V30C49 32.2091 47.2091 34 45 34H25H13H5C2.7909 34 1 32.2091 1 30V14Z" fill="#D7E2DE"/>
<path d="M22 34H45C47.2091 34 49 32.2091 49 30V14C49 13.4477 48.5523 13 48 13H38.6396C37.6862 13 36.8654 13.6729 36.6784 14.6078L36.3216 16.3922C36.1346 17.3271 35.3138 18 34.3604 18H33.5M9 34H5C2.7909 34 1 32.2091 1 30V14C1 13.4477 1.4477 13 2 13H11.3604C12.3138 13 13.1346 13.6729 13.3216 14.6078L13.6784 16.3922C13.8654 17.3271 14.6862 18 15.6396 18H26" stroke="black" stroke-linecap="round"/>
<path d="M48.9 13.5L38.8966 2.02832C38.3269 1.37497 37.5024 1 36.6355 1H21.9999M1.1 13.5L11.1032 2.02834C11.6729 1.37498 12.4974 1 13.3643 1H17.4999" stroke="black" stroke-linecap="round"/>
</svg>
